<?xml version="1.0" encoding="UTF-8"?>
<svg version="1.1" xmlns="http://www.w3.org/2000/svg" width="326" height="112">
<path d="M0 0 C18.39246016 0.02693196 18.39246016 0.02693196 24.22998047 4.56567383 C28.77689832 9.33993757 29.18474601 13.04191373 29.03857422 19.49926758 C28.59347512 23.38120779 27.41184629 25.37127642 24.72998047 28.19067383 C18.43548459 32.88588883 12.96273287 32.67738191 5.29248047 32.44067383 C4.179375 32.42262695 3.06626953 32.40458008 1.91943359 32.38598633 C-0.81128599 32.33910702 -3.5401934 32.27350202 -6.27001953 32.19067383 C-6.36767578 26.03833008 -6.36767578 26.03833008 -6.27001953 24.19067383 C-5.94001953 23.86067383 -5.61001953 23.53067383 -5.27001953 23.19067383 C-5.0347418 20.84080121 -4.85615536 18.48511344 -4.70751953 16.12817383 C-4.62373047 14.83782227 -4.53994141 13.5474707 -4.45361328 12.21801758 C-4.39302734 11.21899414 -4.33244141 10.2199707 -4.27001953 9.19067383 C-4.93001953 9.19067383 -5.59001953 9.19067383 -6.27001953 9.19067383 C-6.36767578 3.03833008 -6.36767578 3.03833008 -6.27001953 1.19067383 C-4.53760774 -0.54173796 -2.31002657 0.02591465 0 0 Z M8.72998047 9.19067383 C8.72998047 13.81067383 8.72998047 18.43067383 8.72998047 23.19067383 C10.70998047 22.86067383 12.68998047 22.53067383 14.72998047 22.19067383 C14.81084194 20.39974192 14.86910749 18.60777755 14.91748047 16.81567383 C14.9696875 15.31907227 14.9696875 15.31907227 15.02294922 13.79223633 C14.92626953 12.9337207 14.82958984 12.07520508 14.72998047 11.19067383 C11.91488053 8.91332373 11.91488053 8.91332373 8.72998047 9.19067383 Z " fill="#04045F" transform="translate(192.27001953125,22.809326171875)"/>
<path d="M0 0 C3.3 0 6.6 0 10 0 C10.33 4.62 10.66 9.24 11 14 C11.99443115 13.99476318 12.9888623 13.98952637 14.01342773 13.98413086 C17.69033921 13.96607959 21.36724675 13.95456754 25.04418945 13.94506836 C26.63794614 13.94002843 28.23169819 13.9331965 29.82543945 13.92456055 C32.11150253 13.91248001 34.39750467 13.90676845 36.68359375 13.90234375 C37.40026718 13.89718246 38.11694061 13.89202118 38.85533142 13.88670349 C40.57063672 13.88650737 42.28581266 13.93807993 44 14 C45 15 45 15 45.1328125 16.8125 C45.13023438 17.534375 45.12765625 18.25625 45.125 19 C45.12886719 20.0828125 45.12886719 20.0828125 45.1328125 21.1875 C45 23 45 23 44 24 C41.55169574 24.08843793 39.13179401 24.11528752 36.68359375 24.09765625 C35.95253922 24.0962413 35.22148468 24.09482635 34.46827698 24.09336853 C32.12464368 24.08775408 29.78110461 24.07519922 27.4375 24.0625 C25.85221492 24.05748686 24.26692834 24.05292363 22.68164062 24.04882812 C18.7877239 24.03777997 14.89387795 24.02050572 11 24 C10.97494385 24.72179443 10.9498877 25.44358887 10.92407227 26.18725586 C10.80848698 29.437535 10.68559226 32.68749688 10.5625 35.9375 C10.52318359 37.07380859 10.48386719 38.21011719 10.44335938 39.38085938 C10.40146484 40.46044922 10.35957031 41.54003906 10.31640625 42.65234375 C10.26141968 44.15269165 10.26141968 44.15269165 10.20532227 45.68334961 C10 48 10 48 9 49 C7.1875 49.1328125 7.1875 49.1328125 5 49.125 C4.278125 49.12757812 3.55625 49.13015625 2.8125 49.1328125 C1 49 1 49 0 48 C-0.09311889 46.49581261 -0.11746028 44.98728644 -0.11352539 43.48022461 C-0.11344986 42.51930405 -0.11337433 41.55838348 -0.11329651 40.56834412 C-0.10813522 39.523564 -0.10297394 38.47878387 -0.09765625 37.40234375 C-0.0962413 36.33834854 -0.09482635 35.27435333 -0.09336853 34.17811584 C-0.08775064 30.76454917 -0.07519511 27.351047 -0.0625 23.9375 C-0.05748731 21.62955824 -0.052924 19.32161545 -0.04882812 17.01367188 C-0.03777539 11.34242289 -0.02049877 5.6712224 0 0 Z " fill="#C8973A" transform="translate(44,6)"/>
<path d="M0 0 C1.30066406 -0.00128906 2.60132813 -0.00257812 3.94140625 -0.00390625 C4.96258545 -0.00076416 4.96258545 -0.00076416 6.00439453 0.00244141 C8.08503515 0.0077901 10.16545989 0.0024957 12.24609375 -0.00390625 C14.19708984 -0.00197266 14.19708984 -0.00197266 16.1875 0 C17.39083984 0.00112793 18.59417969 0.00225586 19.83398438 0.00341797 C22.59375 0.1328125 22.59375 0.1328125 23.59375 1.1328125 C23.69198937 2.79710301 23.72348631 4.46563181 23.71875 6.1328125 C23.72261719 7.4940625 23.72261719 7.4940625 23.7265625 8.8828125 C23.59375 11.1328125 23.59375 11.1328125 22.59375 12.1328125 C14.49128321 12.53129447 14.49128321 12.53129447 10.59375 10.1328125 C9.93375 10.1328125 9.27375 10.1328125 8.59375 10.1328125 C8.59375 10.7928125 8.59375 11.4528125 8.59375 12.1328125 C9.398125 12.1121875 10.2025 12.0915625 11.03125 12.0703125 C13.59375 12.1328125 13.59375 12.1328125 14.59375 13.1328125 C14.71875 16.1328125 14.71875 16.1328125 14.59375 19.1328125 C13.59375 20.1328125 13.59375 20.1328125 11.03125 20.1953125 C10.226875 20.1746875 9.4225 20.1540625 8.59375 20.1328125 C8.59375 21.1228125 8.59375 22.1128125 8.59375 23.1328125 C10.24375 23.1328125 11.89375 23.1328125 13.59375 23.1328125 C13.59375 22.4728125 13.59375 21.8128125 13.59375 21.1328125 C15.07281892 21.10592034 16.55202483 21.08646629 18.03125 21.0703125 C18.85496094 21.05871094 19.67867187 21.04710938 20.52734375 21.03515625 C22.59375 21.1328125 22.59375 21.1328125 23.59375 22.1328125 C23.6916557 23.63019374 23.72349864 25.13224142 23.71875 26.6328125 C23.72261719 27.85484375 23.72261719 27.85484375 23.7265625 29.1015625 C23.59375 31.1328125 23.59375 31.1328125 22.59375 32.1328125 C20.46021826 32.23284539 18.32337458 32.26362298 16.1875 32.265625 C14.88683594 32.26691406 13.58617187 32.26820312 12.24609375 32.26953125 C11.56530762 32.26743652 10.88452148 32.2653418 10.18310547 32.26318359 C8.10246485 32.2578349 6.02204011 32.2631293 3.94140625 32.26953125 C1.99041016 32.26759766 1.99041016 32.26759766 0 32.265625 C-1.20333984 32.26449707 -2.40667969 32.26336914 -3.64648438 32.26220703 C-6.40625 32.1328125 -6.40625 32.1328125 -7.40625 31.1328125 C-7.44717937 28.79983817 -7.44866723 26.46576025 -7.40625 24.1328125 C-6.41625 23.8028125 -5.42625 23.4728125 -4.40625 23.1328125 C-4.40625 18.5128125 -4.40625 13.8928125 -4.40625 9.1328125 C-5.39625 9.1328125 -6.38625 9.1328125 -7.40625 9.1328125 C-7.50390625 2.98046875 -7.50390625 2.98046875 -7.40625 1.1328125 C-5.54910943 -0.72432807 -2.48117951 0.00232569 0 0 Z " fill="#020360" transform="translate(231.40625,22.8671875)"/>
<path d="M0 0 C0.93972656 -0.00128906 1.87945312 -0.00257812 2.84765625 -0.00390625 C3.83636719 -0.00003906 4.82507813 0.00382812 5.84375 0.0078125 C7.32681641 0.00201172 7.32681641 0.00201172 8.83984375 -0.00390625 C9.77957031 -0.00261719 10.71929687 -0.00132813 11.6875 0 C12.55568359 0.00112793 13.42386719 0.00225586 14.31835938 0.00341797 C16.34375 0.1328125 16.34375 0.1328125 17.34375 1.1328125 C17.48490161 3.80340101 17.38622107 6.45713488 17.34375 9.1328125 C16.68375 9.1328125 16.02375 9.1328125 15.34375 9.1328125 C16.12880901 11.26026249 16.9220106 13.38470924 17.71875 15.5078125 C18.15960938 16.69117187 18.60046875 17.87453125 19.0546875 19.09375 C20.1387842 22.17774696 20.1387842 22.17774696 22.34375 24.1328125 C22.34375 26.7728125 22.34375 29.4128125 22.34375 32.1328125 C17.06375 32.1328125 11.78375 32.1328125 6.34375 32.1328125 C5.34375 26.1328125 5.34375 26.1328125 7.34375 23.1328125 C5.03375 22.8028125 2.72375 22.4728125 0.34375 22.1328125 C0.49972656 22.77089844 0.65570313 23.40898438 0.81640625 24.06640625 C1.01105469 24.89269531 1.20570313 25.71898438 1.40625 26.5703125 C1.60347656 27.39402344 1.80070312 28.21773437 2.00390625 29.06640625 C2.11605469 29.74832031 2.22820312 30.43023437 2.34375 31.1328125 C1.34375 32.1328125 1.34375 32.1328125 -1.37890625 32.23046875 C-2.48105469 32.21886719 -3.58320313 32.20726562 -4.71875 32.1953125 C-5.82347656 32.18628906 -6.92820312 32.17726562 -8.06640625 32.16796875 C-9.34837891 32.15056641 -9.34837891 32.15056641 -10.65625 32.1328125 C-10.65625 29.1628125 -10.65625 26.1928125 -10.65625 23.1328125 C-9.99625 23.1328125 -9.33625 23.1328125 -8.65625 23.1328125 C-8.46289062 22.45734375 -8.26953125 21.781875 -8.0703125 21.0859375 C-7.80992187 20.19390625 -7.54953125 19.301875 -7.28125 18.3828125 C-7.02601563 17.50109375 -6.77078125 16.619375 -6.5078125 15.7109375 C-5.7352566 13.37200678 -4.81999324 11.29838688 -3.65625 9.1328125 C-4.31625 9.1328125 -4.97625 9.1328125 -5.65625 9.1328125 C-5.75390625 2.98046875 -5.75390625 2.98046875 -5.65625 1.1328125 C-4.03424485 -0.48919265 -2.23601969 0.002905 0 0 Z M3.34375 11.1328125 C3.01375 13.1128125 2.68375 15.0928125 2.34375 17.1328125 C3.33375 17.1328125 4.32375 17.1328125 5.34375 17.1328125 C5.01375 15.1528125 4.68375 13.1728125 4.34375 11.1328125 C4.01375 11.1328125 3.68375 11.1328125 3.34375 11.1328125 Z " fill="#020263" transform="translate(298.65625,22.8671875)"/>
<path d="M0 0 C2.45840605 -0.02691685 4.91651882 -0.04679802 7.375 -0.0625 C8.07367188 -0.07087891 8.77234375 -0.07925781 9.4921875 -0.08789062 C14.7734375 -0.11328125 14.7734375 -0.11328125 17 1 C17 3.64 17 6.28 17 9 C16.34 9 15.68 9 15 9 C15.33 13.62 15.66 18.24 16 23 C16.99 23 17.98 23 19 23 C19.02685938 20.85423363 19.04633088 18.70837355 19.0625 16.5625 C19.07410156 15.36753906 19.08570313 14.17257813 19.09765625 12.94140625 C19.33901792 10.11126659 19.33901792 10.11126659 18 9 C17.8671875 7.1875 17.8671875 7.1875 17.875 5 C17.87113281 3.9171875 17.87113281 3.9171875 17.8671875 2.8125 C18 1 18 1 19 0 C20.83115883 -0.09851171 22.66619933 -0.12972629 24.5 -0.125 C25.5003125 -0.12757812 26.500625 -0.13015625 27.53125 -0.1328125 C30 0 30 0 31 1 C31.14115161 3.67058851 31.04247107 6.32432238 31 9 C30.34 9 29.68 9 29 9 C29.02320313 9.70125 29.04640625 10.4025 29.0703125 11.125 C29.18451684 17.12888515 29.08716087 22.33484908 27 28 C24.31803435 30.69157843 22.64287336 31.88333337 18.87890625 32.56640625 C8.82079196 32.55455924 8.82079196 32.55455924 5.25 29.6875 C1.65074226 25.38838659 1.87258294 21.66066719 1.9375 16.3125 C1.94201172 15.61060547 1.94652344 14.90871094 1.95117188 14.18554688 C1.96293073 12.45699462 1.98086546 10.72848635 2 9 C1.34 9 0.68 9 0 9 C0 6.03 0 3.06 0 0 Z " fill="#010164" transform="translate(153,23)"/>
<path d="M0 0 C0.70253906 0.00386719 1.40507812 0.00773437 2.12890625 0.01171875 C2.83144531 0.00785156 3.53398437 0.00398438 4.2578125 0 C9.50229247 0.01010497 9.50229247 0.01010497 10.62890625 1.13671875 C10.67276531 3.81212124 10.67354249 6.46350395 10.62890625 9.13671875 C10.62890625 12.90359739 10.86427942 14.0486218 12.62890625 17.13671875 C13.61890625 14.49671875 14.60890625 11.85671875 15.62890625 9.13671875 C14.96890625 9.13671875 14.30890625 9.13671875 13.62890625 9.13671875 C13.53125 2.984375 13.53125 2.984375 13.62890625 1.13671875 C14.62890625 0.13671875 14.62890625 0.13671875 17.31640625 0.00390625 C18.40953125 0.00648437 19.50265625 0.0090625 20.62890625 0.01171875 C21.72203125 0.00914063 22.81515625 0.0065625 23.94140625 0.00390625 C26.62890625 0.13671875 26.62890625 0.13671875 27.62890625 1.13671875 C27.77005786 3.80730726 27.67137732 6.46104113 27.62890625 9.13671875 C26.63890625 9.13671875 25.64890625 9.13671875 24.62890625 9.13671875 C24.4896875 10.10351562 24.4896875 10.10351562 24.34765625 11.08984375 C23.37415643 15.21663646 21.76748556 18.98439935 20.12890625 22.88671875 C19.80792969 23.66660156 19.48695313 24.44648437 19.15625 25.25 C16.76669457 30.99893043 16.76669457 30.99893043 15.62890625 32.13671875 C13.94281659 32.20877386 12.25389966 32.22057943 10.56640625 32.19921875 C9.64730469 32.19019531 8.72820312 32.18117187 7.78125 32.171875 C7.07097656 32.16027344 6.36070312 32.14867187 5.62890625 32.13671875 C2.29309952 25.72061389 -0.62344079 19.24390954 -3.2578125 12.5078125 C-4.13900099 9.99461605 -4.13900099 9.99461605 -6.37109375 9.13671875 C-6.46875 2.984375 -6.46875 2.984375 -6.37109375 1.13671875 C-4.61549433 -0.61888067 -2.33526933 0.00449956 0 0 Z " fill="#020360" transform="translate(262.37109375,22.86328125)"/>
<path d="M0 0 C1.12535156 0.00580078 1.12535156 0.00580078 2.2734375 0.01171875 C3.02367187 0.00785156 3.77390625 0.00398438 4.546875 0 C10.14682697 0.01010822 10.14682697 0.01010822 11.2734375 1.13671875 C11.41458911 3.80730726 11.31590857 6.46104113 11.2734375 9.13671875 C10.6134375 9.13671875 9.9534375 9.13671875 9.2734375 9.13671875 C9.2734375 13.75671875 9.2734375 18.37671875 9.2734375 23.13671875 C10.9234375 23.13671875 12.5734375 23.13671875 14.2734375 23.13671875 C14.2734375 21.81671875 14.2734375 20.49671875 14.2734375 19.13671875 C17.2434375 19.13671875 20.2134375 19.13671875 23.2734375 19.13671875 C23.2734375 23.42671875 23.2734375 27.71671875 23.2734375 32.13671875 C13.3734375 32.13671875 3.4734375 32.13671875 -6.7265625 32.13671875 C-6.7265625 29.16671875 -6.7265625 26.19671875 -6.7265625 23.13671875 C-5.7365625 23.13671875 -4.7465625 23.13671875 -3.7265625 23.13671875 C-3.7265625 18.51671875 -3.7265625 13.89671875 -3.7265625 9.13671875 C-4.7165625 9.13671875 -5.7065625 9.13671875 -6.7265625 9.13671875 C-6.82421875 2.984375 -6.82421875 2.984375 -6.7265625 1.13671875 C-4.90540247 -0.68444128 -2.41984486 0.00436795 0 0 Z " fill="#010262" transform="translate(128.7265625,22.86328125)"/>
<path d="M0 0 C15.84 0 31.68 0 48 0 C48 2.97 48 5.94 48 9 C46.42699672 10.57300328 44.86315955 10.12725504 42.6796875 10.12939453 C41.76203613 10.13254669 40.84438477 10.13569885 39.89892578 10.13894653 C38.90103027 10.1369223 37.90313477 10.13489807 36.875 10.1328125 C35.85776855 10.13376923 34.84053711 10.13472595 33.79248047 10.13571167 C31.63704364 10.13639361 29.48160478 10.13453835 27.32617188 10.13037109 C24.01427629 10.12502305 20.70251633 10.13031563 17.390625 10.13671875 C15.30208303 10.13605797 13.21354115 10.13477681 11.125 10.1328125 C9.62815674 10.13584885 9.62815674 10.13584885 8.10107422 10.13894653 C7.18342285 10.13579437 6.26577148 10.13264221 5.3203125 10.12939453 C4.50836426 10.12859894 3.69641602 10.12780334 2.85986328 10.12698364 C1 10 1 10 0 9 C0 6.03 0 3.06 0 0 Z " fill="#CB9836" transform="translate(55,45)"/>
<path d="M0 0 C0.495 5.94 0.495 5.94 1 12 C-14.84 11.67 -30.68 11.34 -47 11 C-47 7.7 -47 4.4 -47 1 C-45.80922852 1.00523682 -44.61845703 1.01047363 -43.39160156 1.01586914 C-38.9710363 1.03397788 -34.55047431 1.04545353 -30.12988281 1.05493164 C-28.21711679 1.05995841 -26.3043546 1.06678077 -24.39160156 1.07543945 C-21.6412664 1.08757748 -18.89098207 1.0932449 -16.140625 1.09765625 C-14.85916595 1.10539818 -14.85916595 1.10539818 -13.55181885 1.11329651 C-12.75129089 1.11337204 -11.95076294 1.11344757 -11.12597656 1.11352539 C-10.42426331 1.115746 -9.72255005 1.11796661 -8.99957275 1.12025452 C-5.8794936 0.93261263 -3.1599145 0 0 0 Z " fill="#080948" transform="translate(53,56)"/>
<path d="M0 0 C2.64 0 5.28 0 8 0 C9 1 9 1 9.12025452 2.94252014 C9.1169236 4.21826149 9.1169236 4.21826149 9.11352539 5.51977539 C9.11344986 6.48069595 9.11337433 7.44161652 9.11329651 8.43165588 C9.10813522 9.476436 9.10297394 10.52121613 9.09765625 11.59765625 C9.0962413 12.66165146 9.09482635 13.72564667 9.09336853 14.82188416 C9.08775064 18.23545083 9.07519511 21.648953 9.0625 25.0625 C9.05748731 27.37044176 9.052924 29.67838455 9.04882812 31.98632812 C9.03777539 37.65757711 9.02049877 43.3287776 9 49 C6.03 49 3.06 49 0 49 C0 32.83 0 16.66 0 0 Z " fill="#090A53" transform="translate(55,57)"/>
<path d="M0 0 C0.721875 0.00257812 1.44375 0.00515625 2.1875 0.0078125 C2.909375 0.00523438 3.63125 0.00265625 4.375 0 C6.1875 0.1328125 6.1875 0.1328125 7.1875 1.1328125 C7.27624135 4.23532451 7.30268455 7.3154937 7.28515625 10.41796875 C7.2837413 11.34878769 7.28232635 12.27960663 7.28086853 13.2386322 C7.27525172 16.22422441 7.2626964 19.20974279 7.25 22.1953125 C7.24498716 24.21419163 7.24042388 26.23307193 7.23632812 28.25195312 C7.22527683 33.21226822 7.20800095 38.17252782 7.1875 43.1328125 C5.70843108 43.15970466 4.22922517 43.17915871 2.75 43.1953125 C1.92628906 43.20691406 1.10257812 43.21851563 0.25390625 43.23046875 C-1.8125 43.1328125 -1.8125 43.1328125 -2.8125 42.1328125 C-2.913637 39.11473187 -2.95218909 36.12000737 -2.9453125 33.1015625 C-2.94626923 32.19531128 -2.94722595 31.28906006 -2.94821167 30.35534668 C-2.94889353 28.43530203 -2.94703882 26.51525509 -2.94287109 24.59521484 C-2.93752292 21.64545546 -2.94281588 18.69584836 -2.94921875 15.74609375 C-2.94855797 13.88541633 -2.94727681 12.024739 -2.9453125 10.1640625 C-2.94733673 9.27553589 -2.94936096 8.38700928 -2.95144653 7.47155762 C-2.92346493 0.21421941 -2.92346493 0.21421941 0 0 Z " fill="#020262" transform="translate(68.8125,56.8671875)"/>
<path d="M0 0 C13.53 0 27.06 0 41 0 C41 3.3 41 6.6 41 10 C36.52611636 11.14843858 32.21233628 11.04131966 27.63671875 10.87890625 C26.44874443 10.84348976 26.44874443 10.84348976 25.23677063 10.80735779 C22.72014719 10.73110306 20.20386159 10.64691584 17.6875 10.5625 C15.9759277 10.50924101 14.26433917 10.4565009 12.55273438 10.40429688 C8.36827776 10.27553999 4.18410597 10.13967078 0 10 C0 6.7 0 3.4 0 0 Z " fill="#03045A" transform="translate(55,33)"/>
<path d="M0 0 C13.33333333 0 26.66666667 0 40 0 C40 3.63 40 7.26 40 11 C26.47 11 12.94 11 -1 11 C-1 2 -1 2 0 0 Z " fill="#020159" transform="translate(13,68)"/>
<path d="M0 0 C2.97 0 5.94 0 9 0 C9.1922881 5.64133763 9.371007 11.28287935 9.53710938 16.92504883 C9.59554321 18.84476269 9.65769741 20.76436704 9.72363281 22.68383789 C9.81771235 25.44136619 9.89844762 28.1990103 9.9765625 30.95703125 C10.00875885 31.81649857 10.0409552 32.67596588 10.0741272 33.56147766 C10.10438492 34.76238289 10.10438492 34.76238289 10.13525391 35.98754883 C10.15746002 36.6914827 10.17966614 37.39541656 10.20254517 38.12068176 C10 40 10 40 8 43 C5.36 43 2.72 43 0 43 C0 28.81 0 14.62 0 0 Z " fill="#020162" transform="translate(33,12)"/>
<path d="M0 0 C4.68139254 -0.02465288 9.36274759 -0.04283739 14.04418945 -0.05493164 C15.63794614 -0.05997157 17.23169819 -0.0668035 18.82543945 -0.07543945 C21.11150253 -0.08751999 23.39750467 -0.09323155 25.68359375 -0.09765625 C26.40026718 -0.10281754 27.11694061 -0.10797882 27.85533142 -0.11329651 C29.57063672 -0.11349263 31.28581266 -0.06192007 33 0 C34 1 34 1 34.1328125 2.8125 C34.13023438 3.534375 34.12765625 4.25625 34.125 5 C34.12886719 6.0828125 34.12886719 6.0828125 34.1328125 7.1875 C34 9 34 9 33 10 C30.55169574 10.08843793 28.13179401 10.11528752 25.68359375 10.09765625 C24.95253922 10.0962413 24.22148468 10.09482635 23.46827698 10.09336853 C21.12464368 10.08775408 18.78110461 10.07519922 16.4375 10.0625 C14.85221492 10.05748686 13.26692834 10.05292363 11.68164062 10.04882812 C7.7877239 10.03777997 3.89387795 10.02050572 0 10 C-0.74926071 6.33694766 -1.2380014 3.57644848 0 0 Z " fill="#030462" transform="translate(55,20)"/>
<path d="M0 0 C3.3 0 6.6 0 10 0 C10 10.89 10 21.78 10 33 C5 34 5 34 0 33 C0 22.11 0 11.22 0 0 Z " fill="#010158" transform="translate(21,21)"/>
<path d="M0 0 C0.721875 0.00257812 1.44375 0.00515625 2.1875 0.0078125 C2.909375 0.00523438 3.63125 0.00265625 4.375 0 C6.1875 0.1328125 6.1875 0.1328125 7.1875 1.1328125 C7.27593793 3.58111676 7.30278752 6.00101849 7.28515625 8.44921875 C7.2837413 9.18027328 7.28232635 9.91132782 7.28086853 10.66453552 C7.27525408 13.00816882 7.26269922 15.35170789 7.25 17.6953125 C7.24498686 19.28059758 7.24042363 20.86588416 7.23632812 22.45117188 C7.22527997 26.3450886 7.20800572 30.23893455 7.1875 34.1328125 C3.8875 34.1328125 0.5875 34.1328125 -2.8125 34.1328125 C-2.83715288 29.45141996 -2.85533739 24.77006491 -2.86743164 20.08862305 C-2.87247157 18.49486636 -2.8793035 16.90111431 -2.88793945 15.30737305 C-2.90001999 13.02130997 -2.90573155 10.73530783 -2.91015625 8.44921875 C-2.91531754 7.73254532 -2.92047882 7.01587189 -2.92579651 6.27748108 C-2.92599263 4.56217578 -2.87442007 2.84699984 -2.8125 1.1328125 C-1.8125 0.1328125 -1.8125 0.1328125 0 0 Z " fill="#020262" transform="translate(79.8125,56.8671875)"/>
<path d="M0 0 C10.89 0 21.78 0 33 0 C33 3.3 33 6.6 33 10 C22.11 10 11.22 10 0 10 C0 6.7 0 3.4 0 0 Z " fill="#010262" transform="translate(20,82)"/>
<path d="M0 0 C0.93972656 -0.00128906 1.87945312 -0.00257812 2.84765625 -0.00390625 C3.83636719 -0.00003906 4.82507813 0.00382812 5.84375 0.0078125 C7.32681641 0.00201172 7.32681641 0.00201172 8.83984375 -0.00390625 C9.77957031 -0.00261719 10.71929687 -0.00132813 11.6875 0 C12.55568359 0.00112793 13.42386719 0.00225586 14.31835938 0.00341797 C16.34375 0.1328125 16.34375 0.1328125 17.34375 1.1328125 C17.48490161 3.80340101 17.38622107 6.45713488 17.34375 9.1328125 C16.68375 9.1328125 16.02375 9.1328125 15.34375 9.1328125 C16.12880901 11.26026249 16.9220106 13.38470924 17.71875 15.5078125 C18.15960938 16.69117187 18.60046875 17.87453125 19.0546875 19.09375 C20.1387842 22.17774696 20.1387842 22.17774696 22.34375 24.1328125 C22.34375 26.7728125 22.34375 29.4128125 22.34375 32.1328125 C17.06375 32.1328125 11.78375 32.1328125 6.34375 32.1328125 C5.34375 26.1328125 5.34375 26.1328125 7.34375 23.1328125 C5.03375 22.8028125 2.72375 22.4728125 0.34375 22.1328125 C0.49972656 22.77089844 0.65570313 23.40898438 0.81640625 24.06640625 C1.01105469 24.89269531 1.20570313 25.71898438 1.40625 26.5703125 C1.60347656 27.39402344 1.80070312 28.21773437 2.00390625 29.06640625 C2.11605469 29.74832031 2.22820312 30.43023437 2.34375 31.1328125 C1.34375 32.1328125 1.34375 32.1328125 -1.37890625 32.23046875 C-2.48105469 32.21886719 -3.58320313 32.20726562 -4.71875 32.1953125 C-5.82347656 32.18628906 -6.92820312 32.17726562 -8.06640625 32.16796875 C-9.34837891 32.15056641 -9.34837891 32.15056641 -10.65625 32.1328125 C-10.65625 29.1628125 -10.65625 26.1928125 -10.65625 23.1328125 C-9.99625 23.1328125 -9.33625 23.1328125 -8.65625 23.1328125 C-8.46289062 22.45734375 -8.26953125 21.781875 -8.0703125 21.0859375 C-7.80992187 20.19390625 -7.54953125 19.301875 -7.28125 18.3828125 C-7.02601563 17.50109375 -6.77078125 16.619375 -6.5078125 15.7109375 C-5.7352566 13.37200678 -4.81999324 11.29838688 -3.65625 9.1328125 C-4.31625 9.1328125 -4.97625 9.1328125 -5.65625 9.1328125 C-5.75390625 2.98046875 -5.75390625 2.98046875 -5.65625 1.1328125 C-4.03424485 -0.48919265 -2.23601969 0.002905 0 0 Z M-2.65625 3.1328125 C-2.98625 4.7828125 -3.31625 6.4328125 -3.65625 8.1328125 C-2.99625 8.1328125 -2.33625 8.1328125 -1.65625 8.1328125 C-2.171875 9.3084375 -2.6875 10.4840625 -3.21875 11.6953125 C-4.8508936 15.97396932 -4.66908481 18.71316971 -3.65625 23.1328125 C-4.6153125 23.349375 -4.6153125 23.349375 -5.59375 23.5703125 C-7.63170146 23.94288431 -7.63170146 23.94288431 -8.65625 25.1328125 C-8.69688832 26.79898365 -8.698971 28.46669345 -8.65625 30.1328125 C-5.68625 30.1328125 -2.71625 30.1328125 0.34375 30.1328125 C0.34375 28.4828125 0.34375 26.8328125 0.34375 25.1328125 C-0.31625 25.1328125 -0.97625 25.1328125 -1.65625 25.1328125 C-1.16125 24.4728125 -0.66625 23.8128125 -0.15625 23.1328125 C1.82691621 19.16648009 1.56732461 16.52977988 1.34375 12.1328125 C2.00375 12.1328125 2.66375 12.1328125 3.34375 12.1328125 C3.01375 13.7828125 2.68375 15.4328125 2.34375 17.1328125 C3.99375 17.4628125 5.64375 17.7928125 7.34375 18.1328125 C7.01375 18.7928125 6.68375 19.4528125 6.34375 20.1328125 C7.33375 20.1328125 8.32375 20.1328125 9.34375 20.1328125 C9.01375 23.4328125 8.68375 26.7328125 8.34375 30.1328125 C11.97375 30.1328125 15.60375 30.1328125 19.34375 30.1328125 C20.41781928 25.83653539 20.27330467 25.2044079 18.59375 21.3828125 C18.2225 20.51398437 17.85125 19.64515625 17.46875 18.75 C17.0975 17.88632812 16.72625 17.02265625 16.34375 16.1328125 C15.75037519 14.59498279 15.16588264 13.05367088 14.59375 11.5078125 C14.18125 10.3940625 13.76875 9.2803125 13.34375 8.1328125 C14.00375 8.1328125 14.66375 8.1328125 15.34375 8.1328125 C15.34375 6.4828125 15.34375 4.8328125 15.34375 3.1328125 C9.40375 3.1328125 3.46375 3.1328125 -2.65625 3.1328125 Z " fill="#060846" transform="translate(298.65625,22.8671875)"/>
<path d="M0 0 C0.9075 0.00257812 1.815 0.00515625 2.75 0.0078125 C4.11125 0.00394531 4.11125 0.00394531 5.5 0 C7.75 0.1328125 7.75 0.1328125 8.75 1.1328125 C8.79063832 2.79898365 8.792721 4.46669345 8.75 6.1328125 C7.76 6.1328125 6.77 6.1328125 5.75 6.1328125 C5.4715625 6.99777344 5.193125 7.86273438 4.90625 8.75390625 C3.80671104 11.96708599 2.57330557 15.06859965 1.25 18.1953125 C-0.28380534 21.82874771 -1.79684884 25.46629683 -3.25 29.1328125 C-5.89 29.1328125 -8.53 29.1328125 -11.25 29.1328125 C-11.9375 27.5078125 -11.9375 27.5078125 -12.25 25.1328125 C-10.8125 21.8828125 -10.8125 21.8828125 -9.25 19.1328125 C-7.93 19.4628125 -6.61 19.7928125 -5.25 20.1328125 C-4.92 18.4828125 -4.59 16.8328125 -4.25 15.1328125 C-3.59 15.1328125 -2.93 15.1328125 -2.25 15.1328125 C-1.92 12.1628125 -1.59 9.1928125 -1.25 6.1328125 C-1.91 6.1328125 -2.57 6.1328125 -3.25 6.1328125 C-3.292721 4.46669345 -3.29063832 2.79898365 -3.25 1.1328125 C-2.25 0.1328125 -2.25 0.1328125 0 0 Z " fill="#030363" transform="translate(280.25,24.8671875)"/>
<path d="M0 0 C15.84 0 31.68 0 48 0 C48 2.97 48 5.94 48 9 C46.42699672 10.57300328 44.86315955 10.12725504 42.6796875 10.12939453 C41.76203613 10.13254669 40.84438477 10.13569885 39.89892578 10.13894653 C38.90103027 10.1369223 37.90313477 10.13489807 36.875 10.1328125 C35.85776855 10.13376923 34.84053711 10.13472595 33.79248047 10.13571167 C31.63704364 10.13639361 29.48160478 10.13453835 27.32617188 10.13037109 C24.01427629 10.12502305 20.70251633 10.13031563 17.390625 10.13671875 C15.30208303 10.13605797 13.21354115 10.13477681 11.125 10.1328125 C9.62815674 10.13584885 9.62815674 10.13584885 8.10107422 10.13894653 C7.18342285 10.13579437 6.26577148 10.13264221 5.3203125 10.12939453 C4.50836426 10.12859894 3.69641602 10.12780334 2.85986328 10.12698364 C1 10 1 10 0 9 C0 6.03 0 3.06 0 0 Z M2 2 C2 3.65 2 5.3 2 7 C4.12127941 9.12127941 8.80252048 8.28374229 11.7421875 8.3515625 C13.06115524 8.38629166 13.06115524 8.38629166 14.4067688 8.42172241 C16.27128163 8.46943929 18.13585963 8.51466373 20.00048828 8.55761719 C22.85604362 8.62455563 25.71115899 8.70236215 28.56640625 8.78125 C30.37498376 8.8261795 32.18357724 8.87047132 33.9921875 8.9140625 C34.84851776 8.93796051 35.70484802 8.96185852 36.58712769 8.98648071 C39.99700976 9.05861722 42.73861822 9.08712726 46 8 C46 6.02 46 4.04 46 2 C31.48 2 16.96 2 2 2 Z " fill="#AD8B4C" transform="translate(55,45)"/>
<path d="M0 0 C0.639375 0.495 1.27875 0.99 1.9375 1.5 C3.70974339 3.09802862 3.70974339 3.09802862 5 3 C5 13.23 5 23.46 5 34 C2.69 34 0.38 34 -2 34 C-2.22411894 10.64182575 -2.22411894 10.64182575 -1 1 C-0.67 0.67 -0.34 0.34 0 0 Z " fill="#020262" transform="translate(58,71)"/>
<path d="M0 0 C-1.15173355 2.46800047 -2.04783565 4.04783565 -4 6 C-6.70556641 6.22705078 -6.70556641 6.22705078 -10.1015625 6.1953125 C-11.91914062 6.18564453 -11.91914062 6.18564453 -13.7734375 6.17578125 C-15.04445313 6.15902344 -16.31546875 6.14226562 -17.625 6.125 C-18.90375 6.11597656 -20.1825 6.10695313 -21.5 6.09765625 C-24.66685167 6.07402303 -27.83333424 6.04107629 -31 6 C-31 4.02 -31 2.04 -31 0 C-26.58369908 -0.19688523 -22.16695334 -0.38088923 -17.75 -0.5625 C-16.49574219 -0.61857422 -15.24148437 -0.67464844 -13.94921875 -0.73242188 C-12.74394531 -0.78076172 -11.53867187 -0.82910156 -10.296875 -0.87890625 C-8.63156738 -0.94960327 -8.63156738 -0.94960327 -6.93261719 -1.02172852 C-4.38493859 -1.00285211 -2.41237207 -0.76220692 0 0 Z " fill="#020162" transform="translate(38,59)"/>
<path d="M0 0 C0.721875 0.00257812 1.44375 0.00515625 2.1875 0.0078125 C2.909375 0.00523438 3.63125 0.00265625 4.375 0 C6.1875 0.1328125 6.1875 0.1328125 7.1875 1.1328125 C7.27624135 4.23532451 7.30268455 7.3154937 7.28515625 10.41796875 C7.2837413 11.34878769 7.28232635 12.27960663 7.28086853 13.2386322 C7.27525172 16.22422441 7.2626964 19.20974279 7.25 22.1953125 C7.24498716 24.21419163 7.24042388 26.23307193 7.23632812 28.25195312 C7.22527683 33.21226822 7.20800095 38.17252782 7.1875 43.1328125 C5.70843108 43.15970466 4.22922517 43.17915871 2.75 43.1953125 C1.92628906 43.20691406 1.10257812 43.21851563 0.25390625 43.23046875 C-1.8125 43.1328125 -1.8125 43.1328125 -2.8125 42.1328125 C-2.913637 39.11473187 -2.95218909 36.12000737 -2.9453125 33.1015625 C-2.94626923 32.19531128 -2.94722595 31.28906006 -2.94821167 30.35534668 C-2.94889353 28.43530203 -2.94703882 26.51525509 -2.94287109 24.59521484 C-2.93752292 21.64545546 -2.94281588 18.69584836 -2.94921875 15.74609375 C-2.94855797 13.88541633 -2.94727681 12.024739 -2.9453125 10.1640625 C-2.94733673 9.27553589 -2.94936096 8.38700928 -2.95144653 7.47155762 C-2.92346493 0.21421941 -2.92346493 0.21421941 0 0 Z M3.1875 3.1328125 C2.1975 3.6278125 2.1975 3.6278125 1.1875 4.1328125 C1.1875 4.7928125 1.1875 5.4528125 1.1875 6.1328125 C0.5275 6.1328125 -0.1325 6.1328125 -0.8125 6.1328125 C-0.8125 17.0228125 -0.8125 27.9128125 -0.8125 39.1328125 C0.5075 39.4628125 1.8275 39.7928125 3.1875 40.1328125 C3.1875 40.7928125 3.1875 41.4528125 3.1875 42.1328125 C4.1775 42.1328125 5.1675 42.1328125 6.1875 42.1328125 C6.26163521 37.06082362 6.31609451 31.98914982 6.35229492 26.91674805 C6.36738516 25.19110623 6.38785975 23.46550278 6.41381836 21.73999023 C6.45019209 19.26015762 6.46722359 16.78083186 6.48046875 14.30078125 C6.50369453 13.14282295 6.50369453 13.14282295 6.52738953 11.96147156 C6.57343 7.75068721 6.57343 7.75068721 4.66918945 4.12231445 C4.18023193 3.79577881 3.69127441 3.46924316 3.1875 3.1328125 Z " fill="#020247" transform="translate(68.8125,56.8671875)"/>
<path d="M0 0 C1.093125 0.00257812 2.18625 0.00515625 3.3125 0.0078125 C4.405625 0.00523438 5.49875 0.00265625 6.625 0 C9.3125 0.1328125 9.3125 0.1328125 10.3125 1.1328125 C10.45365161 3.80340101 10.35497107 6.45713488 10.3125 9.1328125 C9.3225 9.1328125 8.3325 9.1328125 7.3125 9.1328125 C7.17328125 10.09960938 7.17328125 10.09960938 7.03125 11.0859375 C6.05775018 15.21273021 4.45107931 18.9804931 2.8125 22.8828125 C2.49152344 23.66269531 2.17054688 24.44257812 1.83984375 25.24609375 C-0.54971168 30.99502418 -0.54971168 30.99502418 -1.6875 32.1328125 C-3.37358966 32.20486761 -5.06250659 32.21667318 -6.75 32.1953125 C-7.66910156 32.18628906 -8.58820313 32.17726562 -9.53515625 32.16796875 C-10.24542969 32.15636719 -10.95570313 32.14476562 -11.6875 32.1328125 C-15.02330673 25.71670764 -17.93984704 19.24000329 -20.57421875 12.50390625 C-21.45540724 9.9907098 -21.45540724 9.9907098 -23.6875 9.1328125 C-23.6875 6.4928125 -23.6875 3.8528125 -23.6875 1.1328125 C-22.6975 1.4628125 -21.7075 1.7928125 -20.6875 2.1328125 C-21.3475 4.1128125 -22.0075 6.0928125 -22.6875 8.1328125 C-21.75164062 8.24302734 -21.75164062 8.24302734 -20.796875 8.35546875 C-18.6875 9.1328125 -18.6875 9.1328125 -17.640625 11.12890625 C-17.40859375 11.93457031 -17.1765625 12.74023438 -16.9375 13.5703125 C-16.57398438 14.77494141 -16.57398438 14.77494141 -16.203125 16.00390625 C-15.6875 18.1328125 -15.6875 18.1328125 -15.6875 20.1328125 C-14.6975 20.4628125 -13.7075 20.7928125 -12.6875 21.1328125 C-12.6875 22.4528125 -12.6875 23.7728125 -12.6875 25.1328125 C-12.07405243 26.81979332 -11.41654086 28.49247057 -10.6875 30.1328125 C-8.0475 30.4628125 -5.4075 30.7928125 -2.6875 31.1328125 C-2.54054688 30.47796875 -2.39359375 29.823125 -2.2421875 29.1484375 C-0.37694595 21.55883396 2.61031023 14.99803819 6.3125 8.1328125 C7.3025 8.1328125 8.2925 8.1328125 9.3125 8.1328125 C8.8175 5.6578125 8.8175 5.6578125 8.3125 3.1328125 C5.0125 3.1328125 1.7125 3.1328125 -1.6875 3.1328125 C-2.0175 4.7828125 -2.3475 6.4328125 -2.6875 8.1328125 C-2.0275 8.1328125 -1.3675 8.1328125 -0.6875 8.1328125 C-1.0175 11.1028125 -1.3475 14.0728125 -1.6875 17.1328125 C-2.3475 17.1328125 -3.0075 17.1328125 -3.6875 17.1328125 C-3.16481534 14.37005073 -2.57880413 11.8067249 -1.6875 9.1328125 C-2.3475 9.1328125 -3.0075 9.1328125 -3.6875 9.1328125 C-3.78515625 2.98046875 -3.78515625 2.98046875 -3.6875 1.1328125 C-2.6875 0.1328125 -2.6875 0.1328125 0 0 Z " fill="#090A4B" transform="translate(279.6875,22.8671875)"/>
<path d="M0 0 C2.97 0 5.94 0 9 0 C9 2.31 9 4.62 9 7 C8.34 7 7.68 7 7 7 C7.01160156 8.13179687 7.02320313 9.26359375 7.03515625 10.4296875 C7.04453454 11.91145669 7.0536347 13.39322765 7.0625 14.875 C7.07087891 15.62136719 7.07925781 16.36773437 7.08789062 17.13671875 C7.11328125 22.7734375 7.11328125 22.7734375 6 25 C4.68 25 3.36 25 2 25 C0.74161443 22.48322887 0.79181027 20.58706712 0.68359375 17.7734375 C0.64169922 16.7421875 0.59980469 15.7109375 0.55664062 14.6484375 C0.51732422 13.56820312 0.47800781 12.48796875 0.4375 11.375 C0.39431641 10.28703125 0.35113281 9.1990625 0.30664062 8.078125 C0.2003547 5.3855483 0.09831943 2.69287747 0 0 Z " fill="#020263" transform="translate(173,25)"/>
<path d="M0 0 C1.67542976 0.28604898 3.34385343 0.61781233 5 1 C4.51917969 1.72445312 4.03835937 2.44890625 3.54296875 3.1953125 C0.96378671 8.35367658 1.42389399 14.23528127 1.3125 19.875 C1.27833984 21.0403125 1.24417969 22.205625 1.20898438 23.40625 C1.12680646 26.27073718 1.05755579 29.13492985 1 32 C2.98 32 4.96 32 7 32 C6.67 21.44 6.34 10.88 6 0 C6.99 0.33 7.98 0.66 9 1 C9 11.89 9 22.78 9 34 C5.7 34 2.4 34 -1 34 C-1.02465288 29.31860746 -1.04283739 24.63725241 -1.05493164 19.95581055 C-1.05997157 18.36205386 -1.0668035 16.76830181 -1.07543945 15.17456055 C-1.08751999 12.88849747 -1.09323155 10.60249533 -1.09765625 8.31640625 C-1.10281754 7.59973282 -1.10797882 6.88305939 -1.11329651 6.14466858 C-1.11349263 4.42936328 -1.06192007 2.71418734 -1 1 C-0.67 0.67 -0.34 0.34 0 0 Z " fill="#06073D" transform="translate(78,57)"/>
<path d="M0 0 C4.62 0 9.24 0 14 0 C14 3.63 14 7.26 14 11 C0.47 11 -13.06 11 -27 11 C-27 8.03 -27 5.06 -27 2 C-26.67 2 -26.34 2 -26 2 C-26 4.31 -26 6.62 -26 9 C-13.46 9 -0.92 9 12 9 C11.505 6.03 11.505 6.03 11 3 C10.24074219 3.16113281 9.48148438 3.32226562 8.69921875 3.48828125 C3.72483624 4.17639541 -1.17185733 4.18421966 -6.1875 4.1875 C-7.18458984 4.19974609 -8.18167969 4.21199219 -9.20898438 4.22460938 C-10.16482422 4.22654297 -11.12066406 4.22847656 -12.10546875 4.23046875 C-12.97324951 4.23457764 -13.84103027 4.23868652 -14.73510742 4.24291992 C-17 4 -17 4 -20 2 C-10.1 1.505 -10.1 1.505 0 1 C0 0.67 0 0.34 0 0 Z " fill="#080849" transform="translate(39,68)"/>
<path d="M0 0 C2.97 0 5.94 0 9 0 C9.1922881 5.64133763 9.371007 11.28287935 9.53710938 16.92504883 C9.59554321 18.84476269 9.65769741 20.76436704 9.72363281 22.68383789 C9.81771235 25.44136619 9.89844762 28.1990103 9.9765625 30.95703125 C10.00875885 31.81649857 10.0409552 32.67596588 10.0741272 33.56147766 C10.10438492 34.76238289 10.10438492 34.76238289 10.13525391 35.98754883 C10.15746002 36.6914827 10.17966614 37.39541656 10.20254517 38.12068176 C10 40 10 40 8 43 C7.01 43 6.02 43 5 43 C5 42.34 5 41.68 5 41 C5.66 41 6.32 41 7 41 C7 28.13 7 15.26 7 2 C5.02 2 3.04 2 1 2 C1.33 15.53 1.66 29.06 2 43 C1.34 43 0.68 43 0 43 C0 28.81 0 14.62 0 0 Z " fill="#171641" transform="translate(33,12)"/>
<path d="M0 0 C10.89 0 21.78 0 33 0 C33 3.3 33 6.6 33 10 C22.11 10 11.22 10 0 10 C0 6.7 0 3.4 0 0 Z M1 1 C1 3.31 1 5.62 1 8 C10.9 8 20.8 8 31 8 C31 6.68 31 5.36 31 4 C30.34 4 29.68 4 29 4 C29 3.34 29 2.68 29 2 C15.14 1.505 15.14 1.505 1 1 Z " fill="#070942" transform="translate(20,82)"/>
<path d="M0 0 C2.31 0 4.62 0 7 0 C7.02688151 1.64574566 7.04634123 3.29161413 7.0625 4.9375 C7.07410156 5.85402344 7.08570313 6.77054688 7.09765625 7.71484375 C7 10 7 10 6 11 C5.76321284 13.69235776 5.57801975 16.36498156 5.4375 19.0625 C5.39431641 19.82111328 5.35113281 20.57972656 5.30664062 21.36132812 C5.20026367 23.24065438 5.09960066 25.12030244 5 27 C3.68 27.33 2.36 27.66 1 28 C0.80310995 24.72966072 0.61910992 21.45872059 0.4375 18.1875 C0.38142578 17.25873047 0.32535156 16.32996094 0.26757812 15.37304688 C0.21923828 14.48037109 0.17089844 13.58769531 0.12109375 12.66796875 C0.0739624 11.84578857 0.02683105 11.0236084 -0.02172852 10.17651367 C0 8 0 8 1 5 C0.34 5 -0.32 5 -1 5 C-0.67 3.35 -0.34 1.7 0 0 Z " fill="#CB9834" transform="translate(46,7)"/>
<path d="M0 0 C3.3 0 6.6 0 10 0 C10.76933464 13.43376642 11.17044364 26.58491524 10 40 C9.34 40 8.68 40 8 40 C7.97498045 36.05306991 7.95699137 32.10617158 7.94506836 28.15917969 C7.93766223 26.16860325 7.92494526 24.17804883 7.91210938 22.1875 C7.89410397 15.05736081 8.07477959 8.07423314 9 1 C6.69 1.33 4.38 1.66 2 2 C1.67 16.85 1.34 31.7 1 47 C3.64 47.33 6.28 47.66 9 48 C9 48.33 9 48.66 9 49 C2.84765625 49.09765625 2.84765625 49.09765625 1 49 C0 48 0 48 -0.12025452 46.05747986 C-0.11803391 45.20698563 -0.11581329 44.35649139 -0.11352539 43.48022461 C-0.11344986 42.51930405 -0.11337433 41.55838348 -0.11329651 40.56834412 C-0.10813522 39.523564 -0.10297394 38.47878387 -0.09765625 37.40234375 C-0.0962413 36.33834854 -0.09482635 35.27435333 -0.09336853 34.17811584 C-0.08775064 30.76454917 -0.07519511 27.351047 -0.0625 23.9375 C-0.05748731 21.62955824 -0.052924 19.32161545 -0.04882812 17.01367188 C-0.03777539 11.34242289 -0.02049877 5.6712224 0 0 Z " fill="#A8844B" transform="translate(44,6)"/>
<path d="M0 0 C0.66 0 1.32 0 2 0 C1.67 1.65 1.34 3.3 1 5 C1.78375 4.938125 2.5675 4.87625 3.375 4.8125 C4.674375 4.9053125 4.674375 4.9053125 6 5 C8.1519437 8.22791555 8.20086443 9.28400809 8 13 C7.01 12.67 6.02 12.34 5 12 C5.33 11.67 5.66 11.34 6 11 C3.69 10.67 1.38 10.34 -1 10 C-0.84402344 10.63808594 -0.68804687 11.27617188 -0.52734375 11.93359375 C-0.33269531 12.75988281 -0.13804687 13.58617187 0.0625 14.4375 C0.25972656 15.26121094 0.45695312 16.08492187 0.66015625 16.93359375 C0.77230469 17.61550781 0.88445312 18.29742187 1 19 C0 20 0 20 -2.72265625 20.09765625 C-3.82480469 20.08605469 -4.92695313 20.07445313 -6.0625 20.0625 C-7.16722656 20.05347656 -8.27195312 20.04445313 -9.41015625 20.03515625 C-10.69212891 20.01775391 -10.69212891 20.01775391 -12 20 C-12 17.03 -12 14.06 -12 11 C-11.34 11 -10.68 11 -10 11 C-9.71125 10.071875 -9.4225 9.14375 -9.125 8.1875 C-8 5 -8 5 -6 2 C-5.34 2.33 -4.68 2.66 -4 3 C-4.165 3.763125 -4.33 4.52625 -4.5 5.3125 C-5.09145396 8.03596236 -5.09145396 8.03596236 -5 11 C-5.9590625 11.3403125 -5.9590625 11.3403125 -6.9375 11.6875 C-9.27193661 12.85250896 -9.27193661 12.85250896 -9.75 15.625 C-9.8325 16.40875 -9.915 17.1925 -10 18 C-7.03 18 -4.06 18 -1 18 C-1 16.35 -1 14.7 -1 13 C-1.66 13 -2.32 13 -3 13 C-2.125 9.125 -2.125 9.125 -1 8 C-0.76924918 6.65252916 -0.58846937 5.29622435 -0.4375 3.9375 C-0.293125 2.638125 -0.14875 1.33875 0 0 Z " fill="#0A0B51" transform="translate(300,35)"/>
<path d="M0 0 C-0.66 3.3 -1.32 6.6 -2 10 C-7.81689987 10.07968356 -13.27065855 9.99640721 -19 9 C-17.68 7.02 -16.36 5.04 -15 3 C-15.99 2.67 -16.98 2.34 -18 2 C-15.56281065 1.66424944 -13.12529385 1.33130715 -10.6875 1 C-9.99720703 0.90460937 -9.30691406 0.80921875 -8.59570312 0.7109375 C-5.70352927 0.31972558 -2.92235023 0 0 0 Z " fill="#020360" transform="translate(53,56)"/>
<path d="M0 0 C0.33 0 0.66 0 1 0 C1.19441368 2.2910905 1.38033135 4.58290337 1.5625 6.875 C1.66691406 8.15117188 1.77132812 9.42734375 1.87890625 10.7421875 C2 14 2 14 1 16 C0.34 16 -0.32 16 -1 16 C-1 17.65 -1 19.3 -1 21 C7.91 21 16.82 21 26 21 C25.67 18.03 25.34 15.06 25 12 C22.525 11.505 22.525 11.505 20 11 C19.67 11.99 19.34 12.98 19 14 C18.67 12.68 18.34 11.36 18 10 C20.97 10 23.94 10 27 10 C27 14.29 27 18.58 27 23 C17.1 23 7.2 23 -3 23 C-3 20.03 -3 17.06 -3 14 C-2.01 14 -1.02 14 0 14 C0 9.38 0 4.76 0 0 Z " fill="#0B0C46" transform="translate(125,32)"/>
<path d="M0 0 C2.64 0 5.28 0 8 0 C8 0.33 8 0.66 8 1 C6.02 1 4.04 1 2 1 C2.06878614 4.95159258 2.15670428 8.90224623 2.26245117 12.85302734 C2.31209959 14.85882336 2.34654164 16.86497687 2.38085938 18.87109375 C2.41630859 20.12792969 2.45175781 21.38476562 2.48828125 22.6796875 C2.51446533 23.84226074 2.54064941 25.00483398 2.56762695 26.20263672 C2.71031006 27.1257666 2.85299316 28.04889648 3 29 C3.99 29.66 4.98 30.32 6 31 C7.05836661 27.82490018 7.20243789 25.35717617 7.31640625 22.01953125 C7.35830078 20.85615234 7.40019531 19.69277344 7.44335938 18.49414062 C7.48267578 17.27919922 7.52199219 16.06425781 7.5625 14.8125 C7.60568359 13.58595703 7.64886719 12.35941406 7.69335938 11.09570312 C7.7995309 8.06391619 7.90157952 5.03204685 8 2 C8.33 2 8.66 2 9 2 C9 11.9 9 21.8 9 32 C6.03 32 3.06 32 0 32 C0 21.44 0 10.88 0 0 Z " fill="#0C0B4F" transform="translate(21,21)"/>
<path d="M0 0 C1.81248985 3.6249797 2.31888915 5.37259584 2.625 9.25 C2.69976562 10.14203125 2.77453125 11.0340625 2.8515625 11.953125 C2.90054688 12.62859375 2.94953125 13.3040625 3 14 C2.34 14 1.68 14 1 14 C1 14.66 1 15.32 1 16 C0.34 16 -0.32 16 -1 16 C-1 17.98 -1 19.96 -1 22 C7.91 22 16.82 22 26 22 C26 19.03 26 16.06 26 13 C23.69 13 21.38 13 19 13 C19 13.66 19 14.32 19 15 C17.02 15 15.04 15 13 15 C13 14.67 13 14.34 13 14 C14.65 14 16.3 14 18 14 C18 13.34 18 12.68 18 12 C19.47906892 11.97310784 20.95827483 11.95365379 22.4375 11.9375 C23.26121094 11.92589844 24.08492187 11.91429687 24.93359375 11.90234375 C27 12 27 12 28 13 C28.0979057 14.49738124 28.12974864 15.99942892 28.125 17.5 C28.12886719 18.72203125 28.12886719 18.72203125 28.1328125 19.96875 C28 22 28 22 27 23 C24.86646826 23.10003289 22.72962458 23.13081048 20.59375 23.1328125 C19.29308594 23.13410156 17.99242187 23.13539062 16.65234375 23.13671875 C15.97155762 23.13462402 15.29077148 23.1325293 14.58935547 23.13037109 C12.50871485 23.1250224 10.42829011 23.1303168 8.34765625 23.13671875 C6.39666016 23.13478516 6.39666016 23.13478516 4.40625 23.1328125 C3.20291016 23.13168457 1.99957031 23.13055664 0.75976562 23.12939453 C-2 23 -2 23 -3 22 C-3.04092937 19.66702567 -3.04241723 17.33294775 -3 15 C-2.01 14.67 -1.02 14.34 0 14 C0 9.38 0 4.76 0 0 Z " fill="#0C0E4E" transform="translate(227,32)"/>
<path d="M0 0 C1.12535156 0.00580078 1.12535156 0.00580078 2.2734375 0.01171875 C3.02367187 0.00785156 3.77390625 0.00398438 4.546875 0 C10.14682697 0.01010822 10.14682697 0.01010822 11.2734375 1.13671875 C11.41458911 3.80730726 11.31590857 6.46104113 11.2734375 9.13671875 C10.6134375 9.13671875 9.9534375 9.13671875 9.2734375 9.13671875 C9.2734375 13.75671875 9.2734375 18.37671875 9.2734375 23.13671875 C10.5934375 23.46671875 11.9134375 23.79671875 13.2734375 24.13671875 C11.9534375 24.46671875 10.6334375 24.79671875 9.2734375 25.13671875 C6.85213419 21.50476379 7.06320965 19.75322527 7.1484375 15.44921875 C7.16648438 14.26972656 7.18453125 13.09023438 7.203125 11.875 C7.22632813 10.97136719 7.24953125 10.06773438 7.2734375 9.13671875 C6.6134375 9.13671875 5.9534375 9.13671875 5.2734375 9.13671875 C5.2734375 8.47671875 5.2734375 7.81671875 5.2734375 7.13671875 C6.5934375 6.80671875 7.9134375 6.47671875 9.2734375 6.13671875 C9.2734375 5.14671875 9.2734375 4.15671875 9.2734375 3.13671875 C4.3234375 2.80671875 -0.6265625 2.47671875 -5.7265625 2.13671875 C-5.7265625 4.11671875 -5.7265625 6.09671875 -5.7265625 8.13671875 C-5.0665625 8.46671875 -4.4065625 8.79671875 -3.7265625 9.13671875 C-4.7165625 9.13671875 -5.7065625 9.13671875 -6.7265625 9.13671875 C-6.82421875 2.984375 -6.82421875 2.984375 -6.7265625 1.13671875 C-4.90540247 -0.68444128 -2.41984486 0.00436795 0 0 Z " fill="#070846" transform="translate(128.7265625,22.86328125)"/>
<path d="M0 0 C0.99 0 1.98 0 3 0 C3.99 2.31 4.98 4.62 6 7 C6.99 4.69 7.98 2.38 9 0 C9.99 0 10.98 0 12 0 C12 3.96 12 7.92 12 12 C10.68 11.67 9.36 11.34 8 11 C5.81296615 11.37907282 5.81296615 11.37907282 4 12 C3.67 11.01 3.34 10.02 3 9 C2.67 9.99 2.34 10.98 2 12 C1.34 12 0.68 12 0 12 C0 8.04 0 4.08 0 0 Z " fill="#C49B4C" transform="translate(222,66)"/>
<path d="M0 0 C0.33 0 0.66 0 1 0 C1 2.64 1 5.28 1 8 C1.79277344 7.91621094 2.58554687 7.83242188 3.40234375 7.74609375 C15.96621586 6.64935795 28.42319063 7.3416768 41 8 C41 8.66 41 9.32 41 10 C36.52611636 11.14843858 32.21233628 11.04131966 27.63671875 10.87890625 C26.44874443 10.84348976 26.44874443 10.84348976 25.23677063 10.80735779 C22.72014719 10.73110306 20.20386159 10.64691584 17.6875 10.5625 C15.9759277 10.50924101 14.26433917 10.4565009 12.55273438 10.40429688 C8.36827776 10.27553999 4.18410597 10.13967078 0 10 C0 6.7 0 3.4 0 0 Z " fill="#2F2E4E" transform="translate(55,33)"/>
<path d="M0 0 C1.50046875 0.00386719 1.50046875 0.00386719 3.03125 0.0078125 C4.0315625 0.00523438 5.031875 0.00265625 6.0625 0 C8.53125 0.1328125 8.53125 0.1328125 9.53125 1.1328125 C9.67240161 3.80340101 9.57372107 6.45713488 9.53125 9.1328125 C8.87125 9.1328125 8.21125 9.1328125 7.53125 9.1328125 C7.53125 6.8228125 7.53125 4.5128125 7.53125 2.1328125 C4.56125 2.1328125 1.59125 2.1328125 -1.46875 2.1328125 C-1.30503906 3.11378906 -1.14132813 4.09476563 -0.97265625 5.10546875 C-0.37715148 9.27400216 -0.35625425 13.36682386 -0.40625 17.5703125 C-0.41076172 18.30185547 -0.41527344 19.03339844 -0.41992188 19.78710938 C-0.43156852 21.56904669 -0.44949809 23.35094113 -0.46875 25.1328125 C-2.46829746 25.17535606 -4.46916636 25.17362033 -6.46875 25.1328125 C-7.46875 24.1328125 -7.46875 24.1328125 -7.56640625 20.75390625 C-7.55973369 19.35934173 -7.54777532 17.96479507 -7.53125 16.5703125 C-7.52673828 15.85939453 -7.52222656 15.14847656 -7.51757812 14.41601562 C-7.50575864 12.65491237 -7.48782263 10.89385214 -7.46875 9.1328125 C-7.13875 9.1328125 -6.80875 9.1328125 -6.46875 9.1328125 C-6.13875 13.7528125 -5.80875 18.3728125 -5.46875 23.1328125 C-4.47875 23.1328125 -3.48875 23.1328125 -2.46875 23.1328125 C-2.44189062 20.98704613 -2.42241912 18.84118605 -2.40625 16.6953125 C-2.39464844 15.50035156 -2.38304687 14.30539063 -2.37109375 13.07421875 C-2.12973208 10.24407909 -2.12973208 10.24407909 -3.46875 9.1328125 C-3.6015625 7.3203125 -3.6015625 7.3203125 -3.59375 5.1328125 C-3.59761719 4.05 -3.59761719 4.05 -3.6015625 2.9453125 C-3.39190984 0.08417034 -2.87175682 0.15449325 0 0 Z " fill="#0B0B4D" transform="translate(174.46875,22.8671875)"/>
<path d="M0 0 C6.15234375 -0.09765625 6.15234375 -0.09765625 8 0 C9 1 9 1 9.11352539 4.96899414 C9.1133662 6.74105607 9.10766785 8.5131226 9.09765625 10.28515625 C9.0962413 11.21597519 9.09482635 12.14679413 9.09336853 13.1058197 C9.08775172 16.09141191 9.0751964 19.07693029 9.0625 22.0625 C9.05748716 24.08137913 9.05292388 26.10025943 9.04882812 28.11914062 C9.03777683 33.07945572 9.02050095 38.03971532 9 43 C6.03 43 3.06 43 0 43 C0 42.67 0 42.34 0 42 C2.64 42 5.28 42 8 42 C7.90658639 36.90933774 7.80052089 31.81915796 7.68261719 26.72900391 C7.64428659 24.99665593 7.60944094 23.26422726 7.578125 21.53173828 C7.53256235 19.04430251 7.47455497 16.55742434 7.4140625 14.0703125 C7.40251129 13.29317902 7.39096008 12.51604553 7.37905884 11.71536255 C7.41206232 7.39349025 7.41206232 7.39349025 5 4 C4.34 4 3.68 4 3 4 C3 4.66 3 5.32 3 6 C2.34 6 1.68 6 1 6 C1 5.01 1 4.02 1 3 C0.34 3 -0.32 3 -1 3 C-0.67 2.01 -0.34 1.02 0 0 Z " fill="#090948" transform="translate(67,57)"/>
<path d="M0 0 C4 1 4 1 5.75 3.5625 C6.1625 4.366875 6.575 5.17125 7 6 C7.33 4.02 7.66 2.04 8 0 C8.66 0 9.32 0 10 0 C10 3.96 10 7.92 10 12 C6 11 6 11 4.75 8.9375 C4.37875 7.9784375 4.37875 7.9784375 4 7 C3.67 8.65 3.34 10.3 3 12 C2.01 12 1.02 12 0 12 C0 8.04 0 4.08 0 0 Z " fill="#C39748" transform="translate(170,66)"/>
<path d="M0 0 C8.91 0 17.82 0 27 0 C27 0.99 27 1.98 27 3 C18.09 3 9.18 3 0 3 C0 2.01 0 1.02 0 0 Z " fill="#CA9423" transform="translate(292,70)"/>
<path d="M0 0 C8.58 0 17.16 0 26 0 C26 0.99 26 1.98 26 3 C17.42 3 8.84 3 0 3 C0 2.01 0 1.02 0 0 Z " fill="#C89438" transform="translate(123,70)"/>
<path d="M0 0 C0.99 0.33 1.98 0.66 3 1 C3.09765625 7.15234375 3.09765625 7.15234375 3 9 C2 10 2 10 -1.14282227 10.11352539 C-2.53402697 10.11336633 -3.92523761 10.10767506 -5.31640625 10.09765625 C-6.04746078 10.0962413 -6.77851532 10.09482635 -7.53172302 10.09336853 C-9.87535632 10.08775408 -12.21889539 10.07519922 -14.5625 10.0625 C-16.14778508 10.05748686 -17.73307166 10.05292363 -19.31835938 10.04882812 C-23.2122761 10.03777997 -27.10612205 10.02050572 -31 10 C-32.125 4.375 -32.125 4.375 -31 1 C-30.34 1 -29.68 1 -29 1 C-29 3.64 -29 6.28 -29 9 C-14.15 8.505 -14.15 8.505 1 8 C0.505 4.04 0.505 4.04 0 0 Z " fill="#0A0D44" transform="translate(86,20)"/>
<path d="M0 0 C1.67542976 0.28604898 3.34385343 0.61781233 5 1 C4.51917969 1.73476563 4.03835937 2.46953125 3.54296875 3.2265625 C1.03163129 8.24923742 1.42578375 13.87911976 1.3125 19.375 C1.27833984 20.49261719 1.24417969 21.61023438 1.20898438 22.76171875 C1.12683927 25.50771222 1.05757872 28.25339982 1 31 C-1.07709413 27.58105264 -1.2458127 24.92268962 -1.23046875 20.95703125 C-1.22853516 19.80138672 -1.22660156 18.64574219 -1.22460938 17.45507812 C-1.21236328 16.25302734 -1.20011719 15.05097656 -1.1875 13.8125 C-1.18685547 12.59884766 -1.18621094 11.38519531 -1.18554688 10.13476562 C-1.14024712 1.14024712 -1.14024712 1.14024712 0 0 Z " fill="#0E104C" transform="translate(78,57)"/>
<path d="M0 0 C0.99 0 1.98 0 3 0 C4.6875 2.5 4.6875 2.5 6 5 C6.33 3.35 6.66 1.7 7 0 C7.66 0 8.32 0 9 0 C9 3.96 9 7.92 9 12 C5 10 5 10 3 7 C2.67 8.65 2.34 10.3 2 12 C1.34 12 0.68 12 0 12 C0 8.04 0 4.08 0 0 Z " fill="#BE9957" transform="translate(246,66)"/>
<path d="M0 0 C0 2.64 0 5.28 0 8 C-8.58 8 -17.16 8 -26 8 C-26 7.67 -26 7.34 -26 7 C-17.75 7 -9.5 7 -1 7 C-1 5.68 -1 4.36 -1 3 C-1.66 3 -2.32 3 -3 3 C-3 2.34 -3 1.68 -3 1 C-11.91 1 -20.82 1 -30 1 C-30 0.67 -30 0.34 -30 0 C-25.75038214 -0.19694005 -21.50029973 -0.38092074 -17.25 -0.5625 C-16.0434375 -0.61857422 -14.836875 -0.67464844 -13.59375 -0.73242188 C-11.85351562 -0.80493164 -11.85351562 -0.80493164 -10.078125 -0.87890625 C-9.00981445 -0.9260376 -7.94150391 -0.97316895 -6.84082031 -1.02172852 C-4.33305593 -1.00254744 -2.37796573 -0.74499559 0 0 Z " fill="#090B57" transform="translate(52,83)"/>
<path d="M0 0 C1.4540625 0.0309375 1.4540625 0.0309375 2.9375 0.0625 C3.2675 1.0525 3.5975 2.0425 3.9375 3.0625 C2.2875 3.0625 0.6375 3.0625 -1.0625 3.0625 C-0.44375 3.289375 0.175 3.51625 0.8125 3.75 C3.55160209 5.44179835 3.98774472 7.05494161 4.9375 10.0625 C3.8125 11.625 3.8125 11.625 1.9375 13.0625 C-1.25 12.75 -1.25 12.75 -4.0625 12.0625 C-4.0625 11.0725 -4.0625 10.0825 -4.0625 9.0625 C-1.0925 9.5575 -1.0925 9.5575 1.9375 10.0625 C0.54554085 7.2785817 -1.21825779 7.08351003 -4.0625 6.0625 C-4.105221 4.39638095 -4.10313832 2.72867115 -4.0625 1.0625 C-3.0625 0.0625 -3.0625 0.0625 0 0 Z " fill="#C49F55" transform="translate(271.0625,65.9375)"/>
<path d="M0 0 C0.33 0 0.66 0 1 0 C1.06058594 0.89203125 1.12117187 1.7840625 1.18359375 2.703125 C1.26738281 3.87359375 1.35117188 5.0440625 1.4375 6.25 C1.51871094 7.41015625 1.59992188 8.5703125 1.68359375 9.765625 C2.00752004 13.46541961 2.00752004 13.46541961 3 17 C8.70713934 20.34984266 14.4837609 20.65828041 21 21 C21 20.34 21 19.68 21 19 C21.99 19.33 22.98 19.66 24 20 C19.72090933 23.92423925 15.71743236 23.5446699 10.1484375 23.42578125 C5.55803518 22.80499483 3.94251726 21.5146734 1 18 C-0.2062252 14.38132441 -0.10816918 11.07493749 -0.0625 7.3125 C-0.05798828 6.61060547 -0.05347656 5.90871094 -0.04882812 5.18554688 C-0.03706927 3.45699462 -0.01913454 1.72848635 0 0 Z " fill="#0A0C48" transform="translate(155,32)"/>
<path d="M0 0 C1.2065625 0.0309375 1.2065625 0.0309375 2.4375 0.0625 C2.7675 1.0525 3.0975 2.0425 3.4375 3.0625 C1.7875 2.7325 0.1375 2.4025 -1.5625 2.0625 C-1.5625 3.0525 -1.5625 4.0425 -1.5625 5.0625 C0.0875 5.3925 1.7375 5.7225 3.4375 6.0625 C3.7675 7.7125 4.0975 9.3625 4.4375 11.0625 C1.4375 13.0625 1.4375 13.0625 -1.25 12.6875 C-2.013125 12.48125 -2.77625 12.275 -3.5625 12.0625 C-3.8925 11.0725 -4.2225 10.0825 -4.5625 9.0625 C-1.5925 9.5575 -1.5925 9.5575 1.4375 10.0625 C0.06058038 7.30866077 -1.92970042 6.54766899 -4.5625 5.0625 C-3.43829114 0.08386076 -3.43829114 0.08386076 0 0 Z " fill="#BC9851" transform="translate(206.5625,65.9375)"/>
<path d="M0 0 C2.64 0 5.28 0 8 0 C7.67 0.99 7.34 1.98 7 3 C5.35 3 3.7 3 2 3 C2 3.66 2 4.32 2 5 C3.65 5 5.3 5 7 5 C7 5.66 7 6.32 7 7 C6.360625 7.12375 5.72125 7.2475 5.0625 7.375 C4.0415625 7.684375 4.0415625 7.684375 3 8 C2.67 8.66 2.34 9.32 2 10 C3.98 10 5.96 10 8 10 C8 10.66 8 11.32 8 12 C5.36 12 2.72 12 0 12 C0 8.04 0 4.08 0 0 Z " fill="#C39F52" transform="translate(236,66)"/>
<path d="M0 0 C2.64 0 5.28 0 8 0 C8 0.66 8 1.32 8 2 C6.02 2.33 4.04 2.66 2 3 C2 3.66 2 4.32 2 5 C3.65 5 5.3 5 7 5 C7 5.66 7 6.32 7 7 C6.360625 7.12375 5.72125 7.2475 5.0625 7.375 C4.0415625 7.684375 4.0415625 7.684375 3 8 C2.67 8.66 2.34 9.32 2 10 C3.98 10 5.96 10 8 10 C8 10.66 8 11.32 8 12 C5.36 12 2.72 12 0 12 C0 8.04 0 4.08 0 0 Z " fill="#C8A453" transform="translate(193,66)"/>
<path d="M0 0 C17.14500323 -0.65661715 17.14500323 -0.65661715 23.625 4.5 C26 7 26 7 26 9 C25.01 8.67 24.02 8.34 23 8 C23 7.34 23 6.68 23 6 C22.34 6 21.68 6 21 6 C21 5.34 21 4.68 21 4 C13.63959083 3.20274098 6.40239645 2.87113817 -1 3 C-0.67 2.01 -0.34 1.02 0 0 Z " fill="#060749" transform="translate(193,23)"/>
<path d="M0 0 C2.45840605 -0.02691685 4.91651882 -0.04679802 7.375 -0.0625 C8.07367188 -0.07087891 8.77234375 -0.07925781 9.4921875 -0.08789062 C14.7734375 -0.11328125 14.7734375 -0.11328125 17 1 C17 3.64 17 6.28 17 9 C16.34 9 15.68 9 15 9 C15 6.69 15 4.38 15 2 C10.71 2 6.42 2 2 2 C2 4.31 2 6.62 2 9 C1.34 9 0.68 9 0 9 C0 6.03 0 3.06 0 0 Z " fill="#060943" transform="translate(153,23)"/>
<path d="M0 0 C0.99 0 1.98 0 3 0 C3.66 1.98 4.32 3.96 5 6 C5.99 4.02 6.98 2.04 8 0 C8.99 0.33 9.98 0.66 11 1 C9.68 4.63 8.36 8.26 7 12 C5.68 11.67 4.36 11.34 3 11 C2.01 7.37 1.02 3.74 0 0 Z " fill="#C39B4C" transform="translate(181,66)"/>
<path d="M0 0 C10.23 0 20.46 0 31 0 C26.74001009 3.19499244 26.17444215 3.36426357 21.2109375 3.14453125 C20.10492188 3.09876953 18.99890625 3.05300781 17.859375 3.00585938 C16.13460937 2.91014648 16.13460937 2.91014648 14.375 2.8125 C13.21742187 2.76802734 12.05984375 2.72355469 10.8671875 2.67773438 C2.27102334 2.27102334 2.27102334 2.27102334 0 0 Z " fill="#030447" transform="translate(55,20)"/>
<path d="M0 0 C0.66 0 1.32 0 2 0 C2.22262303 6.7281627 1.95021536 12.53991163 0 19 C-1.32 19 -2.64 19 -4 19 C-4 19.66 -4 20.32 -4 21 C-5.65 20.67 -7.3 20.34 -9 20 C-9 19.34 -9 18.68 -9 18 C-9.66 17.34 -10.32 16.68 -11 16 C-9.02 16 -7.04 16 -5 16 C-5 16.66 -5 17.32 -5 18 C-3.68 18 -2.36 18 -1 18 C-0.505 9.09 -0.505 9.09 0 0 Z " fill="#060556" transform="translate(180,32)"/>
<path d="M0 0 C1.98 0 3.96 0 6 0 C5.01 0.66 4.02 1.32 3 2 C2.34 1.67 1.68 1.34 1 1 C1 12.88 1 24.76 1 37 C2.65 37.33 4.3 37.66 6 38 C5.34 38.66 4.68 39.32 4 40 C2.68 39.67 1.36 39.34 0 39 C0 26.13 0 13.26 0 0 Z " fill="#050454" transform="translate(34,14)"/>
<path d="M0 0 C2.97 0 5.94 0 9 0 C9 0.66 9 1.32 9 2 C8.01 2 7.02 2 6 2 C6 5.3 6 8.6 6 12 C5.01 12 4.02 12 3 12 C3 8.7 3 5.4 3 2 C2.01 2 1.02 2 0 2 C0 1.34 0 0.68 0 0 Z " fill="#C1974D" transform="translate(257,66)"/>
<path d="M0 0 C-0.33 2.31 -0.66 4.62 -1 7 C-1.99 6.67 -2.98 6.34 -4 6 C-4 5.34 -4 4.68 -4 4 C-10.93 3.505 -10.93 3.505 -18 3 C-18 2.67 -18 2.34 -18 2 C-15.56281065 1.66424944 -13.12529385 1.33130715 -10.6875 1 C-9.99720703 0.90460937 -9.30691406 0.80921875 -8.59570312 0.7109375 C-5.70352927 0.31972558 -2.92235023 0 0 0 Z " fill="#181854" transform="translate(53,56)"/>
<path d="M0 0 C2.97 0 5.94 0 9 0 C8.67 0.99 8.34 1.98 8 3 C7.34 3 6.68 3 6 3 C6 5.97 6 8.94 6 12 C5.34 12 4.68 12 4 12 C3.67 9.03 3.34 6.06 3 3 C2.01 2.67 1.02 2.34 0 2 C0 1.34 0 0.68 0 0 Z " fill="#CCA449" transform="translate(211,66)"/>
<path d="M0 0 C6.15234375 -0.09765625 6.15234375 -0.09765625 8 0 C9 1 9 1 9.0625 3.5625 C9.041875 4.366875 9.02125 5.17125 9 6 C8.34 6 7.68 6 7 6 C6.34 5.34 5.68 4.68 5 4 C4.34 4 3.68 4 3 4 C3 4.66 3 5.32 3 6 C2.34 6 1.68 6 1 6 C1 5.01 1 4.02 1 3 C0.34 3 -0.32 3 -1 3 C-0.67 2.01 -0.34 1.02 0 0 Z " fill="#111251" transform="translate(67,57)"/>
<path d="M0 0 C0.99 0.33 1.98 0.66 3 1 C3.02688151 2.64574566 3.04634123 4.29161413 3.0625 5.9375 C3.07410156 6.85402344 3.08570313 7.77054688 3.09765625 8.71484375 C3 11 3 11 2 12 C-0.67058851 12.14115161 -3.32432238 12.04247107 -6 12 C-6 11.67 -6 11.34 -6 11 C-4.02 11 -2.04 11 0 11 C0 7.37 0 3.74 0 0 Z " fill="#070B47" transform="translate(252,23)"/>
<path d="M0 0 C8.91 0 17.82 0 27 0 C27 0.99 27 1.98 27 3 C26.01 2.67 25.02 2.34 24 2 C22.37432921 1.85284801 20.74413143 1.75278133 19.11328125 1.68359375 C18.17548828 1.64169922 17.23769531 1.59980469 16.27148438 1.55664062 C15.29501953 1.51732422 14.31855469 1.47800781 13.3125 1.4375 C12.32443359 1.39431641 11.33636719 1.35113281 10.31835938 1.30664062 C7.87904454 1.20058346 5.43962887 1.09852286 3 1 C3 1.66 3 2.32 3 3 C2.01 3 1.02 3 0 3 C0 2.01 0 1.02 0 0 Z " fill="#BF9748" transform="translate(292,70)"/>
<path d="M0 0 C0.99 0 1.98 0 3 0 C3 3.96 3 7.92 3 12 C2.01 12 1.02 12 0 12 C0 8.04 0 4.08 0 0 Z " fill="#BD954E" transform="translate(165,66)"/>
<path d="M0 0 C1.2065625 0.0309375 1.2065625 0.0309375 2.4375 0.0625 C2.7675 1.0525 3.0975 2.0425 3.4375 3.0625 C1.7875 2.7325 0.1375 2.4025 -1.5625 2.0625 C-1.5625 3.0525 -1.5625 4.0425 -1.5625 5.0625 C-0.2425 5.3925 1.0775 5.7225 2.4375 6.0625 C0.0625 6.6875 0.0625 6.6875 -2.5625 7.0625 C-3.2225 6.4025 -3.8825 5.7425 -4.5625 5.0625 C-3.80953264 0.09291543 -3.80953264 0.09291543 0 0 Z " fill="#C3A257" transform="translate(206.5625,65.9375)"/>
<path d="M0 0 C1.47906892 -0.02689216 2.95827483 -0.04634621 4.4375 -0.0625 C5.26121094 -0.07410156 6.08492188 -0.08570312 6.93359375 -0.09765625 C9 0 9 0 10 1 C10.14115161 3.67058851 10.04247107 6.32432238 10 9 C9.34 9 8.68 9 8 9 C8 6.69 8 4.38 8 2 C5.36 2 2.72 2 0 2 C0 1.34 0 0.68 0 0 Z " fill="#07074A" transform="translate(263,23)"/>
<path d="M0 0 C2.31 0.66 4.62 1.32 7 2 C7 3.98 7 5.96 7 8 C4.69 8 2.38 8 0 8 C0 7.67 0 7.34 0 7 C1.65 7 3.3 7 5 7 C4.33131686 3.88667752 4.33131686 3.88667752 1.9375 2.8125 C1.298125 2.544375 0.65875 2.27625 0 2 C0 1.34 0 0.68 0 0 Z " fill="#0E0F57" transform="translate(239,34)"/>
<path d="M0 0 C1.5625 1.25 1.5625 1.25 3 3 C2.6875 5.1875 2.6875 5.1875 2 7 C-1.28696233 7.79953138 -2.71023192 8.09658936 -6 7 C-6 6.01 -6 5.02 -6 4 C-3.03 4.495 -3.03 4.495 0 5 C0 3.35 0 1.7 0 0 Z " fill="#B79752" transform="translate(273,71)"/>
<path d="M0 0 C0.66 0 1.32 0 2 0 C3.16063604 4.25566547 2.76173392 7.6835078 2 12 C1.34 12 0.68 12 0 12 C0 8.04 0 4.08 0 0 Z " fill="#C79F4D" transform="translate(246,66)"/>
<path d="M0 0 C1.98 0 3.96 0 6 0 C6 0.33 6 0.66 6 1 C4.35 1 2.7 1 1 1 C1 1.66 1 2.32 1 3 C2.65 3 4.3 3 6 3 C6 3.66 6 4.32 6 5 C4.68 5.33 3.36 5.66 2 6 C2 6.99 2 7.98 2 9 C1.34 9 0.68 9 0 9 C0 6.03 0 3.06 0 0 Z " fill="#D9BA3E" transform="translate(237,68)"/>
<path d="M0 0 C0.99 0.33 1.98 0.66 3 1 C2.67 5.62 2.34 10.24 2 15 C1.67 15 1.34 15 1 15 C0.67 10.05 0.34 5.1 0 0 Z " fill="#111148" transform="translate(84,57)"/>
<path d="M0 0 C4.29 0 8.58 0 13 0 C13 0.66 13 1.32 13 2 C11.35 2.33 9.7 2.66 8 3 C8 2.34 8 1.68 8 1 C5.36 1 2.72 1 0 1 C0 0.67 0 0.34 0 0 Z " fill="#22224C" transform="translate(83,41)"/>
<path d="M0 0 C0.33 0 0.66 0 1 0 C1 3.63 1 7.26 1 11 C1.66 11 2.32 11 3 11 C2.67 12.98 2.34 14.96 2 17 C-0.25998595 13.40537669 -0.20868087 10.43404325 -0.125 6.25 C-0.09792969 4.49429688 -0.09792969 4.49429688 -0.0703125 2.703125 C-0.04710937 1.81109375 -0.02390625 0.9190625 0 0 Z " fill="#070659" transform="translate(156,32)"/>
<path d="M0 0 C0.66 0 1.32 0 2 0 C2 2.64 2 5.28 2 8 C1.01 8.495 1.01 8.495 0 9 C-1.125 3.375 -1.125 3.375 0 0 Z " fill="#302A50" transform="translate(55,21)"/>
<path d="M0 0 C-1.04874998 2.62187494 -1.64931313 3.79371361 -4.125 5.25 C-4.74375 5.4975 -5.3625 5.745 -6 6 C-6.33 5.34 -6.66 4.68 -7 4 C-6.34 4 -5.68 4 -5 4 C-4.67 3.01 -4.34 2.02 -4 1 C-2 0 -2 0 0 0 Z " fill="#080652" transform="translate(219,47)"/>
<path d="M0 0 C0 1.98 0 3.96 0 6 C-0.99 6 -1.98 6 -3 6 C-3.33 4.68 -3.66 3.36 -4 2 C-1 0 -1 0 0 0 Z " fill="#C69A3C" transform="translate(179,71)"/>
<path d="M0 0 C0.33 0.66 0.66 1.32 1 2 C0.01 1.67 -0.98 1.34 -2 1 C-1.34 0.67 -0.68 0.34 0 0 Z " fill="#000000" transform="translate(53,79)"/>
<path d="" fill="#808080" transform="translate(0,0)"/>
</svg>
