<?xml version="1.0" encoding="UTF-8"?>
<svg version="1.1" xmlns="http://www.w3.org/2000/svg" width="417" height="138">
<path d="M0 0 C137.61 0 275.22 0 417 0 C417 45.54 417 91.08 417 138 C279.39 138 141.78 138 0 138 C0 92.46 0 46.92 0 0 Z " fill="#FDFDFD" transform="translate(0,0)"/>
<path d="M0 0 C4.49977884 -0.11690073 8.99916287 -0.18748837 13.5 -0.25 C15.40265625 -0.30027344 15.40265625 -0.30027344 17.34375 -0.3515625 C24.74105266 -0.42861774 29.76454686 -0.109389 36 4 C40.117204 8.22555147 42.04736656 12.3341266 42.5 18.1875 C42.3525265 24.05694516 39.73669777 28.58315768 36 33 C30.87732772 36.62855953 24.36390914 37.13028828 18.26171875 37.09765625 C17.19501953 37.09443359 16.12832031 37.09121094 15.02929688 37.08789062 C13.37510742 37.07532227 13.37510742 37.07532227 11.6875 37.0625 C10.56537109 37.05798828 9.44324219 37.05347656 8.28710938 37.04882812 C5.5246849 37.03707313 2.76237002 37.02064077 0 37 C0 33.7 0 30.4 0 27 C0.66 27 1.32 27 2 27 C2 21.06 2 15.12 2 9 C1.34 9 0.68 9 0 9 C0 6.03 0 3.06 0 0 Z " fill="#06066A" transform="translate(236,28)"/>
<path d="M0 0 C4.96622349 -0.02465098 9.93241166 -0.04283649 14.89868164 -0.05493164 C16.58944316 -0.0599719 18.28020029 -0.06680405 19.97094727 -0.07543945 C22.39600707 -0.08751857 24.82100944 -0.09323123 27.24609375 -0.09765625 C28.38672523 -0.10539818 28.38672523 -0.10539818 29.55039978 -0.11329651 C31.3673257 -0.11349238 33.18413127 -0.06197277 35 0 C36 1 36 1 36.1328125 3.46875 C36.13023437 4.4690625 36.12765625 5.469375 36.125 6.5 C36.12886719 8.00046875 36.12886719 8.00046875 36.1328125 9.53125 C36 12 36 12 35 13 C33.48071962 13.07179964 31.95832518 13.08392007 30.4375 13.0625 C29.61121094 13.05347656 28.78492188 13.04445313 27.93359375 13.03515625 C27.29550781 13.02355469 26.65742188 13.01195312 26 13 C26 12.01 26 11.02 26 10 C23.03 10 20.06 10 17 10 C17 11.65 17 13.3 17 15 C19.64 15 22.28 15 25 15 C25 17.31 25 19.62 25 22 C22.69 22.33 20.38 22.66 18 23 C17.67 24.65 17.34 26.3 17 28 C19.64 28 22.28 28 25 28 C25 27.01 25 26.02 25 25 C28.63 25 32.26 25 36 25 C36.02686553 26.97909398 36.04633375 28.95828971 36.0625 30.9375 C36.07410156 32.03964844 36.08570313 33.14179687 36.09765625 34.27734375 C36 37 36 37 35 38 C32.40640678 38.08851529 29.83960309 38.11525945 27.24609375 38.09765625 C26.47064713 38.0962413 25.6952005 38.09482635 24.89625549 38.09336853 C22.40996506 38.08775345 19.9237634 38.07519846 17.4375 38.0625 C15.75586067 38.05748694 14.07421994 38.0529237 12.39257812 38.04882812 C8.26168434 38.03777913 4.13085724 38.02050445 0 38 C0 34.7 0 31.4 0 28 C0.99 28 1.98 28 3 28 C3 22.06 3 16.12 3 10 C2.01 10 1.02 10 0 10 C0 6.7 0 3.4 0 0 Z " fill="#0E0E6E" transform="translate(283,27)"/>
<path d="M0 0 C8.91 0 17.82 0 27 0 C26.67 3.3 26.34 6.6 26 10 C26 13.94083181 26.58958603 15.96300601 28 19.5625 C30 24.68055556 30 24.68055556 30 28 C30.99 28 31.98 28 33 28 C33 31.3 33 34.6 33 38 C26.73 38 20.46 38 14 38 C14 35.03 14 32.06 14 29 C14.99 29 15.98 29 17 29 C16.67 27.68 16.34 26.36 16 25 C12.7 25 9.4 25 6 25 C6 26.32 6 27.64 6 29 C6.66 29 7.32 29 8 29 C8 31.97 8 34.94 8 38 C3.05 38 -1.9 38 -7 38 C-7 34.7 -7 31.4 -7 28 C-6.01 28 -5.02 28 -4 28 C-3.81824219 27.3709375 -3.63648438 26.741875 -3.44921875 26.09375 C-1.84447416 20.62938892 -0.06414546 15.30780262 2 10 C1.34 10 0.68 10 0 10 C0 6.7 0 3.4 0 0 Z " fill="#0B0B6C" transform="translate(367,27)"/>
<path d="M0 0 C6.27 0 12.54 0 19 0 C19 9.24 19 18.48 19 28 C20.32 28 21.64 28 23 28 C23 18.76 23 9.52 23 0 C27.62 0 32.24 0 37 0 C37 3.3 37 6.6 37 10 C36.01 10 35.02 10 34 10 C34.05220703 11.84464844 34.05220703 11.84464844 34.10546875 13.7265625 C34.13362045 15.35936127 34.16091913 16.9921749 34.1875 18.625 C34.21263672 19.43324219 34.23777344 20.24148437 34.26367188 21.07421875 C34.32576078 26.16550907 33.82060061 29.58397614 31 34 C27.10041293 37.89958707 23.75227147 38.299376 18.4375 38.4375 C13.67539522 38.43189092 10.87777284 37.80709574 7 35 C3.89053226 31.44632258 2.86913059 28.45258627 2.90234375 23.76953125 C2.90556641 22.96708984 2.90878906 22.16464844 2.91210938 21.33789062 C2.92048828 20.50451172 2.92886719 19.67113281 2.9375 18.8125 C2.94201172 17.96751953 2.94652344 17.12253906 2.95117188 16.25195312 C2.96294597 14.16793845 2.9808811 12.08396023 3 10 C2.01 10 1.02 10 0 10 C0 6.7 0 3.4 0 0 Z " fill="#0B0B6B" transform="translate(195,27)"/>
<path d="M0 0 C6.6 0 13.2 0 20 0 C20 3.3 20 6.6 20 10 C19.34 10 18.68 10 18 10 C19.65 13.96 21.3 17.92 23 22 C24.98 16.555 24.98 16.555 27 11 C26.34 10.67 25.68 10.34 25 10 C25 6.7 25 3.4 25 0 C29.95 0 34.9 0 40 0 C40 3.3 40 6.6 40 10 C39.01 10 38.02 10 37 10 C36.87761963 10.71115967 36.75523926 11.42231934 36.62915039 12.1550293 C35.97817483 15.09869177 35.04463074 17.71846616 33.93359375 20.51953125 C33.53076172 21.54111328 33.12792969 22.56269531 32.71289062 23.61523438 C32.29201172 24.67033203 31.87113281 25.72542969 31.4375 26.8125 C31.01275391 27.88693359 30.58800781 28.96136719 30.15039062 30.06835938 C29.10400242 32.71372282 28.05249769 35.35706136 27 38 C23.04 38 19.08 38 15 38 C13.9341325 35.75154176 12.87174659 33.50157801 11.8125 31.25 C11.49442383 30.57565918 11.17634766 29.90131836 10.84863281 29.20654297 C8.39086734 23.95068701 6.19582069 18.6227659 4.140625 13.1953125 C3.14816863 10.66270251 3.14816863 10.66270251 0 10 C0 6.7 0 3.4 0 0 Z " fill="#0A0A6B" transform="translate(321,27)"/>
<path d="M0 0 C6.93 0 13.86 0 21 0 C21 3.3 21 6.6 21 10 C20.01 10 19.02 10 18 10 C18 15.94 18 21.88 18 28 C20.97 28 23.94 28 27 28 C27 26.35 27 24.7 27 23 C29.64 23 32.28 23 35 23 C35 27.95 35 32.9 35 38 C23.45 38 11.9 38 0 38 C0 34.7 0 31.4 0 28 C0.99 28 1.98 28 3 28 C3 22.06 3 16.12 3 10 C2.01 10 1.02 10 0 10 C0 6.7 0 3.4 0 0 Z " fill="#0C0C6D" transform="translate(157,27)"/>
<path d="M0 0 C3.63 0 7.26 0 11 0 C11 19.47 11 38.94 11 59 C7.37 59 3.74 59 0 59 C0 39.53 0 20.06 0 0 Z " fill="#CB9832" transform="translate(61,5)"/>
<path d="M0 0 C19.14 0 38.28 0 58 0 C58 3.63 58 7.26 58 11 C38.86 11 19.72 11 0 11 C0 7.37 0 3.74 0 0 Z " fill="#000065" transform="translate(14,69)"/>
<path d="M0 0 C19.14 0 38.28 0 58 0 C58 3.63 58 7.26 58 11 C38.86 11 19.72 11 0 11 C0 7.37 0 3.74 0 0 Z " fill="#CB9832" transform="translate(74,53)"/>
<path d="M0 0 C3.3 0 6.6 0 10 0 C10 19.47 10 38.94 10 59 C6.7 59 3.4 59 0 59 C0 39.53 0 20.06 0 0 Z " fill="#000065" transform="translate(75,69)"/>
<path d="M0 0 C3.63 0 7.26 0 11 0 C11 16.83 11 33.66 11 51 C7.37 51 3.74 51 0 51 C0 34.17 0 17.34 0 0 Z " fill="#0D0D6C" transform="translate(47,13)"/>
<path d="M0 0 C16.17 0 32.34 0 49 0 C49 3.63 49 7.26 49 11 C32.83 11 16.66 11 0 11 C0 7.37 0 3.74 0 0 Z " fill="#000065" transform="translate(22,83)"/>
<path d="M0 0 C3.3 0 6.6 0 10 0 C10 16.5 10 33 10 50 C6.7 50 3.4 50 0 50 C0 33.5 0 17 0 0 Z " fill="#000065" transform="translate(89,69)"/>
<path d="M0 0 C16.17 0 32.34 0 49 0 C49 3.3 49 6.6 49 10 C32.83 10 16.66 10 0 10 C0 6.7 0 3.4 0 0 Z " fill="#000065" transform="translate(75,39)"/>
<path d="M0 0 C3.63 0 7.26 0 11 0 C11 13.53 11 27.06 11 41 C7.37 41 3.74 41 0 41 C0 27.47 0 13.94 0 0 Z " fill="#000065" transform="translate(102,69)"/>
<path d="M0 0 C3.63 0 7.26 0 11 0 C11 13.53 11 27.06 11 41 C7.37 41 3.74 41 0 41 C0 27.47 0 13.94 0 0 Z " fill="#000065" transform="translate(33,23)"/>
<path d="M0 0 C13.2 0 26.4 0 40 0 C40 3.63 40 7.26 40 11 C26.8 11 13.6 11 0 11 C0 7.37 0 3.74 0 0 Z " fill="#000065" transform="translate(32,99)"/>
<path d="M0 0 C13.2 0 26.4 0 40 0 C40 3.63 40 7.26 40 11 C26.8 11 13.6 11 0 11 C0 7.37 0 3.74 0 0 Z " fill="#0E0E6D" transform="translate(75,23)"/>
<path d="M0 0 C2.31 0.33 4.62 0.66 7 1 C9.82335308 5.23502962 9.65923537 9.02724928 9 14 C7.3125 16.625 7.3125 16.625 5 18 C3.35 18 1.7 18 0 18 C0 12.06 0 6.12 0 0 Z " fill="#F9F9FB" transform="translate(253,37)"/>
<path d="M0 0 C2.45933991 0.11369211 4.9167909 0.24042651 7.375 0.375 C8.07367188 0.4059375 8.77234375 0.436875 9.4921875 0.46875 C14.7734375 0.7734375 14.7734375 0.7734375 17 3 C18.32 2.34 19.64 1.68 21 1 C20.01 4.3 19.02 7.6 18 11 C17.34 11 16.68 11 16 11 C15.01 8.36 14.02 5.72 13 3 C11.68 3 10.36 3 9 3 C9 5.64 9 8.28 9 11 C8.01 11 7.02 11 6 11 C6 8.36 6 5.72 6 3 C5.01 3 4.02 3 3 3 C3 5.64 3 8.28 3 11 C2.01 11 1.02 11 0 11 C0 7.37 0 3.74 0 0 Z " fill="#D6AD5D" transform="translate(343,77)"/>
<path d="M0 0 C9.9 0 19.8 0 30 0 C30 0.99 30 1.98 30 3 C19.77 3 9.54 3 -1 3 C-0.67 2.01 -0.34 1.02 0 0 Z " fill="#D8B266" transform="translate(157,82)"/>
<path d="M0 0 C3 0.25 3 0.25 5 2.25 C5.25 5.25 5.25 5.25 5 8.25 C3 10.25 3 10.25 0 10.5 C-3 10.25 -3 10.25 -5 8.25 C-5.25 5.25 -5.25 5.25 -5 2.25 C-3 0.25 -3 0.25 0 0 Z " fill="#CD9C3A" transform="translate(263,77.75)"/>
<path d="M0 0 C3 0.25 3 0.25 5 2.25 C4.42307692 8.82692308 4.42307692 8.82692308 3 10.25 C0.0625 10.4375 0.0625 10.4375 -3 10.25 C-5 8.25 -5 8.25 -5.25 5.25 C-4.90584825 1.120179 -4.129821 0.34415175 0 0 Z " fill="#CD9C3A" transform="translate(298,77.75)"/>
<path d="M0 0 C0.99 0 1.98 0 3 0 C3 1.32 3 2.64 3 4 C3.99 4 4.98 4 6 4 C6 2.68 6 1.36 6 0 C6.99 0 7.98 0 9 0 C9 3.3 9 6.6 9 10 C8.01 10 7.02 10 6 10 C6 8.68 6 7.36 6 6 C5.01 6 4.02 6 3 6 C3 7.32 3 8.64 3 10 C2.01 10 1.02 10 0 10 C0 6.7 0 3.4 0 0 Z " fill="#D6AD5D" transform="translate(235,78)"/>
<path d="M0 0 C2.31 0 4.62 0 7 0 C8 5 8 5 9 10 C5.73045798 9.43628586 4.17424117 8.50037734 2 6 C2 7.32 2 8.64 2 10 C1.34 10 0.68 10 0 10 C0 6.7 0 3.4 0 0 Z " fill="#D2A64F" transform="translate(333,78)"/>
<path d="M0 0 C2.31 0 4.62 0 7 0 C8 5 8 5 9 10 C5.73045798 9.43628586 4.17424117 8.50037734 2 6 C2 7.32 2 8.64 2 10 C1.34 10 0.68 10 0 10 C0 6.7 0 3.4 0 0 Z " fill="#D3A751" transform="translate(283,78)"/>
<path d="M0 0 C2.64 0 5.28 0 8 0 C8 0.66 8 1.32 8 2 C6.35 2 4.7 2 3 2 C3 2.66 3 3.32 3 4 C4.65 4 6.3 4 8 4 C8 4.66 8 5.32 8 6 C6.35 6 4.7 6 3 6 C3 6.66 3 7.32 3 8 C4.98 8 6.96 8 9 8 C9 8.66 9 9.32 9 10 C6.03 10 3.06 10 0 10 C0 6.7 0 3.4 0 0 Z " fill="#D3A853" transform="translate(323,78)"/>
<path d="M0 0 C0.99 0 1.98 0 3 0 C6 6.625 6 6.625 6 10 C3.69 9.34 1.38 8.68 -1 8 C-1 8.66 -1 9.32 -1 10 C-1.99 9.67 -2.98 9.34 -4 9 C-2.68 6.03 -1.36 3.06 0 0 Z " fill="#CE9E3F" transform="translate(198,78)"/>
<path d="M0 0 C0.99 0 1.98 0 3 0 C4.32 3.3 5.64 6.6 7 10 C6.01 10 5.02 10 4 10 C4 9.34 4 8.68 4 8 C2.35 8 0.7 8 -1 8 C-1 8.66 -1 9.32 -1 10 C-1.66 10 -2.32 10 -3 10 C-2.69201674 8.51988629 -2.378482 7.04092675 -2.0625 5.5625 C-1.88847656 4.73878906 -1.71445313 3.91507812 -1.53515625 3.06640625 C-1 1 -1 1 0 0 Z " fill="#D4AB58" transform="translate(220,78)"/>
<path d="M0 0 C1.4540625 0.0309375 1.4540625 0.0309375 2.9375 0.0625 C3.2675 1.0525 3.5975 2.0425 3.9375 3.0625 C2.6175 3.0625 1.2975 3.0625 -0.0625 3.0625 C1.2575 3.7225 2.5775 4.3825 3.9375 5.0625 C3.6075 6.7125 3.2775 8.3625 2.9375 10.0625 C0.9575 10.0625 -1.0225 10.0625 -3.0625 10.0625 C-3.3925 9.0725 -3.7225 8.0825 -4.0625 7.0625 C-1.0925 7.5575 -1.0925 7.5575 1.9375 8.0625 C1.9375 7.4025 1.9375 6.7425 1.9375 6.0625 C0.2875 5.7325 -1.3625 5.4025 -3.0625 5.0625 C-3.625 3.125 -3.625 3.125 -4.0625 1.0625 C-3.0625 0.0625 -3.0625 0.0625 0 0 Z " fill="#D1A44B" transform="translate(308.0625,77.9375)"/>
<path d="M0 0 C2.31 0 4.62 0 7 0 C7.33 1.65 7.66 3.3 8 5 C7.195625 5.268125 6.39125 5.53625 5.5625 5.8125 C4.716875 6.204375 3.87125 6.59625 3 7 C2.67 7.99 2.34 8.98 2 10 C1.34 10 0.68 10 0 10 C0 6.7 0 3.4 0 0 Z " fill="#DDBC7C" transform="translate(273,78)"/>
<path d="M0 0 C2.31 0 4.62 0 7 0 C7.38218767 1.65614657 7.71395102 3.32457024 8 5 C7 6 7 6 4.4375 6.0625 C3.2309375 6.0315625 3.2309375 6.0315625 2 6 C2 7.32 2 8.64 2 10 C1.34 10 0.68 10 0 10 C0 6.7 0 3.4 0 0 Z " fill="#CC9B38" transform="translate(314,78)"/>
<path d="M0 0 C2.31 0 4.62 0 7 0 C7.38218767 1.65614657 7.71395102 3.32457024 8 5 C7 6 7 6 4.4375 6.0625 C3.2309375 6.0315625 3.2309375 6.0315625 2 6 C2 7.32 2 8.64 2 10 C1.34 10 0.68 10 0 10 C0 6.7 0 3.4 0 0 Z " fill="#CD9C3A" transform="translate(209,78)"/>
<path d="M0 0 C1.98 0.99 1.98 0.99 4 2 C5.32 1.34 6.64 0.68 8 0 C7.01 3.3 6.02 6.6 5 10 C4.34 10 3.68 10 3 10 C2.01 6.7 1.02 3.4 0 0 Z " fill="#CE9F41" transform="translate(356,78)"/>
<path d="M0 0 C0.99 0 1.98 0 3 0 C3 3.63 3 7.26 3 11 C2.01 11 1.02 11 0 11 C0 7.37 0 3.74 0 0 Z " fill="#CB9832" transform="translate(343,77)"/>
<path d="M0 0 C0.99 0 1.98 0 3 0 C3 1.32 3 2.64 3 4 C3.66 4.33 4.32 4.66 5 5 C4.34 5 3.68 5 3 5 C3 6.65 3 8.3 3 10 C2.01 10 1.02 10 0 10 C0 6.7 0 3.4 0 0 Z " fill="#D2A64E" transform="translate(235,78)"/>
<path d="M0 0 C2.64 0 5.28 0 8 0 C8 0.66 8 1.32 8 2 C7.01 2 6.02 2 5 2 C5 4.64 5 7.28 5 10 C4.34 10 3.68 10 3 10 C3 7.36 3 4.72 3 2 C2.01 2 1.02 2 0 2 C0 1.34 0 0.68 0 0 Z " fill="#CD9C3B" transform="translate(249,78)"/>
<path d="M0 0 C2.64 0 5.28 0 8 0 C8 0.66 8 1.32 8 2 C7.01 2 6.02 2 5 2 C5 4.64 5 7.28 5 10 C4.34 10 3.68 10 3 10 C3 7.36 3 4.72 3 2 C2.01 2 1.02 2 0 2 C0 1.34 0 0.68 0 0 Z " fill="#CD9C3B" transform="translate(226,78)"/>
<path d="M0 0 C2.12508244 3.18762365 2.5020163 5.26512223 3 9 C1.02 9 -0.96 9 -3 9 C-2.01 6.03 -1.02 3.06 0 0 Z " fill="#D7D7E7" transform="translate(378,38)"/>
<path d="M0 0 C1.32 0 2.64 0 4 0 C4 1.98 4 3.96 4 6 C2.35 5.67 0.7 5.34 -1 5 C-0.67 3.35 -0.34 1.7 0 0 Z " fill="#FBF7F0" transform="translate(296,80)"/>
<path d="M0 0 C1.32 0 2.64 0 4 0 C4 1.98 4 3.96 4 6 C2.35 5.67 0.7 5.34 -1 5 C-0.67 3.35 -0.34 1.7 0 0 Z " fill="#FBF7F0" transform="translate(261,80)"/>
<path d="M0 0 C1.32 0.33 2.64 0.66 4 1 C3.67 2.65 3.34 4.3 3 6 C1.02 6 -0.96 6 -3 6 C-3.33 5.01 -3.66 4.02 -4 3 C-1.03 3.495 -1.03 3.495 2 4 C2 3.34 2 2.68 2 2 C1.34 2 0.68 2 0 2 C0 1.34 0 0.68 0 0 Z " fill="#CD9D3C" transform="translate(308,82)"/>
<path d="M0 0 C0.99 0.33 1.98 0.66 3 1 C2.67 2.65 2.34 4.3 2 6 C1.38125 6.103125 0.7625 6.20625 0.125 6.3125 C-2.36526484 6.87525373 -2.36526484 6.87525373 -4 10 C-4 7.36 -4 4.72 -4 2 C-3.67 2.99 -3.34 3.98 -3 5 C-2.01 4.67 -1.02 4.34 0 4 C0 2.68 0 1.36 0 0 Z " fill="#CC9A36" transform="translate(278,78)"/>
<path d="M0 0 C1.32 1.32 2.64 2.64 4 4 C3.01 4.33 2.02 4.66 1 5 C1 4.34 1 3.68 1 3 C-0.65 3 -2.3 3 -4 3 C-4 3.66 -4 4.32 -4 5 C-4.66 5 -5.32 5 -6 5 C-6 4.01 -6 3.02 -6 2 C-4.02 1.34 -2.04 0.68 0 0 Z " fill="#CC9B39" transform="translate(223,83)"/>
<path d="M0 0 C0.33 0 0.66 0 1 0 C1 3.3 1 6.6 1 10 C-1 8 -1 8 -2 5 C-4.00016466 3.79117904 -4.00016466 3.79117904 -6 3 C-5.34 2.67 -4.68 2.34 -4 2 C-3.01 2.33 -2.02 2.66 -1 3 C-0.67 2.01 -0.34 1.02 0 0 Z " fill="#F7F0E2" transform="translate(313,78)"/>
<path d="M0 0 C-0.33 1.32 -0.66 2.64 -1 4 C-2.65 3.67 -4.3 3.34 -6 3 C-6 2.01 -6 1.02 -6 0 C-3 -1 -3 -1 0 0 Z " fill="#E0C286" transform="translate(322,79)"/>
<path d="M0 0 C0.99 0 1.98 0 3 0 C3.33 1.32 3.66 2.64 4 4 C3.34 4 2.68 4 2 4 C2 4.66 2 5.32 2 6 C1.34 6 0.68 6 0 6 C-0.38218767 4.34385343 -0.71395102 2.67542976 -1 1 C-0.67 0.67 -0.34 0.34 0 0 Z " fill="#D7B062" transform="translate(198,78)"/>
<path d="M0 0 C2.37783838 2.37783838 2.59009208 3.72073665 3 7 C2.67 7.66 2.34 8.32 2 9 C1.01 8.67 0.02 8.34 -1 8 C-1 5.16032769 -0.59732819 2.76264289 0 0 Z " fill="#F7F0E2" transform="translate(291,80)"/>
<path d="M0 0 C2.125 0.9375 2.125 0.9375 4 2 C4 3.98 4 5.96 4 8 C3.01 7.34 2.02 6.68 1 6 C1 4.68 1 3.36 1 2 C0.01 1.67 -0.98 1.34 -2 1 C-1.34 0.67 -0.68 0.34 0 0 Z " fill="#D6AE5E" transform="translate(264,78)"/>
<path d="M0 0 C2 2 2 2 2.125 5.625 C2.08375 6.73875 2.0425 7.8525 2 9 C1.01 8.67 0.02 8.34 -1 8 C-1 5.16032769 -0.59732819 2.76264289 0 0 Z " fill="#F7F1E3" transform="translate(341,80)"/>
<path d="M0 0 C2.31 0 4.62 0 7 0 C7 0.66 7 1.32 7 2 C5.35 2 3.7 2 2 2 C2 2.66 2 3.32 2 4 C1.34 4 0.68 4 0 4 C0 2.68 0 1.36 0 0 Z " fill="#D0A145" transform="translate(324,78)"/>
<path d="M0 0 C2.125 0.9375 2.125 0.9375 4 2 C4 3.65 4 5.3 4 7 C3.01 6.67 2.02 6.34 1 6 C1 4.68 1 3.36 1 2 C0.01 1.67 -0.98 1.34 -2 1 C-1.34 0.67 -0.68 0.34 0 0 Z " fill="#D5AC5A" transform="translate(299,78)"/>
<path d="M0 0 C0 0.66 0 1.32 0 2 C-1.98 2.33 -3.96 2.66 -6 3 C-6 2.01 -6 1.02 -6 0 C-3 -1 -3 -1 0 0 Z " fill="#E1C388" transform="translate(217,79)"/>
</svg>
