<?xml version="1.0" encoding="UTF-8"?>
<svg version="1.1" xmlns="http://www.w3.org/2000/svg" width="491" height="174">
<path d="M0 0 C0.7317041 0.00008057 1.4634082 0.00016113 2.21728516 0.00024414 C4.40548108 -0.00191007 6.59314562 -0.01996433 8.78125 -0.0390625 C30.77329394 -0.12980248 30.77329394 -0.12980248 37.5703125 5.53710938 C43.76306171 12.32500592 44.89569722 19.56159518 44.55078125 28.55664062 C43.59492965 35.83521552 40.91359406 41.04956535 35.19921875 45.68554688 C25.4699672 52.153495 13.34824176 51.3461956 2.13671875 51.31054688 C0.27176758 51.31634766 0.27176758 51.31634766 -1.63085938 51.32226562 C-3.39913086 51.32033203 -3.39913086 51.32033203 -5.203125 51.31835938 C-6.27812256 51.31723145 -7.35312012 51.31610352 -8.46069336 51.31494141 C-10.92578125 51.18554688 -10.92578125 51.18554688 -11.92578125 50.18554688 C-12.09375 48.18945312 -12.09375 48.18945312 -12.11328125 45.74804688 C-12.12746094 44.94496094 -12.14164062 44.141875 -12.15625 43.31445312 C-11.92578125 41.18554688 -11.92578125 41.18554688 -9.92578125 39.18554688 C-8.93578125 39.18554688 -7.94578125 39.18554688 -6.92578125 39.18554688 C-7.25578125 30.27554688 -7.58578125 21.36554687 -7.92578125 12.18554688 C-9.24578125 11.52554688 -10.56578125 10.86554687 -11.92578125 10.18554688 C-11.95267341 8.70647796 -11.97212746 7.22727205 -11.98828125 5.74804688 C-11.99988281 4.92433594 -12.01148438 4.100625 -12.0234375 3.25195312 C-11.77021095 -2.10632072 -4.10047831 0.01431654 0 0 Z M10.07421875 12.18554688 C9.98663872 14.1851967 9.96725299 16.18790797 9.9765625 18.18945312 C9.97978516 19.40439453 9.98300781 20.61933594 9.98632812 21.87109375 C9.99470703 23.15048828 10.00308594 24.42988281 10.01171875 25.74804688 C10.01623047 27.03130859 10.02074219 28.31457031 10.02539062 29.63671875 C10.0372233 32.8197071 10.05370807 36.0026045 10.07421875 39.18554688 C17.08654547 39.5143356 17.08654547 39.5143356 23.07421875 36.18554688 C26.1702947 32.31545194 27.35477154 28.10797311 27.07421875 23.18554688 C26.18624712 19.59688046 25.1289272 16.27334896 23.07421875 13.18554688 C19.70587156 11.40326608 13.1720579 9.08770773 10.07421875 12.18554688 Z " fill="#FDFDFD" transform="translate(282.92578125,34.814453125)"/>
<path d="M0 0 C0.98613281 0.00322266 1.97226563 0.00644531 2.98828125 0.00976562 C4.02082031 0.01814453 5.05335938 0.02652344 6.1171875 0.03515625 C7.67759766 0.04192383 7.67759766 0.04192383 9.26953125 0.04882812 C11.84380712 0.06063673 14.41796896 0.0771055 16.9921875 0.09765625 C18.73783861 3.31405279 19.1966245 5.41779029 18.9921875 9.09765625 C17.0121875 10.08765625 17.0121875 10.08765625 14.9921875 11.09765625 C14.96319934 15.03514083 14.94539286 18.97259804 14.9296875 22.91015625 C14.92130859 24.02970703 14.91292969 25.14925781 14.90429688 26.30273438 C14.90107422 27.37587891 14.89785156 28.44902344 14.89453125 29.5546875 C14.88929443 30.5444458 14.88405762 31.5342041 14.87866211 32.55395508 C14.88148791 35.22158359 14.88148791 35.22158359 15.9921875 38.09765625 C18.84296841 38.86482476 18.84296841 38.86482476 21.9921875 39.09765625 C23.78573952 38.01993411 23.78573952 38.01993411 24.9921875 36.09765625 C25.45426447 33.52165744 25.45426447 33.52165744 25.390625 30.625 C25.39449219 29.56087891 25.39835937 28.49675781 25.40234375 27.40039062 C25.39074219 26.28986328 25.37914062 25.17933594 25.3671875 24.03515625 C25.37878906 22.92076172 25.39039063 21.80636719 25.40234375 20.65820312 C25.39654297 19.06395508 25.39654297 19.06395508 25.390625 17.4375 C25.38724121 16.46159912 25.38385742 15.48569824 25.38037109 14.48022461 C25.25227051 13.69397705 25.12416992 12.90772949 24.9921875 12.09765625 C24.0021875 11.43765625 23.0121875 10.77765625 21.9921875 10.09765625 C21.6640625 7.96875 21.6640625 7.96875 21.7421875 5.53515625 C21.75765625 4.72949219 21.773125 3.92382812 21.7890625 3.09375 C21.9921875 1.09765625 21.9921875 1.09765625 22.9921875 0.09765625 C24.68777476 -0.00166528 26.38744497 -0.03314382 28.0859375 -0.03515625 C29.11589844 -0.03644531 30.14585937 -0.03773437 31.20703125 -0.0390625 C32.83318359 -0.03326172 32.83318359 -0.03326172 34.4921875 -0.02734375 C35.57628906 -0.03121094 36.66039062 -0.03507812 37.77734375 -0.0390625 C38.80730469 -0.03777344 39.83726562 -0.03648438 40.8984375 -0.03515625 C42.32639648 -0.03346436 42.32639648 -0.03346436 43.78320312 -0.03173828 C45.9921875 0.09765625 45.9921875 0.09765625 46.9921875 1.09765625 C47.13333911 3.76824476 47.03465857 6.42197863 46.9921875 9.09765625 C45.0121875 10.08765625 45.0121875 10.08765625 42.9921875 11.09765625 C43.00789795 12.07992187 43.00789795 12.07992187 43.02392578 13.08203125 C43.06584109 16.08719957 43.09162559 19.09230609 43.1171875 22.09765625 C43.13394531 23.12761719 43.15070313 24.15757813 43.16796875 25.21875 C43.2164417 32.82900261 43.0998234 40.96849316 37.9921875 47.09765625 C30.07650241 52.19122753 21.50018634 53.29550531 12.296875 51.6015625 C6.95503284 50.19035942 3.44114148 48.62440835 -0.0078125 44.09765625 C-3.89676933 37.09753396 -3.14873045 27.81059761 -3.0703125 20.03515625 C-3.06580078 19.16955078 -3.06128906 18.30394531 -3.05664062 17.41210938 C-3.04501163 15.30726086 -3.02708323 13.20244867 -3.0078125 11.09765625 C-4.3278125 10.76765625 -5.6478125 10.43765625 -7.0078125 10.09765625 C-7.0078125 7.12765625 -7.0078125 4.15765625 -7.0078125 1.09765625 C-4.50284246 -0.15482877 -2.79927976 -0.01608781 0 0 Z " fill="#FDFDFD" transform="translate(221.0078125,34.90234375)"/>
<path d="M0 0 C4.2358357 -0.02469321 8.47163342 -0.04285671 12.70751953 -0.05493164 C14.1489332 -0.05996474 15.59034176 -0.06679173 17.03173828 -0.07543945 C19.10190085 -0.08754983 21.17199601 -0.09323847 23.2421875 -0.09765625 C24.4885498 -0.10289307 25.73491211 -0.10812988 27.01904297 -0.11352539 C30 0 30 0 32 1 C32 3.97 32 6.94 32 10 C31.01 10.33 30.02 10.66 29 11 C31.35351372 18.33094488 33.75627624 25.64007094 36.5625 32.8125 C36.93503906 33.76769531 37.30757813 34.72289062 37.69140625 35.70703125 C39.20813203 38.36469702 40.32734602 38.70748701 43 40 C43.71484375 41.83984375 43.71484375 41.83984375 43.9375 43.9375 C44.02902344 44.62714844 44.12054688 45.31679687 44.21484375 46.02734375 C44 48 44 48 42.78979492 49.6027832 C40.45032572 51.42910734 39.09313674 51.36021077 36.1484375 51.328125 C34.74851562 51.32039063 34.74851562 51.32039063 33.3203125 51.3125 C32.34835937 51.291875 31.37640625 51.27125 30.375 51.25 C29.3953125 51.24484375 28.415625 51.2396875 27.40625 51.234375 C20.15401786 51.15401786 20.15401786 51.15401786 19 50 C18.87464348 48.39951798 18.82425213 46.79284072 18.8125 45.1875 C18.79832031 44.31480469 18.78414063 43.44210938 18.76953125 42.54296875 C19 40 19 40 21 36 C15.06 36.495 15.06 36.495 9 37 C9 37.66 9 38.32 9 39 C9.66 39.33 10.32 39.66 11 40 C11.4140625 42.06640625 11.4140625 42.06640625 11.625 44.5625 C11.69976562 45.38878906 11.77453125 46.21507812 11.8515625 47.06640625 C11.92503906 48.02353516 11.92503906 48.02353516 12 49 C8.89914429 51.06723714 8.27068319 51.24497423 4.76953125 51.1953125 C3.96708984 51.18886719 3.16464844 51.18242188 2.33789062 51.17578125 C1.50451172 51.15902344 0.67113281 51.14226562 -0.1875 51.125 C-1.03248047 51.11597656 -1.87746094 51.10695312 -2.74804688 51.09765625 C-4.83215243 51.07410703 -6.91611217 51.03823647 -9 51 C-10.83039217 46.80712492 -11.33409158 44.47873603 -10 40 C-9.37061523 39.39575195 -8.74123047 38.79150391 -8.09277344 38.16894531 C-5.68120711 35.66960382 -4.81749358 33.61307047 -3.640625 30.359375 C-3.24746094 29.28945312 -2.85429687 28.21953125 -2.44921875 27.1171875 C-2.05347656 26.00601563 -1.65773438 24.89484375 -1.25 23.75 C-0.83878906 22.62335937 -0.42757813 21.49671875 -0.00390625 20.3359375 C1.00739374 17.56074217 2.00825139 14.78222944 3 12 C1.68 11.34 0.36 10.68 -1 10 C-1.125 3.375 -1.125 3.375 0 0 Z M15 17 C12.5943192 20.94075703 12.5943192 20.94075703 12.3125 25.375 C12.539375 25.91125 12.76625 26.4475 13 27 C14.65 27 16.3 27 18 27 C19.39195915 22.82412255 17.82323219 20.86525224 16 17 C15.67 17 15.34 17 15 17 Z " fill="#FDFDFD" transform="translate(436,35)"/>
<path d="M0 0 C0.88022827 0.00718552 1.76045654 0.01437103 2.6673584 0.02177429 C3.569823 0.02223251 4.4722876 0.02269073 5.40209961 0.02316284 C7.31198439 0.02618664 9.22186666 0.03407674 11.13171387 0.0464325 C14.06165262 0.06466863 16.99127512 0.06694234 19.92126465 0.06669617 C21.77413198 0.07161208 23.62699715 0.07744071 25.4798584 0.08427429 C26.36008667 0.08538712 27.24031494 0.08649994 28.1472168 0.08764648 C34.3414832 0.13618044 34.3414832 0.13618044 36.5736084 1.25224304 C36.60045935 3.73148105 36.62037387 6.21043144 36.6361084 8.68974304 C36.6444873 9.39679382 36.65286621 10.1038446 36.66149902 10.83232117 C36.67014427 12.63917864 36.62580851 14.44611907 36.5736084 16.25224304 C35.5736084 17.25224304 35.5736084 17.25224304 33.06970215 17.34989929 C32.06036621 17.33829773 31.05103027 17.32669617 30.0111084 17.31474304 C28.99919434 17.3057196 27.98728027 17.29669617 26.94470215 17.28739929 C26.16224121 17.27579773 25.37978027 17.26419617 24.5736084 17.25224304 C24.0786084 14.77724304 24.0786084 14.77724304 23.5736084 12.25224304 C20.9336084 12.25224304 18.2936084 12.25224304 15.5736084 12.25224304 C15.2436084 14.56224304 14.9136084 16.87224304 14.5736084 19.25224304 C17.8736084 19.25224304 21.1736084 19.25224304 24.5736084 19.25224304 C25.8236084 27.87724304 25.8236084 27.87724304 23.5736084 31.25224304 C20.6036084 30.92224304 17.6336084 30.59224304 14.5736084 30.25224304 C14.5736084 33.22224304 14.5736084 36.19224304 14.5736084 39.25224304 C17.8736084 39.25224304 21.1736084 39.25224304 24.5736084 39.25224304 C24.9036084 36.94224304 25.2336084 34.63224304 25.5736084 32.25224304 C27.05267732 32.22535088 28.53188323 32.20589683 30.0111084 32.18974304 C30.83481934 32.17814148 31.65853027 32.16653992 32.50720215 32.15458679 C34.5736084 32.25224304 34.5736084 32.25224304 35.5736084 33.25224304 C35.67347815 36.09559352 35.71238721 38.90921467 35.6986084 41.75224304 C35.70440918 42.94913757 35.70440918 42.94913757 35.71032715 44.17021179 C35.70021607 50.12563537 35.70021607 50.12563537 34.5736084 51.25224304 C31.5672259 51.36581028 28.58468398 51.41643216 25.57751465 51.42021179 C24.22169533 51.42520439 24.22169533 51.42520439 22.83848572 51.43029785 C20.92264313 51.435371 19.00679168 51.43770606 17.09094238 51.43754578 C14.15207421 51.43973117 11.21358188 51.45787969 8.27478027 51.47685242 C6.41735969 51.47978641 4.55993731 51.48177117 2.70251465 51.48271179 C1.81914932 51.48989731 0.935784 51.49708282 0.02565002 51.50448608 C-6.19757021 51.48106444 -6.19757021 51.48106444 -8.4263916 49.25224304 C-8.4029541 47.08818054 -8.4029541 47.08818054 -8.0513916 44.62724304 C-7.94053223 43.80997742 -7.82967285 42.99271179 -7.7154541 42.15068054 C-7.62006348 41.52419617 -7.52467285 40.89771179 -7.4263916 40.25224304 C-5.4463916 39.75724304 -5.4463916 39.75724304 -3.4263916 39.25224304 C-3.36779303 35.89815111 -3.33259579 32.54419288 -3.3013916 29.18974304 C-3.28463379 28.24679382 -3.26787598 27.3038446 -3.25061035 26.33232117 C-3.17525838 17.1959929 -3.17525838 17.1959929 -7.0513916 9.12724304 C-8.8425038 6.68481732 -8.81624229 5.21510825 -8.4263916 2.25224304 C-5.73345617 -0.44069239 -3.65832513 0.01382301 0 0 Z " fill="#FDFDFD" transform="translate(338.4263916015625,34.74775695800781)"/>
<path d="M0 0 C1.02544922 -0.00128906 2.05089844 -0.00257812 3.10742188 -0.00390625 C4.72680664 0.00189453 4.72680664 0.00189453 6.37890625 0.0078125 C7.45462891 0.00394531 8.53035156 0.00007813 9.63867188 -0.00390625 C11.1787793 -0.00197266 11.1787793 -0.00197266 12.75 0 C13.69673584 0.00112793 14.64347168 0.00225586 15.61889648 0.00341797 C17.94140625 0.1328125 17.94140625 0.1328125 19.94140625 1.1328125 C20.13671875 7.1875 20.13671875 7.1875 19.94140625 9.1328125 C19.28140625 9.7928125 18.62140625 10.4528125 17.94140625 11.1328125 C16.95140625 11.1328125 15.96140625 11.1328125 14.94140625 11.1328125 C18.40640625 20.0428125 18.40640625 20.0428125 21.94140625 29.1328125 C23.96365819 26.0994346 24.93488149 23.51936761 26.06640625 20.0703125 C26.41960937 19.00683594 26.7728125 17.94335938 27.13671875 16.84765625 C28.03613367 14.28515398 28.03613367 14.28515398 27.94140625 12.1328125 C26.95140625 11.8028125 25.96140625 11.4728125 24.94140625 11.1328125 C24.91452474 9.48706684 24.89506502 7.84119837 24.87890625 6.1953125 C24.86730469 5.27878906 24.85570312 4.36226562 24.84375 3.41796875 C24.94140625 1.1328125 24.94140625 1.1328125 25.94140625 0.1328125 C29.41273922 -0.14553518 32.89773129 -0.09894952 36.37890625 -0.1171875 C37.35923828 -0.1378125 38.33957031 -0.1584375 39.34960938 -0.1796875 C40.75436523 -0.18742187 40.75436523 -0.18742187 42.1875 -0.1953125 C43.05044678 -0.2046582 43.91339355 -0.21400391 44.80249023 -0.22363281 C45.86125366 -0.04719238 45.86125366 -0.04719238 46.94140625 0.1328125 C49.29189163 3.65854057 49.60538442 4.98294895 48.94140625 9.1328125 C48.00167969 9.86371094 47.06195313 10.59460938 46.09375 11.34765625 C42.49581735 14.19748282 41.2902756 17.51502458 40.00390625 21.8203125 C39.51173306 23.32637906 39.0168399 24.83155888 38.51953125 26.3359375 C38.26623047 27.11646484 38.01292969 27.89699219 37.75195312 28.70117188 C36.36350372 32.8665201 34.82039358 36.96922792 33.25390625 41.0703125 C32.96845947 41.84528076 32.6830127 42.62024902 32.38891602 43.41870117 C30.29027134 48.90023577 30.29027134 48.90023577 26.94140625 51.1328125 C23.8046875 51.328125 23.8046875 51.328125 20.25390625 51.2578125 C19.07441406 51.23976562 17.89492188 51.22171875 16.6796875 51.203125 C15.32423828 51.16832031 15.32423828 51.16832031 13.94140625 51.1328125 C11.30111521 46.24361475 9.21879571 41.33843267 7.3203125 36.11328125 C7.09153412 35.48406769 6.86275574 34.85485413 6.62704468 34.20657349 C5.67371382 31.57793213 4.72423395 28.94834941 3.79858398 26.30981445 C3.11292687 24.36334847 2.40599185 22.42572723 1.6953125 20.48828125 C1.08151733 18.76581177 1.08151733 18.76581177 0.45532227 17.00854492 C-1.28691169 13.69911518 -2.82089795 12.85496262 -6.05859375 11.1328125 C-6.58203125 8.6875 -6.58203125 8.6875 -6.43359375 6.0078125 C-6.38332031 4.67363281 -6.38332031 4.67363281 -6.33203125 3.3125 C-5.81553488 -0.80471389 -3.69074353 0.00440235 0 0 Z " fill="#FDFDFD" transform="translate(383.05859375,34.8671875)"/>
<path d="M0 0 C1.11890625 -0.020625 2.2378125 -0.04125 3.390625 -0.0625 C4.45796875 -0.06765625 5.5253125 -0.0728125 6.625 -0.078125 C7.60726562 -0.0874707 8.58953125 -0.09681641 9.6015625 -0.10644531 C10.39304688 0.01118164 11.18453125 0.12880859 12 0.25 C14.31282587 3.71923881 14.42478586 5.17205575 14 9.25 C12.6875 11.125 12.6875 11.125 11 12.25 C10.01 12.25 9.02 12.25 8 12.25 C8 21.16 8 30.07 8 39.25 C10.97 39.25 13.94 39.25 17 39.25 C16.979375 38.13625 16.95875 37.0225 16.9375 35.875 C17 32.25 17 32.25 18 30.25 C19.62463842 30.19604522 21.24978541 30.15722805 22.875 30.125 C24.23238281 30.09019531 24.23238281 30.09019531 25.6171875 30.0546875 C28 30.25 28 30.25 30 32.25 C30.22705078 34.12939453 30.22705078 34.12939453 30.1953125 36.3828125 C30.18886719 37.18847656 30.18242187 37.99414062 30.17578125 38.82421875 C30.15902344 39.66597656 30.14226562 40.50773437 30.125 41.375 C30.11597656 42.22449219 30.10695312 43.07398438 30.09765625 43.94921875 C30.07405647 46.04959884 30.03818483 48.14983444 30 50.25 C26.63360724 51.93319638 22.82759311 51.41316848 19.125 51.41796875 C18.24473145 51.42129715 17.36446289 51.42462555 16.45751953 51.42805481 C14.59473189 51.43312167 12.73193515 51.43546321 10.86914062 51.43530273 C8.01156774 51.43749114 5.15437963 51.45565453 2.296875 51.47460938 C0.48958466 51.4775429 -1.31770752 51.47952797 -3.125 51.48046875 C-3.98335449 51.48765427 -4.84170898 51.49483978 -5.72607422 51.50224304 C-11.77117421 51.47882579 -11.77117421 51.47882579 -14 49.25 C-14.56410256 43.04487179 -14.56410256 43.04487179 -12.625 40.3125 C-11 39.25 -11 39.25 -9 39.25 C-9 30.34 -9 21.43 -9 12.25 C-11.475 11.26 -11.475 11.26 -14 10.25 C-14 7.28 -14 4.31 -14 1.25 C-9.87384379 -0.81307811 -4.53485586 0.02089795 0 0 Z " fill="#FDFDFD" transform="translate(182,34.75)"/>
<path d="M0 0 C0.70706085 0.00359528 1.4141217 0.00719055 2.14260864 0.01089478 C3.25473473 0.01067574 3.25473473 0.01067574 4.389328 0.01045227 C6.85130696 0.01115152 9.31321119 0.01894442 11.775177 0.02676392 C13.47768614 0.02862806 15.18019582 0.03005198 16.88270569 0.03105164 C21.37245148 0.03487714 25.86216513 0.0447077 30.35189819 0.05575562 C34.92983566 0.06596903 39.50777831 0.07054911 44.08572388 0.07559204 C53.07467032 0.08632994 62.06359287 0.10340675 71.05252075 0.12442017 C72.04035169 3.08791298 72.18662601 5.09568646 72.17752075 8.18692017 C72.18138794 9.50369751 72.18138794 9.50369751 72.18533325 10.84707642 C72.05252075 13.12442017 72.05252075 13.12442017 71.05252075 15.12442017 C66.31878363 16.06974055 61.7542829 16.22969382 56.93972778 16.16201782 C56.26731552 16.15401657 55.59490326 16.14601532 54.90211487 16.13777161 C52.70474125 16.11014382 50.5075827 16.07458508 48.31033325 16.03848267 C46.77574126 16.01669011 45.24114435 15.9952416 43.70654297 15.97412109 C40.5040962 15.92880539 37.30173997 15.87959361 34.09939575 15.82754517 C29.9868175 15.76098403 25.87417141 15.70384321 21.76141548 15.64951515 C18.59934755 15.60678983 15.43736436 15.55934312 12.27538681 15.51041794 C10.7578832 15.48747417 9.24035714 15.46597033 7.72281265 15.44591141 C5.6114156 15.41725757 3.50021692 15.38231214 1.38894653 15.34561157 C0.18650299 15.32705109 -1.01594055 15.3084906 -2.25482178 15.28936768 C-4.94747925 15.12442017 -4.94747925 15.12442017 -5.94747925 14.12442017 C-6.04640864 11.9596122 -6.07719025 9.79148232 -6.07247925 7.62442017 C-6.07505737 6.43848267 -6.0776355 5.25254517 -6.08029175 4.03067017 C-5.86262788 -0.73232746 -4.32517459 0.00927777 0 0 Z " fill="#FDFDFD" transform="translate(13.947479248046875,86.87557983398438)"/>
<path d="M0 0 C1.93166016 0.01740234 1.93166016 0.01740234 3.90234375 0.03515625 C5.19269531 0.04417969 6.48304687 0.05320312 7.8125 0.0625 C8.81152344 0.07410156 9.81054688 0.08570313 10.83984375 0.09765625 C11.73155048 3.92307341 11.9714969 7.47662662 11.98510742 11.40087891 C11.99148727 12.65212555 11.99786713 13.90337219 12.00444031 15.1925354 C12.00596856 16.54892946 12.00708275 17.90532403 12.0078125 19.26171875 C12.01102776 20.65986159 12.01439203 22.0580041 12.01789856 23.45614624 C12.02387276 26.37962627 12.02574005 29.3030768 12.02514648 32.2265625 C12.02504456 35.97371363 12.03873514 39.72067655 12.05591869 43.46778297 C12.06702736 46.35194776 12.0690661 49.23606671 12.06853676 52.1202507 C12.06971711 53.50215686 12.07414198 54.88406419 12.08186913 56.26594925 C12.09165239 58.1950156 12.08753103 60.12413739 12.08276367 62.05322266 C12.08418869 63.15066803 12.08561371 64.2481134 12.08708191 65.3788147 C11.83984375 68.09765625 11.83984375 68.09765625 9.83984375 71.09765625 C7.08984375 71.4609375 7.08984375 71.4609375 3.83984375 71.41015625 C2.23109375 71.40435547 2.23109375 71.40435547 0.58984375 71.3984375 C-2.16015625 71.09765625 -2.16015625 71.09765625 -4.16015625 69.09765625 C-4.40739441 66.28233337 -4.40739441 66.28233337 -4.40307617 62.64428711 C-4.40497452 61.98235855 -4.40687286 61.32042999 -4.40882874 60.63844299 C-4.41253927 58.44634225 -4.40182962 56.25457139 -4.390625 54.0625 C-4.38943336 52.54317768 -4.38898 51.02385462 -4.38923645 49.50453186 C-4.38767117 46.31929925 -4.37937742 43.13417897 -4.3659668 39.94897461 C-4.34896243 35.85743915 -4.34515283 31.76602706 -4.34591198 27.67446041 C-4.34564064 24.53730584 -4.34016544 21.40017846 -4.33291054 18.26303291 C-4.3297192 16.75388355 -4.32775538 15.24473109 -4.32701683 13.73557854 C-4.32485897 11.63087539 -4.31612734 9.52630557 -4.30541992 7.42163086 C-4.30160812 6.22187119 -4.29779633 5.02211151 -4.29386902 3.78599548 C-4.10077738 -0.09617551 -3.95433549 0.12219825 0 0 Z " fill="#FDFDFD" transform="translate(74.16015625,10.90234375)"/>
<path d="M0 0 C0.97066406 0.07992187 1.94132812 0.15984375 2.94140625 0.2421875 C3.90949219 0.30664062 4.87757812 0.37109375 5.875 0.4375 C8.50390625 1.1171875 8.50390625 1.1171875 10.14770508 2.60058594 C12.17894521 6.36980706 11.89388546 9.8463738 11.83203125 14.0625 C11.8292215 15.38832596 11.8292215 15.38832596 11.82635498 16.74093628 C11.81963119 18.61883294 11.8057102 20.49671551 11.78515625 22.37451172 C11.75454679 25.18340789 11.74423157 27.99173623 11.73828125 30.80078125 C11.70020883 39.68362658 11.51295163 48.55041726 11.05078125 57.421875 C11.01253235 58.1875882 10.97428345 58.95330139 10.93487549 59.74221802 C10.62772299 64.99337076 10.62772299 64.99337076 9.50390625 66.1171875 C7.33909828 66.2161169 5.1709684 66.2468985 3.00390625 66.2421875 C1.81796875 66.24476563 0.63203125 66.24734375 -0.58984375 66.25 C-3.49609375 66.1171875 -3.49609375 66.1171875 -4.49609375 65.1171875 C-4.60060144 63.16438566 -4.63464749 61.20778205 -4.64135742 59.25219727 C-4.64773727 57.99742081 -4.65411713 56.74264435 -4.66069031 55.44984436 C-4.66221887 54.06942788 -4.66333289 52.68901088 -4.6640625 51.30859375 C-4.66727342 49.90233831 -4.67063737 48.49608321 -4.67414856 47.08982849 C-4.68014607 44.13824692 -4.68198783 41.18669466 -4.68139648 38.23510742 C-4.68129484 34.44738704 -4.6949466 30.65985403 -4.71216869 26.87217808 C-4.72327117 23.96659985 -4.72531623 21.06106717 -4.72478676 18.15546989 C-4.72596955 16.75878186 -4.73040796 15.36209274 -4.73811913 13.96542549 C-4.747883 12.01416549 -4.74378609 10.06285086 -4.73901367 8.11157227 C-4.74043869 6.99984146 -4.74186371 5.88811066 -4.74333191 4.74269104 C-4.40843277 1.1862867 -3.61586145 0.16975875 0 0 Z " fill="#FDFDFD" transform="translate(93.49609375,94.8828125)"/>
<path d="M0 0 C1.70209877 0.00333092 1.70209877 0.00333092 3.43858337 0.00672913 C4.71983597 0.00680466 6.00108856 0.00688019 7.32116699 0.00695801 C8.73001646 0.01206542 10.13886554 0.01728143 11.54771423 0.02259827 C12.98118033 0.02446249 14.41464706 0.02588637 15.84811401 0.02688599 C19.62765755 0.03071079 23.40716288 0.04054075 27.18669128 0.05158997 C31.04075097 0.06180489 34.8948168 0.06638378 38.74888611 0.07142639 C46.31596085 0.08216306 53.88300407 0.09923903 61.45005798 0.12025452 C62.68190564 2.58394984 62.61738141 4.30970462 62.63755798 7.05775452 C62.65173767 7.93302795 62.66591736 8.80830139 62.68052673 9.71009827 C62.45005798 12.12025452 62.45005798 12.12025452 60.45005798 15.12025452 C57.81782532 15.48101807 57.81782532 15.48101807 54.43980408 15.46083069 C53.17864777 15.4606041 51.91749146 15.4603775 50.61811829 15.46014404 C49.23657378 15.44482296 47.85503286 15.42917495 46.47349548 15.41322327 C45.06388296 15.40762884 43.6542646 15.40335802 42.24464417 15.40036011 C38.53237334 15.38889906 34.82045398 15.35942156 31.10832214 15.32624817 C27.32124079 15.29557412 23.53410272 15.28186051 19.74693298 15.26673889 C12.31448099 15.23455263 4.88231871 15.18334161 -2.54994202 15.12025452 C-3.26455466 10.3901994 -3.74158749 5.91139138 -3.54994202 1.12025452 C-2.54994202 0.12025452 -2.54994202 0.12025452 0 0 Z " fill="#FDFDFD" transform="translate(23.549942016601563,105.87974548339844)"/>
<path d="M0 0 C1.11696762 0.00222061 2.23393524 0.00444122 3.38475037 0.00672913 C4.64598221 0.00680466 5.90721405 0.00688019 7.20666504 0.00695801 C8.59341979 0.01206542 9.98017414 0.01728142 11.3669281 0.02259827 C12.77797394 0.0244625 14.18902042 0.02588638 15.60006714 0.02688599 C19.3204272 0.03071072 23.04074845 0.04054062 26.76109314 0.05158997 C30.55482966 0.06180504 34.34857243 0.06638381 38.14231873 0.07142639 C45.59090416 0.08216294 53.03945758 0.09923882 60.48802185 0.12025452 C61.78892016 2.72205114 61.65642263 4.71717332 61.67552185 7.62025452 C61.68970154 8.59994202 61.70388123 9.57962952 61.7184906 10.58900452 C61.48802185 13.12025452 61.48802185 13.12025452 59.48802185 15.12025452 C56.37824523 15.24826741 53.34572383 15.25182651 50.23802185 15.18275452 C42.34199346 15.08290392 34.47048784 15.14135964 26.5778656 15.37025452 C25.7219986 15.39502365 24.86613159 15.41979279 23.98432922 15.4453125 C20.51276999 15.54807085 17.04136708 15.65418442 13.57017517 15.76872253 C11.10930828 15.8497316 8.64831422 15.92474516 6.1872406 15.99916077 C5.43925705 16.0261908 4.6912735 16.05322083 3.92062378 16.08106995 C-1.28574011 16.23337354 -1.28574011 16.23337354 -3.51197815 15.12025452 C-3.53883227 12.8078166 -3.55830656 10.49529182 -3.57447815 8.18275452 C-3.58607971 6.89498108 -3.59768127 5.60720764 -3.6096344 4.28041077 C-3.48251158 0.16671632 -3.48251158 0.16671632 0 0 Z " fill="#FDFDFD" transform="translate(92.51197814941406,77.87974548339844)"/>
<path d="M0 0 C1.1009903 0.02009628 2.20198059 0.04019257 3.33633423 0.06089783 C5.12543716 0.10145042 5.12543716 0.10145042 6.95068359 0.14282227 C8.16863617 0.16643326 9.38658875 0.19004425 10.64144897 0.21437073 C14.5441209 0.29114476 18.44660122 0.37511009 22.34912109 0.45922852 C24.98973661 0.51243543 27.63036158 0.56517591 30.27099609 0.61743164 C36.7554905 0.74677848 43.23984179 0.88203498 49.72412109 1.02172852 C51.02872023 3.63092679 50.8567805 5.61115466 50.84912109 8.52172852 C50.85298828 9.99125977 50.85298828 9.99125977 50.85693359 11.49047852 C50.72412109 14.02172852 50.72412109 14.02172852 49.72412109 16.02172852 C42.43990561 16.04485767 35.155698 16.06264653 27.87145329 16.07354069 C24.48940297 16.07876826 21.1073777 16.08586362 17.7253418 16.09716797 C13.84082332 16.11007118 9.95631513 16.11495775 6.07177734 16.11938477 C4.85200699 16.12454605 3.63223663 16.12970734 2.37550354 16.13502502 C0.69387367 16.13513832 0.69387367 16.13513832 -1.02172852 16.13525391 C-2.01434189 16.13747452 -3.00695526 16.13969513 -4.02964783 16.14198303 C-6.27587891 16.02172852 -6.27587891 16.02172852 -7.27587891 15.02172852 C-7.34859632 12.66859297 -7.35958758 10.31339183 -7.33837891 7.95922852 C-7.32935547 6.66887695 -7.32033203 5.37852539 -7.31103516 4.04907227 C-7.29943359 3.05004883 -7.28783203 2.05102539 -7.27587891 1.02172852 C-4.68737974 -0.27252107 -2.8965719 -0.0595186 0 0 Z " fill="#FDFDFD" transform="translate(96.27587890625,57.978271484375)"/>
<path d="M0 0 C1.08410156 0.00257812 2.16820312 0.00515625 3.28515625 0.0078125 C4.90744141 0.00394531 4.90744141 0.00394531 6.5625 0 C9.34765625 0.1328125 9.34765625 0.1328125 11.34765625 1.1328125 C13.02929551 48.32157809 13.02929551 48.32157809 11.34765625 54.1328125 C8.73845797 55.43741164 6.7582301 55.2654719 3.84765625 55.2578125 C2.86796875 55.26039062 1.88828125 55.26296875 0.87890625 55.265625 C-1.65234375 55.1328125 -1.65234375 55.1328125 -3.65234375 54.1328125 C-3.67761023 46.60311598 -3.69517516 39.0734303 -3.70727539 31.54370117 C-3.71231745 28.97989493 -3.71915089 26.41609159 -3.7277832 23.85229492 C-3.73985439 20.17626229 -3.74557317 16.50026752 -3.75 12.82421875 C-3.75516129 11.67006973 -3.76032257 10.51592072 -3.76564026 9.32679749 C-3.76571579 8.26577316 -3.76579132 7.20474884 -3.76586914 6.11157227 C-3.76808975 5.17225357 -3.77031036 4.23293488 -3.77259827 3.26515198 C-3.59247921 0.07130134 -3.22443757 0.16145932 0 0 Z " fill="#FDFDFD" transform="translate(54.65234375,26.8671875)"/>
<path d="M0 0 C2.46411133 0.08789062 2.46411133 0.08789062 4.31958008 1.27539062 C5.82856433 3.66504486 5.83099799 5.27651877 5.77661133 8.08789062 C5.77274414 8.95414063 5.76887695 9.82039062 5.76489258 10.71289062 C5.46411133 13.08789062 5.46411133 13.08789062 3.46411133 16.08789062 C1.30090332 16.46211243 1.30090332 16.46211243 -1.4128418 16.46020508 C-2.4272937 16.46643387 -3.44174561 16.47266266 -4.48693848 16.4790802 C-6.13538757 16.46526558 -6.13538757 16.46526558 -7.81713867 16.45117188 C-8.94156372 16.45167038 -10.06598877 16.45216888 -11.2244873 16.4526825 C-13.60516118 16.45033882 -15.98583738 16.44059319 -18.36645508 16.42407227 C-22.02081341 16.40048792 -25.67444241 16.40350828 -29.32885742 16.41015625 C-31.63745554 16.40457959 -33.94605058 16.39746978 -36.25463867 16.38867188 C-37.35360474 16.38958328 -38.4525708 16.39049469 -39.58483887 16.39143372 C-40.59929077 16.3819017 -41.61374268 16.37236969 -42.65893555 16.36254883 C-44.00223938 16.35563774 -44.00223938 16.35563774 -45.37268066 16.34858704 C-47.53588867 16.08789062 -47.53588867 16.08789062 -49.53588867 14.08789062 C-49.76635742 11.55664062 -49.76635742 11.55664062 -49.72338867 8.58789062 C-49.71694336 7.60820312 -49.71049805 6.62851563 -49.70385742 5.61914062 C-49.53588867 3.08789062 -49.53588867 3.08789062 -48.53588867 1.08789062 C-42.23708173 0.94452901 -35.93825154 0.80222413 -29.6394043 0.66064453 C-27.49779727 0.61238388 -25.35619562 0.56388371 -23.21459961 0.51513672 C-20.13160574 0.44500362 -17.04859337 0.37573944 -13.96557617 0.30664062 C-13.01222382 0.28476685 -12.05887146 0.26289307 -11.07662964 0.24035645 C-9.32173826 0.20133923 -7.56678913 0.16479907 -5.81178284 0.13134766 C-3.87438036 0.09435395 -1.93715728 0.04815139 0 0 Z " fill="#FDFDFD" transform="translate(80.535888671875,124.912109375)"/>
<path d="M0 0 C0.88042969 0.00644531 1.76085937 0.01289062 2.66796875 0.01953125 C4.8125 0.1875 4.8125 0.1875 5.8125 1.1875 C5.9053726 2.59975046 5.92996772 4.01658934 5.92602539 5.43188477 C5.92594986 6.33274307 5.92587433 7.23360138 5.92579651 8.16175842 C5.92063522 9.14091721 5.91547394 10.12007599 5.91015625 11.12890625 C5.9087413 12.12631332 5.90732635 13.1237204 5.90586853 14.15135193 C5.90025114 17.35093124 5.88769571 20.55044169 5.875 23.75 C5.86998724 25.91341045 5.86542395 28.07682199 5.86132812 30.24023438 C5.85027606 35.55601629 5.83299979 40.87174646 5.8125 46.1875 C0.8625 46.1875 -4.0875 46.1875 -9.1875 46.1875 C-9.1875 31.6675 -9.1875 17.1475 -9.1875 2.1875 C-5.36447889 0.27598944 -4.05366705 -0.0658646 0 0 Z " fill="#FDFDFD" transform="translate(117.1875,95.8125)"/>
<path d="M0 0 C1.79244141 0.01740234 1.79244141 0.01740234 3.62109375 0.03515625 C5.41740234 0.04869141 5.41740234 0.04869141 7.25 0.0625 C8.17683594 0.07410156 9.10367188 0.08570313 10.05859375 0.09765625 C11.76386023 3.50818921 11.22180137 7.40368546 11.2265625 11.15625 C11.2298909 12.05634293 11.2332193 12.95643585 11.23664856 13.88380432 C11.2417162 15.78947437 11.24405694 17.6951533 11.24389648 19.60083008 C11.24608228 22.51984241 11.26423774 25.43847649 11.28320312 28.35742188 C11.28613718 30.20702995 11.2881219 32.05663983 11.2890625 33.90625 C11.29624802 34.78131699 11.30343353 35.65638397 11.31083679 36.55796814 C11.30776016 37.37213699 11.30468353 38.18630585 11.30151367 39.02514648 C11.30293869 39.74081284 11.30436371 40.45647919 11.30583191 41.1938324 C11.05859375 43.09765625 11.05859375 43.09765625 9.05859375 46.09765625 C6.78125 46.49609375 6.78125 46.49609375 4.12109375 46.47265625 C2.80818359 46.48425781 2.80818359 46.48425781 1.46875 46.49609375 C-1.43093751 46.01672888 -2.14354815 45.37355916 -3.94140625 43.09765625 C-4.30889893 41.1491394 -4.30889893 41.1491394 -4.29785156 38.91748047 C-4.30085266 38.08006317 -4.30385376 37.24264587 -4.3069458 36.37985229 C-4.294599 35.47977448 -4.2822522 34.57969666 -4.26953125 33.65234375 C-4.26765808 32.72672638 -4.26578491 31.80110901 -4.26385498 30.84744263 C-4.25713429 28.89223627 -4.24321944 26.93704336 -4.22265625 24.98193359 C-4.19145565 21.97741306 -4.18168143 18.97341658 -4.17578125 15.96875 C-4.16661332 14.07160814 -4.15623821 12.17447164 -4.14453125 10.27734375 C-4.14028137 9.37321747 -4.13603149 8.46909119 -4.13165283 7.53756714 C-4.04607252 0.13433176 -4.04607252 0.13433176 0 0 Z " fill="#FDFDFD" transform="translate(34.94140625,35.90234375)"/>
<path d="M0 0 C0.77943466 0.00222061 1.55886932 0.00444122 2.36192322 0.00672913 C3.68317955 0.00684242 3.68317955 0.00684242 5.03112793 0.00695801 C5.98841293 0.01211929 6.94569794 0.01728058 7.93199158 0.02259827 C9.39480812 0.02472069 9.39480812 0.02472069 10.88717651 0.02688599 C14.01542675 0.03250319 17.14360656 0.04505859 20.27183533 0.05775452 C22.38706867 0.0627673 24.50230313 0.06733059 26.61753845 0.07142639 C31.81482829 0.0824782 37.01207678 0.09923305 42.20933533 0.12025452 C42.23618944 2.43269244 42.25566374 4.74521722 42.27183533 7.05775452 C42.28343689 8.34552795 42.29503845 9.63330139 42.30699158 10.96009827 C42.20933533 14.12025452 42.20933533 14.12025452 41.20933533 15.12025452 C39.86389206 15.21810793 38.5134097 15.24823437 37.16441345 15.24964905 C36.30682434 15.25280121 35.44923523 15.25595337 34.56565857 15.25920105 C33.6333844 15.25717682 32.70111023 15.25515259 31.74058533 15.25306702 C30.31462036 15.25450211 30.31462036 15.25450211 28.85984802 15.25596619 C26.8456465 15.25664808 24.8314428 15.25479314 22.81724548 15.25062561 C19.72263178 15.2452775 16.62816323 15.25057029 13.53355408 15.25697327 C11.58173084 15.25631249 9.62990769 15.25503133 7.67808533 15.25306702 C6.27967407 15.25610336 6.27967407 15.25610336 4.85301208 15.25920105 C3.99542297 15.25604889 3.13783386 15.25289673 2.2542572 15.24964905 C1.49560364 15.24885345 0.73695007 15.24805786 -0.04469299 15.24723816 C-1.79066467 15.12025452 -1.79066467 15.12025452 -2.79066467 14.12025452 C-2.88959407 11.95544655 -2.92037568 9.78731667 -2.91566467 7.62025452 C-2.9182428 6.43431702 -2.92082092 5.24837952 -2.92347717 4.02650452 C-2.74790349 0.18453919 -2.74790349 0.18453919 0 0 Z " fill="#FCFCFC" transform="translate(91.79066467285156,38.87974548339844)"/>
<path d="M0 0 C1.93166016 0.01740234 1.93166016 0.01740234 3.90234375 0.03515625 C5.19269531 0.04417969 6.48304688 0.05320312 7.8125 0.0625 C8.81152344 0.07410156 9.81054688 0.08570312 10.83984375 0.09765625 C11.40234375 2.03515625 11.40234375 2.03515625 11.83984375 4.09765625 C10.25711774 5.68038226 8.45950372 5.44501372 6.27734375 5.66015625 C5.45105469 5.74394531 4.62476563 5.82773438 3.7734375 5.9140625 C2.81630859 6.00494141 2.81630859 6.00494141 1.83984375 6.09765625 C1.83984375 6.75765625 1.83984375 7.41765625 1.83984375 8.09765625 C4.47984375 7.76765625 7.11984375 7.43765625 9.83984375 7.09765625 C10.46484375 8.97265625 10.46484375 8.97265625 10.83984375 11.09765625 C8.83984375 13.09765625 8.83984375 13.09765625 5.21484375 13.22265625 C4.10109375 13.18140625 2.98734375 13.14015625 1.83984375 13.09765625 C1.83984375 14.08765625 1.83984375 15.07765625 1.83984375 16.09765625 C6.12984375 16.09765625 10.41984375 16.09765625 14.83984375 16.09765625 C14.83984375 11.14765625 14.83984375 6.19765625 14.83984375 1.09765625 C16.15984375 0.76765625 17.47984375 0.43765625 18.83984375 0.09765625 C21.58984375 2.41015625 21.58984375 2.41015625 23.83984375 5.09765625 C23.83984375 5.75765625 23.83984375 6.41765625 23.83984375 7.09765625 C25.15984375 7.42765625 26.47984375 7.75765625 27.83984375 8.09765625 C27.83984375 5.78765625 27.83984375 3.47765625 27.83984375 1.09765625 C29.77734375 0.53515625 29.77734375 0.53515625 31.83984375 0.09765625 C33.55801213 1.81582463 32.9720312 3.98513239 32.9765625 6.2734375 C32.97269531 6.95792969 32.96882813 7.64242187 32.96484375 8.34765625 C32.97064453 9.35119141 32.97064453 9.35119141 32.9765625 10.375 C32.96929198 14.07569255 32.71827876 17.50025572 31.83984375 21.09765625 C30.51984375 21.09765625 29.19984375 21.09765625 27.83984375 21.09765625 C25.91796875 19.12890625 25.91796875 19.12890625 24.08984375 16.59765625 C23.16945313 15.3446875 23.16945313 15.3446875 22.23046875 14.06640625 C21.7715625 13.41671875 21.31265625 12.76703125 20.83984375 12.09765625 C20.50984375 14.73765625 20.17984375 17.37765625 19.83984375 20.09765625 C16.74446214 21.09260034 14.941565 20.95330349 11.83984375 20.09765625 C11.50984375 20.42765625 11.17984375 20.75765625 10.83984375 21.09765625 C8.5082432 21.19674927 6.17354433 21.22736129 3.83984375 21.22265625 C2.56109375 21.22523437 1.28234375 21.2278125 -0.03515625 21.23046875 C-3.16015625 21.09765625 -3.16015625 21.09765625 -4.16015625 20.09765625 C-5.18320694 13.62970244 -5.3519223 7.53319294 -4.16015625 1.09765625 C-3.16015625 0.09765625 -3.16015625 0.09765625 0 0 Z " fill="#FDFDFD" transform="translate(357.16015625,97.90234375)"/>
<path d="M0 0 C1.45185485 0.00667827 2.90369244 0.01864436 4.35546875 0.03515625 C5.08056641 0.03966797 5.80566406 0.04417969 6.55273438 0.04882812 C8.54950455 0.06161622 10.54624063 0.079449 12.54296875 0.09765625 C13.86296875 0.09765625 15.18296875 0.09765625 16.54296875 0.09765625 C18.98046875 0.09765625 18.98046875 0.09765625 21.54296875 1.09765625 C23.49120378 3.61545725 25.04234845 6.29436982 26.54296875 9.09765625 C28.25842672 6.89206743 29.66305301 4.85748772 30.91796875 2.34765625 C31.45421875 1.60515625 31.99046875 0.86265625 32.54296875 0.09765625 C35.23046875 -0.21484375 35.23046875 -0.21484375 37.54296875 0.09765625 C39.42365943 6.53241608 40.09058289 12.49533465 38.54296875 19.09765625 C37.88296875 19.75765625 37.22296875 20.41765625 36.54296875 21.09765625 C35.55296875 21.09765625 34.56296875 21.09765625 33.54296875 21.09765625 C32.88296875 18.78765625 32.22296875 16.47765625 31.54296875 14.09765625 C31.27484375 14.73703125 31.00671875 15.37640625 30.73046875 16.03515625 C29.54296875 18.09765625 29.54296875 18.09765625 26.54296875 19.09765625 C24.35546875 17.66015625 24.35546875 17.66015625 22.54296875 16.09765625 C21.89328125 17.33515625 21.89328125 17.33515625 21.23046875 18.59765625 C20.67359375 19.42265625 20.11671875 20.24765625 19.54296875 21.09765625 C18.55296875 21.09765625 17.56296875 21.09765625 16.54296875 21.09765625 C14.94884591 17.90941057 15.4412214 14.46868963 15.48046875 10.97265625 C15.48498047 10.21855469 15.48949219 9.46445313 15.49414062 8.6875 C15.50593376 6.82418498 15.52386933 4.9609107 15.54296875 3.09765625 C12.90296875 4.08765625 10.26296875 5.07765625 7.54296875 6.09765625 C7.55457031 7.01289062 7.56617188 7.928125 7.578125 8.87109375 C7.58714844 10.05960938 7.59617187 11.248125 7.60546875 12.47265625 C7.61707031 13.65601562 7.62867188 14.839375 7.640625 16.05859375 C7.54296875 19.09765625 7.54296875 19.09765625 6.54296875 21.09765625 C5.22296875 21.09765625 3.90296875 21.09765625 2.54296875 21.09765625 C1.60693455 17.30498433 1.56020623 14.1609106 1.98046875 10.28515625 C2.08230469 9.30933594 2.18414062 8.33351563 2.2890625 7.328125 C2.41474609 6.22404297 2.41474609 6.22404297 2.54296875 5.09765625 C0.56296875 5.09765625 -1.41703125 5.09765625 -3.45703125 5.09765625 C-4.01953125 3.16015625 -4.01953125 3.16015625 -4.45703125 1.09765625 C-3.45703125 0.09765625 -3.45703125 0.09765625 0 0 Z " fill="#FDFDFD" transform="translate(311.45703125,97.90234375)"/>
<path d="M0 0 C2.57037053 0.30113128 3.76595201 0.77155125 5.6328125 2.59375 C6.37144531 3.53734375 6.37144531 3.53734375 7.125 4.5 C9.19887681 7.1880384 9.19887681 7.1880384 12 9 C12 6.36 12 3.72 12 1 C13.9375 0.4375 13.9375 0.4375 16 0 C17.86715507 1.86715507 17.13245683 4.50393825 17.13671875 6.984375 C17.13285156 7.77328125 17.12898438 8.5621875 17.125 9.375 C17.13080078 10.54675781 17.13080078 10.54675781 17.13671875 11.7421875 C17.13100915 15.0765946 17.06131005 17.81606986 16 21 C13.8125 20.9375 13.8125 20.9375 11 20 C9.51728618 18.28561215 8.31959171 16.51127281 7.11328125 14.59375 C6.07639069 12.83938228 6.07639069 12.83938228 4 12 C4 14.64 4 17.28 4 20 C2.68 20.33 1.36 20.66 0 21 C-1.13945516 18.72108967 -1.12894214 17.43217896 -1.1328125 14.90234375 C-1.13410156 14.10119141 -1.13539063 13.30003906 -1.13671875 12.47460938 C-1.13285156 11.63736328 -1.12898437 10.80011719 -1.125 9.9375 C-1.12886719 9.09638672 -1.13273438 8.25527344 -1.13671875 7.38867188 C-1.12662682 1.12662682 -1.12662682 1.12662682 0 0 Z " fill="#FDFDFD" transform="translate(228,98)"/>
<path d="M0 0 C1.796875 1.3984375 1.796875 1.3984375 3 3 C2.6875 5.0625 2.6875 5.0625 2 7 C1.83142683 9.06259518 1.83142683 9.06259518 3.0625 10.8125 C4.28519478 13.66545449 3.97211664 15.08365008 3 18 C1.38648527 20.05266705 0.49649772 20.89679542 -2.0859375 21.43359375 C-6.30591405 21.44079508 -8.43056587 21.37187535 -12.0625 19 C-12.701875 18.34 -13.34125 17.68 -14 17 C-13.649375 16.154375 -13.29875 15.30875 -12.9375 14.4375 C-11.73779002 10.99372882 -11.73779002 10.99372882 -12.625 7.375 C-13 4 -13 4 -11.625 1.5625 C-7.89996069 -0.6547853 -4.24076104 -0.8668959 0 0 Z M-7 5 C-6.67 5.99 -6.34 6.98 -6 8 C-4.68 7.67 -3.36 7.34 -2 7 C-2 6.34 -2 5.68 -2 5 C-3.65 5 -5.3 5 -7 5 Z M-8 13 C-7.67 13.99 -7.34 14.98 -7 16 C-5.35 16 -3.7 16 -2 16 C-2.33 15.01 -2.66 14.02 -3 13 C-4.65 13 -6.3 13 -8 13 Z " fill="#FDFDFD" transform="translate(301,98)"/>
<path d="M0 0 C0.7734375 -0.00773437 1.546875 -0.01546875 2.34375 -0.0234375 C4.98821474 0.46521359 5.92457739 1.22106155 7.5 3.375 C7.19972883 5.04793936 6.86442233 6.71485384 6.5 8.375 C6.995 9.303125 6.995 9.303125 7.5 10.25 C9.03530957 13.51253284 8.32430001 15.95098459 7.5 19.375 C4.377998 21.45633467 3.56733011 21.6487822 0 21.625 C-1.16015625 21.63273437 -1.16015625 21.63273437 -2.34375 21.640625 C-4.5 21.375 -4.5 21.375 -7.5 19.375 C-7.6875 16.75 -7.6875 16.75 -7.5 14.375 C-6.18 14.045 -4.86 13.715 -3.5 13.375 C-3.17 14.035 -2.84 14.695 -2.5 15.375 C0.52934491 16.03272428 0.52934491 16.03272428 3.5 16.375 C2.69314018 14.18417051 2.69314018 14.18417051 0.50390625 13.6640625 C-1.11995947 13.22237102 -2.74496514 12.78484877 -4.37109375 12.3515625 C-6.5 11.375 -6.5 11.375 -7.796875 9.40234375 C-8.66752225 6.89197752 -8.52235395 5.81292095 -7.5 3.375 C-5.19364198 0.47253714 -3.67313074 -0.03673131 0 0 Z M-2.5 5.375 C-2.17 6.365 -1.84 7.355 -1.5 8.375 C-0.18 8.045 1.14 7.715 2.5 7.375 C2.5 6.715 2.5 6.055 2.5 5.375 C0.85 5.375 -0.8 5.375 -2.5 5.375 Z " fill="#FDFDFD" transform="translate(420.5,97.625)"/>
<path d="M0 0 C4.62 0 9.24 0 14 0 C14.33 1.32 14.66 2.64 15 4 C14 5 14 5 11.93359375 5.09765625 C11.10988281 5.08605469 10.28617187 5.07445313 9.4375 5.0625 C8.61121094 5.05347656 7.78492188 5.04445313 6.93359375 5.03515625 C6.29550781 5.02355469 5.65742188 5.01195313 5 5 C5 5.99 5 6.98 5 8 C8.465 7.505 8.465 7.505 12 7 C13.0625 8.875 13.0625 8.875 14 11 C13.67 11.66 13.34 12.32 13 13 C10.36 13 7.72 13 5 13 C5 13.99 5 14.98 5 16 C8.3 16 11.6 16 15 16 C14.67 17.65 14.34 19.3 14 21 C9.38 21 4.76 21 0 21 C-0.19569589 18.43788925 -0.38180612 15.87567609 -0.5625 13.3125 C-0.61857422 12.59126953 -0.67464844 11.87003906 -0.73242188 11.12695312 C-1.01010341 7.07280277 -0.80975794 4.0487897 0 0 Z " fill="#FDFDFD" transform="translate(271,98)"/>
<path d="M0 0 C2.25 -0.0625 2.25 -0.0625 5 1 C6.69300427 3.86674844 7.86963623 6.87413371 9 10 C10.47225301 7.79162049 11.82100438 5.6162256 13.125 3.3125 C13.74375 2.219375 14.3625 1.12625 15 0 C17.475 0.495 17.475 0.495 20 1 C18.54884678 5.57888152 16.79418096 9.97649435 14.875 14.375 C14.59785156 15.01566406 14.32070313 15.65632813 14.03515625 16.31640625 C13.35899615 17.87856925 12.67981293 19.43942315 12 21 C9.73828125 20.953125 9.73828125 20.953125 7 20 C5.45000465 17.54159344 4.31362781 15.39006122 3.1875 12.75 C2.87619141 12.08097656 2.56488281 11.41195312 2.24414062 10.72265625 C0.59514484 7.03325469 -0.40037127 4.05081516 0 0 Z " fill="#FCFCFC" transform="translate(248,98)"/>
<path d="M0 0 C1.48831242 0.00667405 2.97660807 0.01863442 4.46484375 0.03515625 C5.22345703 0.03966797 5.98207031 0.04417969 6.76367188 0.04882812 C8.64326246 0.06064945 10.52281274 0.07858547 12.40234375 0.09765625 C12.96484375 2.03515625 12.96484375 2.03515625 13.40234375 4.09765625 C12.40234375 5.09765625 12.40234375 5.09765625 9.83984375 5.16015625 C8.63328125 5.12921875 8.63328125 5.12921875 7.40234375 5.09765625 C7.41394531 5.9175 7.42554688 6.73734375 7.4375 7.58203125 C7.44652344 8.6596875 7.45554687 9.73734375 7.46484375 10.84765625 C7.47644531 11.915 7.48804688 12.98234375 7.5 14.08203125 C7.41744462 16.63134126 7.14851933 18.67699216 6.40234375 21.09765625 C5.08234375 20.76765625 3.76234375 20.43765625 2.40234375 20.09765625 C2.40234375 15.14765625 2.40234375 10.19765625 2.40234375 5.09765625 C0.42234375 5.09765625 -1.55765625 5.09765625 -3.59765625 5.09765625 C-4.16015625 3.16015625 -4.16015625 3.16015625 -4.59765625 1.09765625 C-3.59765625 0.09765625 -3.59765625 0.09765625 0 0 Z " fill="#FDFDFD" transform="translate(397.59765625,97.90234375)"/>
<path d="M0 0 C14.19 0 28.38 0 43 0 C43 0.99 43 1.98 43 3 C38.15667095 3.96799592 33.45861984 4.13122086 28.5390625 4.09765625 C27.74849457 4.0962413 26.95792664 4.09482635 26.1434021 4.09336853 C23.63722834 4.08780504 21.13114642 4.07525944 18.625 4.0625 C16.91797005 4.05748028 15.21093868 4.0529182 13.50390625 4.04882812 C9.33590252 4.03784759 5.16796679 4.02060839 1 4 C0.67 2.68 0.34 1.36 0 0 Z " fill="#FCFCFC" transform="translate(436,106)"/>
<path d="M0 0 C13.53 0 27.06 0 41 0 C41 0.99 41 1.98 41 3 C36.29796986 3.92947107 31.75187765 4.13223651 26.9765625 4.09765625 C26.23038666 4.0962413 25.48421082 4.09482635 24.71542358 4.09336853 C22.35190682 4.08780874 19.98848773 4.07526389 17.625 4.0625 C16.01432429 4.0574798 14.40364709 4.0529178 12.79296875 4.04882812 C8.86194201 4.03785251 4.93098752 4.02061596 1 4 C0.67 2.68 0.34 1.36 0 0 Z " fill="#FCFCFC" transform="translate(169,106)"/>
<path d="M0 0 C1.32 0 2.64 0 4 0 C5.64072259 3.28144519 5.14274434 6.89789996 5.125 10.5 C5.12886719 11.28503906 5.13273438 12.07007812 5.13671875 12.87890625 C5.12665394 18.74669213 5.12665394 18.74669213 4 21 C2.68 21 1.36 21 0 21 C-1.64072259 17.71855481 -1.14274434 14.10210004 -1.125 10.5 C-1.12886719 9.71496094 -1.13273438 8.92992188 -1.13671875 8.12109375 C-1.12665394 2.25330787 -1.12665394 2.25330787 0 0 Z " fill="#FDFDFD" transform="translate(218,98)"/>
</svg>
