<?xml version="1.0" encoding="UTF-8"?>
<svg version="1.1" xmlns="http://www.w3.org/2000/svg" width="345" height="142">
<path d="M0 0 C3 0.25 3 0.25 5 2.25 C5.24723816 4.29931641 5.24723816 4.29931641 5.24291992 6.8515625 C5.24753487 8.28314697 5.24753487 8.28314697 5.25224304 9.74365234 C5.24505753 10.77699707 5.23787201 11.8103418 5.23046875 12.875 C5.23001053 13.93283691 5.22955231 14.99067383 5.2290802 16.08056641 C5.22605545 18.31999837 5.21816254 20.55942818 5.20581055 22.79882812 C5.18757559 26.23575251 5.18530067 29.67240734 5.18554688 33.109375 C5.180631 35.28125234 5.17480237 37.45312785 5.16796875 39.625 C5.16685593 40.65834473 5.1657431 41.69168945 5.16459656 42.75634766 C5.15821671 43.7107373 5.15183685 44.66512695 5.14526367 45.6484375 C5.13954597 46.91179932 5.13954597 46.91179932 5.13371277 48.20068359 C5 50.25 5 50.25 4 52.25 C1.36 52.25 -1.28 52.25 -4 52.25 C-4 51.59 -4 50.93 -4 50.25 C-4.928125 50.745 -5.85625 51.24 -6.8125 51.75 C-12.76993211 54.29280639 -19.2091188 54.14518831 -25.3125 52.1875 C-30.62849582 48.35503789 -34.73628625 43.82131152 -36 37.25 C-36.56259253 30.60117924 -36.62718105 24.06621663 -33 18.25 C-29.10969249 13.9370418 -24.83247762 10.64921642 -18.9375 10.03515625 C-13.51328237 9.80609301 -9.81788532 10.78980324 -5 13.25 C-5.02320313 12.47914062 -5.04640625 11.70828125 -5.0703125 10.9140625 C-5.08835938 9.91117188 -5.10640625 8.90828125 -5.125 7.875 C-5.14820313 6.87726562 -5.17140625 5.87953125 -5.1953125 4.8515625 C-4.90172037 0.94091533 -3.83781157 0.31981763 0 0 Z M-23 22.25 C-25.89550431 26.64317896 -26.55878366 30.03468583 -26 35.25 C-24.43722469 39.31321581 -22.96623493 42.26688254 -19 44.25 C-13.97698803 44.79796494 -11.05853817 44.26491407 -7 41.25 C-4.16417185 38.41417185 -4.63289344 36.39195524 -4.5625 32.4375 C-4.45644646 26.63405389 -4.45644646 26.63405389 -7.375 21.9375 C-12.90403388 18.38312108 -17.65727337 17.91805949 -23 22.25 Z " fill="#363540" transform="translate(143,32.75)"/>
<path d="M0 0 C4.59149401 3.86102905 7.65409591 7.65468102 8.28515625 13.7578125 C8.45132743 19.2920354 8.45132743 19.2920354 8 22 C4.51321064 24.32452624 2.93032429 24.29773734 -1.19921875 24.4140625 C-2.40771484 24.45273438 -3.61621094 24.49140625 -4.86132812 24.53125 C-6.7552832 24.57765625 -6.7552832 24.57765625 -8.6875 24.625 C-10.59885742 24.68300781 -10.59885742 24.68300781 -12.54882812 24.7421875 C-15.69907292 24.83657686 -18.84930991 24.9221583 -22 25 C-20.7876874 28.06131803 -20.7876874 28.06131803 -18.15234375 29.734375 C-11.69112444 30.53176686 -7.61341099 30.48941764 -2 27 C1.3125 27.3125 1.3125 27.3125 4 28 C4.8125 30.1875 4.8125 30.1875 5 33 C2.08011861 36.69279117 -0.56452859 38.57249196 -5 40 C-12.17392772 40.69923093 -18.74362131 40.77989546 -25 37 C-29.7526333 33.00346745 -32.63037058 28.87045552 -33.43359375 22.6328125 C-33.44251575 14.62085512 -33.15727414 8.54263943 -27.609375 2.48046875 C-19.88217695 -4.57568315 -8.90794843 -5.06530401 0 0 Z M-20 9 C-22.12276819 11.74881327 -22.12276819 11.74881327 -23 15 C-15.74 15 -8.48 15 -1 15 C-2.98181113 10.04547219 -3.60796484 8.6352211 -8 6 C-12.96726332 5.37909208 -16.07857948 5.84107792 -20 9 Z " fill="#353540" transform="translate(187,46)"/>
<path d="M0 0 C3.60104961 1.31745717 6.61683339 0.61418565 10.35546875 0.03125 C11.08378906 0.0003125 11.81210937 -0.030625 12.5625 -0.0625 C15.136825 2.511825 14.81025746 4.24462646 14.84039307 7.75402832 C14.8363446 8.54676147 14.83229614 9.33949463 14.828125 10.15625 C14.83099518 11.37677063 14.83099518 11.37677063 14.83392334 12.62194824 C14.83528527 14.343509 14.83158828 16.06508003 14.82324219 17.78662109 C14.81254258 20.4269917 14.823137 23.06668189 14.8359375 25.70703125 C14.83461591 27.37760567 14.83205352 29.04817967 14.828125 30.71875 C14.83217346 31.51148315 14.83622192 32.30421631 14.84039307 33.12097168 C14.79242027 38.70757973 14.79242027 38.70757973 12.5625 40.9375 C6.23991935 41.27620968 6.23991935 41.27620968 3.5625 39.9375 C2.81742187 40.23914063 2.07234375 40.54078125 1.3046875 40.8515625 C-3.91299418 42.91782391 -10.28935825 42.97381001 -15.6328125 41.21484375 C-20.43565571 38.64708991 -23.3361809 35.19520415 -25.6875 30.375 C-27.35691011 22.72353701 -27.79188457 13.78228698 -23.4375 6.9375 C-17.38911015 0.24693542 -8.85069941 -3.85799718 0 0 Z M-14.4375 11.9375 C-16.88510109 15.94266542 -17.04099615 20.36021379 -16.4375 24.9375 C-14.81814157 28.58105647 -12.98737274 31.06395605 -9.4375 32.9375 C-4.41448803 33.48546494 -1.49603817 32.95241407 2.5625 29.9375 C5.39832815 27.10167185 4.92960656 25.07945524 5 21.125 C4.9108452 15.57156247 4.9108452 15.57156247 2.5625 10.625 C-3.8886977 6.9962013 -8.69540639 6.74227245 -14.4375 11.9375 Z " fill="#353540" transform="translate(267.4375,44.0625)"/>
<path d="M0 0 C3 0.25 3 0.25 5 2.25 C5.28710938 4.70849609 5.28710938 4.70849609 5.34375 7.7734375 C5.37339844 8.876875 5.40304688 9.9803125 5.43359375 11.1171875 C5.45550781 12.27476563 5.47742188 13.43234375 5.5 14.625 C5.54343056 16.90382718 5.59517341 19.18251498 5.65625 21.4609375 C5.67494141 22.47462402 5.69363281 23.48831055 5.71289062 24.53271484 C6.00343864 27.28254429 6.50275814 28.94252505 8 31.25 C11.06429776 32.78214888 13.6165642 32.47938548 17 32.25 C20.64049872 30.84344367 21.74566925 29.72153292 23.60546875 26.2734375 C25.51464591 21.5973457 25.48627154 16.92864897 25.5625 11.9375 C25.59685912 10.14955339 25.63942018 8.36173968 25.69140625 6.57421875 C25.70373291 5.79135498 25.71605957 5.00849121 25.72875977 4.2019043 C26 2.25 26 2.25 28 0.25 C31 -0.0625 31 -0.0625 34 0.25 C36.50822042 4.01233063 36.28865784 6.99138367 36.265625 11.34765625 C36.26849518 12.53276039 36.26849518 12.53276039 36.27142334 13.74180603 C36.27278333 15.41031208 36.26909988 17.07882878 36.26074219 18.74731445 C36.25002558 21.3063928 36.26065082 23.86477142 36.2734375 26.42382812 C36.27211615 28.04427239 36.26955427 29.66471621 36.265625 31.28515625 C36.26967346 32.05287857 36.27372192 32.82060089 36.27789307 33.61158752 C36.22993107 39.02006893 36.22993107 39.02006893 34 41.25 C30.5 41.5 30.5 41.5 27 41.25 C26.34 40.59 25.68 39.93 25 39.25 C24.2575 39.745 23.515 40.24 22.75 40.75 C17.82494216 43.21252892 12.35077385 42.78654738 7 42.25 C2.22766425 40.63081466 -0.25888217 38.4595738 -3 34.25 C-4.64865817 30.05542466 -5.25592129 26.54246589 -5.265625 22.046875 C-5.26820312 20.9021875 -5.27078125 19.7575 -5.2734375 18.578125 C-5.26570313 17.39734375 -5.25796875 16.2165625 -5.25 15 C-5.25773437 13.80375 -5.26546875 12.6075 -5.2734375 11.375 C-5.27085938 10.23546875 -5.26828125 9.0959375 -5.265625 7.921875 C-5.26336914 6.8812793 -5.26111328 5.84068359 -5.25878906 4.76855469 C-4.86366618 0.92318901 -3.78195403 0.31516284 0 0 Z " fill="#363540" transform="translate(66,43.75)"/>
<path d="M0 0 C0.94875 0.04125 1.8975 0.0825 2.875 0.125 C4.48020934 3.16611749 6.08397836 6.20799233 7.6875 9.25 C8.13931641 10.1059375 8.59113281 10.961875 9.05664062 11.84375 C11.37749765 16.24829618 13.67192907 20.66030477 15.875 25.125 C16.15698242 24.58085449 16.43896484 24.03670898 16.72949219 23.47607422 C18.02442954 20.98217972 19.32466792 18.49108561 20.625 16 C21.0684375 15.1440625 21.511875 14.288125 21.96875 13.40625 C26.95719579 3.86951541 26.95719579 3.86951541 29.875 0.125 C33.125 -0.25 33.125 -0.25 35.875 0.125 C37.34152845 2.97706142 38.06040607 4.4424145 37.20336914 7.59765625 C36.77660889 8.45230469 36.34984863 9.30695312 35.91015625 10.1875 C35.20898682 11.62198486 35.20898682 11.62198486 34.49365234 13.08544922 C33.98012207 14.08850098 33.4665918 15.09155273 32.9375 16.125 C32.42912598 17.14996582 31.92075195 18.17493164 31.39697266 19.23095703 C29.91174569 22.20752688 28.40064188 25.16897178 26.875 28.125 C26.28066162 29.27693848 26.28066162 29.27693848 25.67431641 30.45214844 C20.39242519 40.60757481 20.39242519 40.60757481 18.875 42.125 C16.125 42.6875 16.125 42.6875 12.875 42.125 C8.19984819 35.52525739 4.69885611 28.20784969 1.0625 21 C0.46501953 19.84628906 -0.13246094 18.69257812 -0.74804688 17.50390625 C-1.31201172 16.38628906 -1.87597656 15.26867187 -2.45703125 14.1171875 C-2.96983643 13.11026855 -3.4826416 12.10334961 -4.01098633 11.06591797 C-5.23566933 7.83284074 -5.48862301 5.55309775 -5.125 2.125 C-3.125 0.125 -3.125 0.125 0 0 Z " fill="#34343F" transform="translate(203.125,43.875)"/>
<path d="M0 0 C3.5625 0.1875 3.5625 0.1875 5.5625 2.1875 C5.73803419 5.27274939 5.79372797 8.26714202 5.7578125 11.3515625 C5.7549826 12.25877045 5.75215271 13.16597839 5.74923706 14.10067749 C5.73802153 17.00475123 5.71291463 19.90851912 5.6875 22.8125 C5.67747197 24.77864139 5.66834581 26.7447876 5.66015625 28.7109375 C5.63807772 33.53657659 5.60353865 38.3619864 5.5625 43.1875 C6.86453369 43.17178955 6.86453369 43.17178955 8.19287109 43.15576172 C11.40949528 43.12170284 14.62602767 43.09661233 17.84277344 43.07763672 C19.23570781 43.06757123 20.62862102 43.05391766 22.02148438 43.03662109 C24.0220436 43.0123978 26.02275615 43.00209186 28.0234375 42.9921875 C29.83013916 42.97647705 29.83013916 42.97647705 31.67333984 42.96044922 C34.5625 43.1875 34.5625 43.1875 36.5625 45.1875 C36.00694444 49.74305556 36.00694444 49.74305556 34.5625 51.1875 C31.76256403 51.28853255 28.98781356 51.32720088 26.1875 51.3203125 C25.34783691 51.32126923 24.50817383 51.32222595 23.64306641 51.32321167 C21.86425705 51.32389348 20.08544523 51.32203917 18.30664062 51.31787109 C15.57416224 51.31252283 12.84184824 51.31781605 10.109375 51.32421875 C8.3854163 51.32355797 6.66145771 51.32227681 4.9375 51.3203125 C4.11459473 51.32233673 3.29168945 51.32436096 2.44384766 51.32644653 C-3.32254946 51.30245054 -3.32254946 51.30245054 -4.4375 50.1875 C-4.53589214 48.6581537 -4.56548539 47.12430434 -4.56689453 45.59179688 C-4.57004669 44.61408325 -4.57319885 43.63636963 -4.57644653 42.62902832 C-4.5744223 41.56551147 -4.57239807 40.50199463 -4.5703125 39.40625 C-4.57126923 38.32243042 -4.57222595 37.23861084 -4.57321167 36.12194824 C-4.57389365 33.8252761 -4.57203811 31.52860205 -4.56787109 29.23193359 C-4.56252312 25.70275572 -4.5678155 22.17370513 -4.57421875 18.64453125 C-4.57355797 16.41927055 -4.57227682 14.19400993 -4.5703125 11.96875 C-4.57233673 10.90523315 -4.57436096 9.84171631 -4.57644653 8.74597168 C-4.57329437 7.76825806 -4.57014221 6.79054443 -4.56689453 5.78320312 C-4.56609894 4.91796021 -4.56530334 4.05271729 -4.56448364 3.16125488 C-4.34250562 -0.28903365 -3.57649677 0.19508164 0 0 Z " fill="#353540" transform="translate(23.4375,33.8125)"/>
<path d="M0 0 C1.36282104 0.00616333 1.36282104 0.00616333 2.75317383 0.01245117 C3.7528418 0.01438477 4.75250977 0.01631836 5.7824707 0.01831055 C7.35544922 0.03667969 7.35544922 0.03667969 8.96020508 0.05541992 C9.98952148 0.05606445 11.01883789 0.05670898 12.0793457 0.05737305 C17.41089474 0.08811228 22.52057154 0.31432488 27.77270508 1.24291992 C27.63261836 4.76400623 27.48459526 8.28471704 27.33520508 11.80541992 C27.29588867 12.79606445 27.25657227 13.78670898 27.21606445 14.80737305 C26.58447266 29.43115234 26.58447266 29.43115234 23.77270508 32.24291992 C18.68280574 32.78439858 18.68280574 32.78439858 16.06567383 31.22729492 C14.00172662 28.05966598 14.68457963 24.78815471 15.02270508 21.18041992 C15.07555664 20.44758789 15.1284082 19.71475586 15.18286133 18.9597168 C15.60836995 13.57159018 15.60836995 13.57159018 16.77270508 11.24291992 C15.0015332 11.29512695 15.0015332 11.29512695 13.19458008 11.34838867 C11.63730266 11.37653224 10.08000983 11.40383179 8.52270508 11.43041992 C7.74540039 11.45555664 6.9680957 11.48069336 6.16723633 11.5065918 C2.67721851 11.55133562 0.38314071 11.56231194 -2.75073242 9.92260742 C-4.22729492 8.24291992 -4.22729492 8.24291992 -4.60229492 5.18041992 C-4.15671335 1.69003091 -3.62580822 0.39544878 0 0 Z " fill="#1DC797" transform="translate(302.227294921875,10.757080078125)"/>
<path d="M0 0 C1.24910156 0.05027344 2.49820312 0.10054687 3.78515625 0.15234375 C5.74388672 0.25482422 5.74388672 0.25482422 7.7421875 0.359375 C9.05574219 0.41222656 10.36929687 0.46507813 11.72265625 0.51953125 C21.4603541 0.9525416 21.4603541 0.9525416 22.6171875 2.109375 C22.71101577 5.81880482 22.46964493 9.52848214 22.3046875 13.234375 C22.26923828 14.26820312 22.23378906 15.30203125 22.19726562 16.3671875 C21.95927757 21.93681846 21.44755422 26.8349305 19.6171875 32.109375 C15.74225094 33.18574627 14.09265823 33.05504451 10.6171875 31.109375 C10.59021613 28.50513908 10.57036261 25.90118256 10.5546875 23.296875 C10.54630859 22.55888672 10.53792969 21.82089844 10.52929688 21.06054688 C10.51458922 17.81015432 10.58187048 15.21532605 11.6171875 12.109375 C11.05209473 12.08955566 10.48700195 12.06973633 9.90478516 12.04931641 C7.35010753 11.95419264 4.79626209 11.84446442 2.2421875 11.734375 C1.35273438 11.7034375 0.46328125 11.6725 -0.453125 11.640625 C-1.30390625 11.60195313 -2.1546875 11.56328125 -3.03125 11.5234375 C-3.81677246 11.4920166 -4.60229492 11.4605957 -5.41162109 11.42822266 C-7.3828125 11.109375 -7.3828125 11.109375 -9.3828125 9.109375 C-9.93310623 3.93661394 -9.93310623 3.93661394 -8.26220703 1.42480469 C-5.48140741 -0.52153831 -3.35723749 -0.14946122 0 0 Z " fill="#1DC796" transform="translate(291.3828125,24.890625)"/>
<path d="M0 0 C2.5 1.3125 2.5 1.3125 4 3 C4 3.99 4 4.98 4 6 C0.125 4.125 0.125 4.125 -1 3 C-3.9157691 2.58297878 -3.9157691 2.58297878 -7 3 C-9.11670357 4.46041766 -9.11670357 4.46041766 -10 7 C-9.77131906 10.68815293 -9.77131906 10.68815293 -9 14 C-4.93542879 15.76856687 -4.93542879 15.76856687 -0.6875 15.3125 C1.30335167 14.01444532 1.30335167 14.01444532 2 11 C-0.31 10.67 -2.62 10.34 -5 10 C-5 9.34 -5 8.68 -5 8 C-1.7 8 1.6 8 5 8 C4.40298507 14.32835821 4.40298507 14.32835821 2.875 16.875 C-0.08306112 18.64983667 -2.57800046 18.88200002 -6 19 C-9.57387602 17.41161066 -10.81089572 16.28365642 -13 13 C-13.5493667 8.13418066 -13.73490373 6.1023556 -11 2 C-6.86334406 -0.75777063 -4.91307062 -0.62388198 0 0 Z " fill="#393941" transform="translate(64,110)"/>
<path d="M0 0 C2.5625 1.875 2.5625 1.875 4 4 C4 4.66 4 5.32 4 6 C3.01 6 2.02 6 1 6 C0.566875 5.505 0.13375 5.01 -0.3125 4.5 C-2.00911521 2.69733636 -2.00911521 2.69733636 -5.0625 2.6875 C-8.12061828 2.70172688 -8.12061828 2.70172688 -10 5 C-10.70313138 10.47256304 -10.70313138 10.47256304 -8.3125 15.0625 C-5.31270207 16.2786343 -3.99578588 16.22904036 -1 15 C0.84434349 12.53884453 0.84434349 12.53884453 2 10 C-0.64 10 -3.28 10 -6 10 C-6 9.34 -6 8.68 -6 8 C-2.7 8 0.6 8 4 8 C4.31577173 11.473489 4.4218681 13.37563521 2.4375 16.3125 C-0.79691808 18.55171252 -3.08046521 18.93123623 -7 19 C-10.21075562 17.71569775 -11.57496929 16.69550479 -13.375 13.75 C-14.41486679 9.17458613 -13.96792594 5.57287965 -11.5 1.5625 C-7.76408098 -0.77244939 -4.28775193 -0.80247834 0 0 Z " fill="#393841" transform="translate(209,110)"/>
<path d="M0 0 C2.31 0.66 4.62 1.32 7 2 C7 2.99 7 3.98 7 5 C7.66 4.67 8.32 4.34 9 4 C9.33 3.01 9.66 2.02 10 1 C11.875 1.1875 11.875 1.1875 14 2 C15.87679987 5.37823976 16.21849583 8.17632299 16 12 C15.34 11.34 14.68 10.68 14 10 C13.01 11.485 13.01 11.485 12 13 C11.34 12.34 10.68 11.68 10 11 C9.44280273 11.3304834 8.88560547 11.6609668 8.31152344 12.00146484 C5.62075328 13.16382753 3.92735485 13.154107 1.015625 12.9765625 C0.08105469 12.925 -0.85351562 12.8734375 -1.81640625 12.8203125 C-2.78449219 12.75585938 -3.75257813 12.69140625 -4.75 12.625 C-5.73355469 12.56828125 -6.71710938 12.5115625 -7.73046875 12.453125 C-10.154411 12.31192448 -12.57727459 12.16054205 -15 12 C-15 11.67 -15 11.34 -15 11 C-4.605 10.505 -4.605 10.505 6 10 C3.71489655 6.19149425 2.12404415 3.90859283 -1 1 C-0.67 0.67 -0.34 0.34 0 0 Z " fill="#2B2B35" transform="translate(179,50)"/>
<path d="M0 0 C0.99 0.33 1.98 0.66 3 1 C4.1875 4.5625 4.1875 4.5625 5 8 C6.77706209 5.33440687 7.87548273 2.9719385 9 0 C12 1 12 1 13.1875 3.375 C14 6 14 6 14 9 C14.66 9 15.32 9 16 9 C16.66 6.03 17.32 3.06 18 0 C18.66 0 19.32 0 20 0 C19.46148032 5.27749285 18.22656164 9.25645564 16 14 C15.01 13.67 14.02 13.34 13 13 C11.3125 9.4375 11.3125 9.4375 10 6 C9.01 8.64 8.02 11.28 7 14 C6.01 14 5.02 14 4 14 C3.32739649 12.23141309 2.66211605 10.46003984 2 8.6875 C1.62875 7.70136719 1.2575 6.71523437 0.875 5.69921875 C0 3 0 3 0 0 Z " fill="#383740" transform="translate(92,114)"/>
<path d="M0 0 C3 2 3 2 3.6875 5.125 C3.790625 6.07375 3.89375 7.0225 4 8 C0.04 8 -3.92 8 -8 8 C-6.68 9.32 -5.36 10.64 -4 12 C-1.8064655 12.0146239 -1.8064655 12.0146239 0 11 C0.33 10.34 0.66 9.68 1 9 C1.66 9 2.32 9 3 9 C2.6875 10.875 2.6875 10.875 2 13 C-1 15 -1 15 -4 14.8125 C-8.49282297 13.59569378 -8.49282297 13.59569378 -10 11 C-10.53758847 7.42354336 -10.6567088 4.23615773 -8.9375 1 C-5.90246787 -0.56646819 -3.34866332 -0.2989878 0 0 Z M-6 2 C-6.66 3.32 -7.32 4.64 -8 6 C-5.03 6 -2.06 6 1 6 C0.34 4.68 -0.32 3.36 -1 2 C-2.65 2 -4.3 2 -6 2 Z " fill="#403F47" transform="translate(163,114)"/>
<path d="M0 0 C1.32 0 2.64 0 4 0 C4 4.62 4 9.24 4 14 C-5.37596973 15.35704825 -5.37596973 15.35704825 -8.2734375 13.69921875 C-10.74933076 11.26253647 -10.86308996 9.42275104 -11 6 C-10.1875 3.1875 -10.1875 3.1875 -9 1 C-6.03325429 -0.48337286 -3.28247334 -0.05659437 0 0 Z M-8 4 C-8.33661952 7.1642235 -8.49943411 9.18513382 -6.8125 11.9375 C-4.98086328 13.23330193 -4.98086328 13.23330193 -2.4375 12.875 C0.3261611 12.15610832 0.3261611 12.15610832 2 9 C1.6758631 5.67759676 1.39223697 4.39223697 -1 2 C-4.9674509 1.56530472 -4.9674509 1.56530472 -8 4 Z " fill="#3A393F" transform="translate(225,114)"/>
<path d="M0 0 C2.65656032 2.15845526 2.92904589 3.58314463 3.5 6.9375 C3 10 3 10 0.875 12.9375 C-2 15 -2 15 -5.125 15 C-9.57644991 13.4516696 -9.57644991 13.4516696 -11 11 C-11.53468062 7.44288862 -11.62733051 4.25466102 -10 1 C-6.73916234 -0.63041883 -3.55761554 -0.65964122 0 0 Z M-9 4 C-9.50010524 6.95769177 -9.50010524 6.95769177 -9 10 C-7.44202118 12.14782671 -7.44202118 12.14782671 -5 13 C-2.22941974 12.74183257 -2.22941974 12.74183257 0 11 C1.16448881 8.09648876 1.16448881 8.09648876 1 5 C0 3 0 3 -2 2 C-5.48221301 1.57533988 -6.4650931 1.4650931 -9 4 Z " fill="#36363C" transform="translate(89,114)"/>
<path d="M0 0 C3.5625 0.1875 3.5625 0.1875 5.5625 2.1875 C5.5625 3.1775 5.5625 4.1675 5.5625 5.1875 C4.9025 5.1875 4.2425 5.1875 3.5625 5.1875 C3.2325 4.5275 2.9025 3.8675 2.5625 3.1875 C1.2425 3.1875 -0.0775 3.1875 -1.4375 3.1875 C-1.4375 3.8475 -1.4375 4.5075 -1.4375 5.1875 C2.0275 6.6725 2.0275 6.6725 5.5625 8.1875 C5.75 10.5625 5.75 10.5625 5.5625 13.1875 C2.5625 15.1875 2.5625 15.1875 -0.5 15.0625 C-3.4375 14.1875 -3.4375 14.1875 -4.8125 12.125 C-5.01875 11.485625 -5.225 10.84625 -5.4375 10.1875 C-4.4475 10.1875 -3.4575 10.1875 -2.4375 10.1875 C-2.4375 10.8475 -2.4375 11.5075 -2.4375 12.1875 C-0.7875 11.8575 0.8625 11.5275 2.5625 11.1875 C0.6382629 9.05244439 0.6382629 9.05244439 -2.0625 7.875 C-2.84625 7.318125 -3.63 6.76125 -4.4375 6.1875 C-4.8125 3.5625 -4.8125 3.5625 -4.4375 1.1875 C-3.4375 0.1875 -3.4375 0.1875 0 0 Z " fill="#38373E" transform="translate(172.4375,113.8125)"/>
<path d="M0 0 C1.24910156 0.05027344 2.49820312 0.10054687 3.78515625 0.15234375 C5.74388672 0.25482422 5.74388672 0.25482422 7.7421875 0.359375 C9.05574219 0.41222656 10.36929687 0.46507813 11.72265625 0.51953125 C21.4603541 0.9525416 21.4603541 0.9525416 22.6171875 2.109375 C22.65782582 3.77554615 22.6599085 5.44325595 22.6171875 7.109375 C21.6271875 6.449375 20.6371875 5.789375 19.6171875 5.109375 C19.6171875 4.119375 19.6171875 3.129375 19.6171875 2.109375 C11.0371875 2.439375 2.4571875 2.769375 -6.3828125 3.109375 C-6.7128125 4.759375 -7.0428125 6.409375 -7.3828125 8.109375 C-5.26355646 10.22863104 -0.7632032 9.52768517 2.1796875 9.671875 C2.98599609 9.71505859 3.79230469 9.75824219 4.62304688 9.80273438 C6.62087555 9.90912762 8.6190082 10.00978388 10.6171875 10.109375 C10.6171875 10.769375 10.6171875 11.429375 10.6171875 12.109375 C7.65800552 11.99579024 4.70041967 11.86904414 1.7421875 11.734375 C0.90042969 11.7034375 0.05867188 11.6725 -0.80859375 11.640625 C-1.61425781 11.60195313 -2.41992188 11.56328125 -3.25 11.5234375 C-3.99362793 11.4920166 -4.73725586 11.4605957 -5.50341797 11.42822266 C-7.3828125 11.109375 -7.3828125 11.109375 -9.3828125 9.109375 C-9.93310623 3.93661394 -9.93310623 3.93661394 -8.26220703 1.42480469 C-5.48140741 -0.52153831 -3.35723749 -0.14946122 0 0 Z " fill="#36B893" transform="translate(291.3828125,24.890625)"/>
<path d="M0 0 C0.8125 2.1875 0.8125 2.1875 1 5 C-1.91809215 8.6905283 -4.5617168 10.58406702 -9 12 C-12.19140625 12.265625 -12.19140625 12.265625 -15.5625 12.25 C-17.23505859 12.25773437 -17.23505859 12.25773437 -18.94140625 12.265625 C-21.86555372 12.01167605 -23.53085968 11.52132851 -26 10 C-24.35 9.67 -22.7 9.34 -21 9 C-21 9.66 -21 10.32 -21 11 C-19.68 10.01 -18.36 9.02 -17 8 C-16.34 8.66 -15.68 9.32 -15 10 C-9.02787468 9.97143186 -9.02787468 9.97143186 -4.5 6.4375 C-4.005 5.633125 -3.51 4.82875 -3 4 C-5.475 3.505 -5.475 3.505 -8 3 C-8 2.01 -8 1.02 -8 0 C-5.13822943 -1.43088528 -3.06624227 -0.59991697 0 0 Z " fill="#303037" transform="translate(191,74)"/>
<path d="M0 0 C8.3984375 -0.29296875 8.3984375 -0.29296875 11 0 C13.28062828 3.42094242 13.21925007 4.68187222 13.125 8.6875 C13.10695312 9.68136719 13.08890625 10.67523438 13.0703125 11.69921875 C13.03550781 12.83810547 13.03550781 12.83810547 13 14 C12.34 14 11.68 14 11 14 C10.93941406 13.28972656 10.87882813 12.57945313 10.81640625 11.84765625 C10.73261719 10.92855469 10.64882812 10.00945312 10.5625 9.0625 C10.48128906 8.14597656 10.40007812 7.22945313 10.31640625 6.28515625 C10.23955024 4.03840268 10.23955024 4.03840268 9 3 C7.35 3 5.7 3 4 3 C3.34 6.63 2.68 10.26 2 14 C1.34 14 0.68 14 0 14 C0 9.38 0 4.76 0 0 Z " fill="#454349" transform="translate(235,114)"/>
<path d="M0 0 C7.51953125 -0.390625 7.51953125 -0.390625 10 0 C12.30744636 2.14831213 12.9367257 3.44318614 13.29296875 6.578125 C13.25816406 7.45984375 13.22335938 8.3415625 13.1875 9.25 C13.16042969 10.14203125 13.13335937 11.0340625 13.10546875 11.953125 C13.07066406 12.62859375 13.03585938 13.3040625 13 14 C12.34 14 11.68 14 11 14 C10.93941406 13.37351562 10.87882813 12.74703125 10.81640625 12.1015625 C10.69072266 10.87566406 10.69072266 10.87566406 10.5625 9.625 C10.48128906 8.81289062 10.40007812 8.00078125 10.31640625 7.1640625 C10.10909886 4.95727195 10.10909886 4.95727195 9 3 C7.35 3 5.7 3 4 3 C2.85185003 5.29629994 2.69230191 7.07698086 2.4375 9.625 C2.35371094 10.44226563 2.26992187 11.25953125 2.18359375 12.1015625 C2.12300781 12.72804688 2.06242188 13.35453125 2 14 C1.34 14 0.68 14 0 14 C0 9.38 0 4.76 0 0 Z " fill="#3A3941" transform="translate(126,114)"/>
<path d="M0 0 C1.36282104 0.00616333 1.36282104 0.00616333 2.75317383 0.01245117 C3.7528418 0.01438477 4.75250977 0.01631836 5.7824707 0.01831055 C7.35544922 0.03667969 7.35544922 0.03667969 8.96020508 0.05541992 C9.98952148 0.05606445 11.01883789 0.05670898 12.0793457 0.05737305 C17.41089474 0.08811228 22.52057154 0.31432488 27.77270508 1.24291992 C27.44270508 2.23291992 27.11270508 3.22291992 26.77270508 4.24291992 C26.77270508 3.58291992 26.77270508 2.92291992 26.77270508 2.24291992 C24.87198242 2.26032227 24.87198242 2.26032227 22.93286133 2.27807617 C21.23364407 2.28746411 19.53442519 2.29656323 17.83520508 2.30541992 C16.58900391 2.31798828 16.58900391 2.31798828 15.31762695 2.33081055 C9.72044067 2.35258948 4.32536926 1.95451261 -1.22729492 1.24291992 C-1.22729492 1.90291992 -1.22729492 2.56291992 -1.22729492 3.24291992 C-0.23729492 3.24291992 0.75270508 3.24291992 1.77270508 3.24291992 C1.44270508 4.56291992 1.11270508 5.88291992 0.77270508 7.24291992 C-0.54729492 6.58291992 -1.86729492 5.92291992 -3.22729492 5.24291992 C-2.23729492 6.89291992 -1.24729492 8.54291992 -0.22729492 10.24291992 C-1.54729492 9.58291992 -2.86729492 8.92291992 -4.22729492 8.24291992 C-4.35229492 5.36791992 -4.35229492 5.36791992 -4.22729492 2.24291992 C-2.22729492 0.24291992 -2.22729492 0.24291992 0 0 Z " fill="#30BE97" transform="translate(302.227294921875,10.757080078125)"/>
<path d="M0 0 C0.99 0 1.98 0 3 0 C3.99 3.3 4.98 6.6 6 10 C6.66 10 7.32 10 8 10 C8.12375 9.278125 8.2475 8.55625 8.375 7.8125 C8.9904931 5.04278106 9.88444374 2.6029646 11 0 C11.99 0.33 12.98 0.66 14 1 C13.2690065 2.98626514 12.51456327 4.96391349 11.75 6.9375 C11.12351563 8.59072266 11.12351563 8.59072266 10.484375 10.27734375 C9 13 9 13 6.828125 13.87890625 C6.22484375 13.91886719 5.6215625 13.95882812 5 14 C4.16235732 12.04350603 3.33000941 10.08474444 2.5 8.125 C2.0359375 7.03445312 1.571875 5.94390625 1.09375 4.8203125 C0 2 0 2 0 0 Z " fill="#3A383F" transform="translate(139,114)"/>
<path d="M0 0 C0.66 0 1.32 0 2 0 C2 1.32 2 2.64 2 4 C3.32 4 4.64 4 6 4 C6 4.66 6 5.32 6 6 C4.68 6 3.36 6 2 6 C2.33 8.97 2.66 11.94 3 15 C5.94729537 16.15811388 5.94729537 16.15811388 9 16 C8.67 16.99 8.34 17.98 8 19 C1.125 18.125 1.125 18.125 0 17 C-0.07226502 15.14712498 -0.0838122 13.29166122 -0.0625 11.4375 C-0.05347656 10.42558594 -0.04445312 9.41367188 -0.03515625 8.37109375 C-0.02355469 7.58863281 -0.01195312 6.80617188 0 6 C-0.66 6 -1.32 6 -2 6 C-2 5.34 -2 4.68 -2 4 C-1.34 4 -0.68 4 0 4 C0 2.68 0 1.36 0 0 Z " fill="#3C3D43" transform="translate(180,110)"/>
<path d="M0 0 C0.66 0.33 1.32 0.66 2 1 C1.01 2.485 1.01 2.485 0 4 C-0.24055468 6.05709596 -0.24055468 6.05709596 -0.125 8.1875 C-0.08375 9.445625 -0.0425 10.70375 0 12 C0.99 12.33 1.98 12.66 3 13 C3 13.66 3 14.32 3 15 C0.24779627 14.13088303 -1.5656698 13.5527839 -3.375 11.25 C-4.23310088 8.16083683 -3.84991477 6.07276879 -3 3 C-1.4375 1.125 -1.4375 1.125 0 0 Z " fill="#313137" transform="translate(218,114)"/>
<path d="M0 0 C2.31 0 4.62 0 7 0 C7 0.66 7 1.32 7 2 C6.01 2.33 5.02 2.66 4 3 C2.85185003 5.29629994 2.69230191 7.07698086 2.4375 9.625 C2.35371094 10.44226563 2.26992187 11.25953125 2.18359375 12.1015625 C2.12300781 12.72804688 2.06242187 13.35453125 2 14 C1.34 14 0.68 14 0 14 C0 9.38 0 4.76 0 0 Z " fill="#37383F" transform="translate(70,114)"/>
<path d="M0 0 C0.66 0 1.32 0 2 0 C2 5.94 2 11.88 2 18 C1.34 18 0.68 18 0 18 C0 12.06 0 6.12 0 0 Z " fill="#3D3C41" transform="translate(122,110)"/>
<path d="M0 0 C0.9075 0.515625 1.815 1.03125 2.75 1.5625 C5.76328501 3.20428111 5.76328501 3.20428111 8.3125 2.8125 C10.19618462 2.11752422 10.19618462 2.11752422 11 0 C11.66 0 12.32 0 13 0 C12.6875 1.875 12.6875 1.875 12 4 C9 6 9 6 6 5.8125 C2.98688185 4.99644717 1.79783765 4.49699674 0 2 C0 1.34 0 0.68 0 0 Z " fill="#343438" transform="translate(153,123)"/>
<path d="M0 0 C2.8125 -0.25 2.8125 -0.25 6 0 C8.63661642 2.28506757 8.96494766 3.64947662 9.3125 7.125 C9 10 9 10 7 12 C6.67 9.03 6.34 6.06 6 3 C3.69 2.67 1.38 2.34 -1 2 C-0.67 1.34 -0.34 0.68 0 0 Z " fill="#3D3C45" transform="translate(83,114)"/>
<path d="M0 0 C3.3 0 6.6 0 10 0 C10 1.98 10 3.96 10 6 C9.01 6 8.02 6 7 6 C7.33 4.68 7.66 3.36 8 2 C5.36 2 2.72 2 0 2 C0 1.34 0 0.68 0 0 Z " fill="#403F45" transform="translate(203,118)"/>
<path d="M0 0 C3.5625 0.1875 3.5625 0.1875 5.5625 2.1875 C5.5625 3.1775 5.5625 4.1675 5.5625 5.1875 C4.9025 5.1875 4.2425 5.1875 3.5625 5.1875 C3.2325 4.5275 2.9025 3.8675 2.5625 3.1875 C-1.36825644 3.76202746 -1.36825644 3.76202746 -4.4375 6.1875 C-4.480221 4.52138095 -4.47813832 2.85367115 -4.4375 1.1875 C-3.4375 0.1875 -3.4375 0.1875 0 0 Z " fill="#414045" transform="translate(172.4375,113.8125)"/>
<path d="M0 0 C0.66 0 1.32 0 2 0 C2 4.62 2 9.24 2 14 C1.34 14 0.68 14 0 14 C0 9.38 0 4.76 0 0 Z " fill="#414046" transform="translate(231,114)"/>
<path d="M0 0 C0.66 0 1.32 0 2 0 C2.66 1.32 3.32 2.64 4 4 C5.65 4 7.3 4 9 4 C8.67 4.99 8.34 5.98 8 7 C1.125 6.125 1.125 6.125 0 5 C-0.04063832 3.33382885 -0.042721 1.66611905 0 0 Z " fill="#333238" transform="translate(180,122)"/>
<path d="M0 0 C0.928125 0.2784375 0.928125 0.2784375 1.875 0.5625 C4.04160178 1.23686176 4.04160178 1.23686176 6 0 C6.33 0.66 6.66 1.32 7 2 C9.02463255 2.65213292 9.02463255 2.65213292 11 3 C10 4 10 4 6.75 4.125 C3.66396211 4.02213207 0.98575886 3.72382033 -2 3 C-1.34 2.01 -0.68 1.02 0 0 Z " fill="#303038" transform="translate(270,81)"/>
<path d="M0 0 C3 0 6 0 9 0 C8.67 1.32 8.34 2.64 8 4 C3.545 3.01 3.545 3.01 -1 2 C-0.67 1.34 -0.34 0.68 0 0 Z " fill="#45444A" transform="translate(220,114)"/>
<path d="M0 0 C0.66 0.33 1.32 0.66 2 1 C1.67 4.3 1.34 7.6 1 11 C0.34 11 -0.32 11 -1 11 C-1.0270043 9.54176788 -1.04639787 8.08339325 -1.0625 6.625 C-1.07410156 5.81289062 -1.08570313 5.00078125 -1.09765625 4.1640625 C-1 2 -1 2 0 0 Z " fill="#39393E" transform="translate(236,117)"/>
<path d="M0 0 C6.625 -0.25 6.625 -0.25 10 2 C10 2.66 10 3.32 10 4 C8.51882199 3.71872579 7.04006751 3.42466268 5.5625 3.125 C4.73878906 2.96257812 3.91507813 2.80015625 3.06640625 2.6328125 C2.38449219 2.42398438 1.70257813 2.21515625 1 2 C0.67 1.34 0.34 0.68 0 0 Z " fill="#49484D" transform="translate(156,114)"/>
<path d="M0 0 C0.99 0.33 1.98 0.66 3 1 C1.515 4.465 1.515 4.465 0 8 C-0.66 8 -1.32 8 -2 8 C-1.125 2.25 -1.125 2.25 0 0 Z " fill="#413F47" transform="translate(150,114)"/>
<path d="M0 0 C1.61949011 2.57213134 2.04408751 3.67669159 1.625 6.75 C1.41875 7.4925 1.2125 8.235 1 9 C-0.5625 7.25 -0.5625 7.25 -2 5 C-1.75203633 2.83031791 -1.55766393 1.55766393 0 0 Z " fill="#2D2D35" transform="translate(205,57)"/>
<path d="M0 0 C0.66 0.33 1.32 0.66 2 1 C0.6875 3.9375 0.6875 3.9375 -1 7 C-1.99 7.33 -2.98 7.66 -4 8 C-3.40138258 5.64828869 -2.73075648 3.3140622 -2 1 C-1.34 0.67 -0.68 0.34 0 0 Z " fill="#3B3A40" transform="translate(218,114)"/>
<path d="M0 0 C0.66 0 1.32 0 2 0 C2.99 1.98 3.98 3.96 5 6 C3.68 6 2.36 6 1 6 C0.67 4.02 0.34 2.04 0 0 Z " fill="#3D3C45" transform="translate(104,121)"/>
<path d="M0 0 C0.99 0 1.98 0 3 0 C2.67 0.99 2.34 1.98 2 3 C1.34 3 0.68 3 0 3 C0 2.01 0 1.02 0 0 Z " fill="#252429" transform="translate(112,126)"/>
<path d="M0 0 C0.99 0.33 1.98 0.66 3 1 C2.67 1.66 2.34 2.32 2 3 C1.34 3 0.68 3 0 3 C0 2.01 0 1.02 0 0 Z " fill="#3C3C3E" transform="translate(231,109)"/>
</svg>
