<?xml version="1.0" encoding="UTF-8"?>
<svg version="1.1" xmlns="http://www.w3.org/2000/svg" width="347" height="151">
<path d="M0 0 C3 0.25 3 0.25 5 2.25 C5.24723816 4.29931641 5.24723816 4.29931641 5.24291992 6.8515625 C5.24753487 8.28314697 5.24753487 8.28314697 5.25224304 9.74365234 C5.24505753 10.77699707 5.23787201 11.8103418 5.23046875 12.875 C5.23001053 13.93283691 5.22955231 14.99067383 5.2290802 16.08056641 C5.22605545 18.31999837 5.21816254 20.55942818 5.20581055 22.79882812 C5.18757559 26.23575251 5.18530067 29.67240734 5.18554688 33.109375 C5.180631 35.28125234 5.17480237 37.45312785 5.16796875 39.625 C5.16685593 40.65834473 5.1657431 41.69168945 5.16459656 42.75634766 C5.15821671 43.7107373 5.15183685 44.66512695 5.14526367 45.6484375 C5.13954597 46.91179932 5.13954597 46.91179932 5.13371277 48.20068359 C5 50.25 5 50.25 4 52.25 C-2.625 52.375 -2.625 52.375 -6 51.25 C-7.67310388 51.9003427 -9.3391392 52.56899808 -11 53.25 C-18.1176772 54.15283221 -23.26215354 53.61076331 -29 49.25 C-34.36162878 43.88837122 -36.0177287 38.82007291 -36.375 31.375 C-36.22942226 25.39721387 -34.56906653 20.2087564 -30.609375 15.6484375 C-25.70131692 11.23118522 -20.55492967 9.84228473 -14.03515625 9.98046875 C-10.67631709 10.42530541 -8.01865753 11.74067123 -5 13.25 C-5.02320313 12.47914062 -5.04640625 11.70828125 -5.0703125 10.9140625 C-5.08835938 9.91117188 -5.10640625 8.90828125 -5.125 7.875 C-5.14820313 6.87726562 -5.17140625 5.87953125 -5.1953125 4.8515625 C-4.90172037 0.94091533 -3.83781157 0.31981763 0 0 Z M-23 22.25 C-25.89550431 26.64317896 -26.55878366 30.03468583 -26 35.25 C-24.43722469 39.31321581 -22.96623493 42.26688254 -19 44.25 C-13.97698803 44.79796494 -11.05853817 44.26491407 -7 41.25 C-4.16417185 38.41417185 -4.63289344 36.39195524 -4.5625 32.4375 C-4.45644646 26.63405389 -4.45644646 26.63405389 -7.375 21.9375 C-12.90403388 18.38312108 -17.65727337 17.91805949 -23 22.25 Z " fill="#FDFDFD" transform="translate(144,39.75)"/>
<path d="M0 0 C3.83815552 3.22753987 6.33106067 6.25669875 8 11 C8.23393274 14.68189783 8.17695976 18.3166154 8 22 C4.60136617 24.04348237 1.85579897 24.29835885 -2.078125 24.4140625 C-3.23828125 24.45273438 -4.3984375 24.49140625 -5.59375 24.53125 C-7.40359375 24.57765625 -7.40359375 24.57765625 -9.25 24.625 C-10.47203125 24.66367188 -11.6940625 24.70234375 -12.953125 24.7421875 C-15.9685994 24.83642108 -18.98406828 24.92203455 -22 25 C-18.83890059 28.71267261 -18.83890059 28.71267261 -14.5 30.59375 C-9.32050891 30.39951908 -6.42877213 29.82949331 -2 27 C1.3125 27.3125 1.3125 27.3125 4 28 C4.8125 30.1875 4.8125 30.1875 5 33 C1.36127371 37.60191855 -2.19655544 39.65094727 -7.98046875 40.37109375 C-15.76706571 40.53232657 -21.60124411 39.63570754 -28 35 C-32.51940619 30.2546235 -33.57431994 24.38520092 -34 18 C-33.46660294 10.88803921 -30.83147331 5.6824484 -25.625 0.75 C-17.74232784 -4.50511477 -8.20136314 -4.66352022 0 0 Z M-20 9 C-22.36100523 12.21076478 -22.36100523 12.21076478 -23 16 C-16.07 16 -9.14 16 -2 16 C-1.67 15.34 -1.34 14.68 -1 14 C-2.19620033 10.97802022 -3.16036033 8.65971688 -5.75 6.625 C-11.20098531 5.11083741 -15.55525739 5.41951289 -20 9 Z " fill="#FDFDFD" transform="translate(188,53)"/>
<path d="M0 0 C3.60104961 1.31745717 6.61683339 0.61418565 10.35546875 0.03125 C11.08378906 0.0003125 11.81210937 -0.030625 12.5625 -0.0625 C15.136825 2.511825 14.81025746 4.24462646 14.84039307 7.75402832 C14.8363446 8.54676147 14.83229614 9.33949463 14.828125 10.15625 C14.83099518 11.37677063 14.83099518 11.37677063 14.83392334 12.62194824 C14.83528527 14.343509 14.83158828 16.06508003 14.82324219 17.78662109 C14.81254258 20.4269917 14.823137 23.06668189 14.8359375 25.70703125 C14.83461591 27.37760567 14.83205352 29.04817967 14.828125 30.71875 C14.83217346 31.51148315 14.83622192 32.30421631 14.84039307 33.12097168 C14.79242027 38.70757973 14.79242027 38.70757973 12.5625 40.9375 C6.23991935 41.27620968 6.23991935 41.27620968 3.5625 39.9375 C2.81742187 40.23914063 2.07234375 40.54078125 1.3046875 40.8515625 C-3.91299418 42.91782391 -10.28935825 42.97381001 -15.6328125 41.21484375 C-20.43565571 38.64708991 -23.3361809 35.19520415 -25.6875 30.375 C-27.35691011 22.72353701 -27.79188457 13.78228698 -23.4375 6.9375 C-17.38911015 0.24693542 -8.85069941 -3.85799718 0 0 Z M-14.4375 11.9375 C-16.41650874 15.89551748 -16.4375 20.56887196 -16.4375 24.9375 C-14.96465191 29.13511705 -14.13733829 30.47094114 -10.4375 32.9375 C-5.03234826 33.37339933 -1.8790915 33.33401115 2.5625 29.9375 C5.39832815 27.10167185 4.92960656 25.07945524 5 21.125 C4.9108452 15.57156247 4.9108452 15.57156247 2.5625 10.625 C-3.99623706 6.9357104 -8.51127 6.87852317 -14.4375 11.9375 Z " fill="#FDFDFD" transform="translate(268.4375,51.0625)"/>
<path d="M0 0 C0.99 0.103125 1.98 0.20625 3 0.3125 C5.21841082 3.64011623 5.26833706 4.82425115 5.34375 8.71484375 C5.37339844 9.76994141 5.40304688 10.82503906 5.43359375 11.91210938 C5.45550781 13.01361328 5.47742188 14.11511719 5.5 15.25 C5.54344275 17.42597092 5.5951913 19.60179587 5.65625 21.77734375 C5.67494141 22.742771 5.69363281 23.70819824 5.71289062 24.70288086 C6.00892828 27.39365166 6.54264045 29.04553208 8 31.3125 C11.21107887 32.91803944 14.51670728 32.78719056 18 32.3125 C21.21948708 30.49278991 22.61547727 29.18790281 24.1015625 25.8046875 C25.50383057 20.35413246 25.43147967 14.90810894 25.56640625 9.3046875 C25.61087891 8.00144531 25.61087891 8.00144531 25.65625 6.671875 C25.67494141 5.88264648 25.69363281 5.09341797 25.71289062 4.28027344 C26 2.3125 26 2.3125 28 0.3125 C31.5625 0.5625 31.5625 0.5625 35 1.3125 C36.57667147 4.46584294 36.16297041 7.85012241 36.16796875 11.3125 C36.17296135 12.49972656 36.17296135 12.49972656 36.17805481 13.7109375 C36.1831204 15.38541075 36.18546325 17.0598941 36.18530273 18.734375 C36.18749127 21.30225135 36.20565609 23.86969959 36.22460938 26.4375 C36.22754291 28.06249853 36.22952797 29.6874991 36.23046875 31.3125 C36.23765427 32.08335938 36.24483978 32.85421875 36.25224304 33.6484375 C36.2288272 39.0836728 36.2288272 39.0836728 34 41.3125 C29.94738713 41.65740322 28.45245824 41.61413882 25 39.3125 C24.2575 39.8075 23.515 40.3025 22.75 40.8125 C17.37110809 43.48278126 10.46568902 43.40595269 4.80859375 41.62109375 C0.14163615 39.21201628 -2.96471779 35.48633915 -4.59106445 30.50048828 C-5.52833396 25.48567673 -5.18476363 20.27168358 -5.1875 15.1875 C-5.19974609 13.98222656 -5.21199219 12.77695312 -5.22460938 11.53515625 C-5.22654297 10.38660156 -5.22847656 9.23804688 -5.23046875 8.0546875 C-5.23457764 7.0013623 -5.23868652 5.94803711 -5.24291992 4.86279297 C-4.8748432 0.99854227 -3.78792686 0.39457572 0 0 Z " fill="#FDFDFD" transform="translate(67,50.6875)"/>
<path d="M0 0 C2.9505968 0.51943356 3.68768554 1.25509991 5.47216797 3.71923828 C7.18512624 6.91140469 8.72254621 10.14037669 10.21484375 13.44140625 C11.02598633 15.15166992 11.02598633 15.15166992 11.85351562 16.89648438 C13.18552024 19.71373308 14.49186301 22.54020229 15.77734375 25.37890625 C16.05932617 24.83476074 16.34130859 24.29061523 16.63183594 23.72998047 C17.92677329 21.23608597 19.22701167 18.74499186 20.52734375 16.25390625 C20.97078125 15.39796875 21.41421875 14.54203125 21.87109375 13.66015625 C24.28563818 9.04411543 26.7845828 4.64428984 29.77734375 0.37890625 C32.08734375 0.70890625 34.39734375 1.03890625 36.77734375 1.37890625 C37.77759765 3.97712674 37.84942214 5.16471103 36.94921875 7.83984375 C36.48 8.80148438 36.01078125 9.763125 35.52734375 10.75390625 C34.98078125 11.88183594 34.43421875 13.00976562 33.87109375 14.171875 C33.17322486 15.57424253 32.47530219 16.97658329 31.77734375 18.37890625 C30.84993386 20.27067328 29.92287542 22.16261263 28.99609375 24.0546875 C28.00770851 26.05918496 27.01811985 28.06308946 26.02734375 30.06640625 C25.54362305 31.04722168 25.05990234 32.02803711 24.56152344 33.03857422 C24.10165039 33.95912598 23.64177734 34.87967773 23.16796875 35.828125 C22.75579102 36.65658936 22.34361328 37.48505371 21.91894531 38.33862305 C20.77734375 40.37890625 20.77734375 40.37890625 18.77734375 42.37890625 C15.96484375 43.00390625 15.96484375 43.00390625 12.77734375 42.37890625 C7.98549485 36.82012854 5.17050454 29.20936536 2.08984375 22.62890625 C1.12778715 20.59236147 0.1655547 18.55589974 -0.796875 16.51953125 C-1.21541748 15.62782227 -1.63395996 14.73611328 -2.06518555 13.81738281 C-2.79934081 12.27071698 -3.56092334 10.73654046 -4.35864258 9.22167969 C-5.49208079 6.80427601 -5.50026786 5.01621658 -5.22265625 2.37890625 C-3.22265625 0.37890625 -3.22265625 0.37890625 0 0 Z " fill="#FDFDFD" transform="translate(204.22265625,50.62109375)"/>
<path d="M0 0 C3.5625 0.1875 3.5625 0.1875 5.5625 2.1875 C5.73803419 5.27274939 5.79372797 8.26714202 5.7578125 11.3515625 C5.7549826 12.25877045 5.75215271 13.16597839 5.74923706 14.10067749 C5.73802153 17.00475123 5.71291463 19.90851912 5.6875 22.8125 C5.67747197 24.77864139 5.66834581 26.7447876 5.66015625 28.7109375 C5.63807772 33.53657659 5.60353865 38.3619864 5.5625 43.1875 C6.97583618 42.94410889 6.97583618 42.94410889 8.41772461 42.69580078 C16.84453572 41.33374654 26.16182733 41.89321032 34.5625 43.1875 C35.2225 43.8475 35.8825 44.5075 36.5625 45.1875 C36.00694444 49.74305556 36.00694444 49.74305556 34.5625 51.1875 C31.94508429 51.38483954 29.35227874 51.52039602 26.73046875 51.609375 C25.94231277 51.63727112 25.1541568 51.66516724 24.34211731 51.69390869 C22.67014667 51.75040808 20.99807615 51.80401304 19.32592773 51.85498047 C16.77056319 51.93684126 14.21665094 52.04042536 11.66210938 52.14453125 C10.03910536 52.19666421 8.41605864 52.24748789 6.79296875 52.296875 C6.02929489 52.33109558 5.26562103 52.36531616 4.47880554 52.40057373 C1.37292212 52.47427672 -1.05992463 52.35235111 -3.92529297 51.10131836 C-6.18084061 48.24674329 -5.90623059 46.05931857 -5.86328125 42.45703125 C-5.860401 41.79334534 -5.85752075 41.12965942 -5.85455322 40.44586182 C-5.839692 38.29650223 -5.79568455 36.14890679 -5.75 34 C-5.73240684 32.53639129 -5.71604866 31.0727672 -5.70092773 29.60913086 C-5.33490472 0.2909948 -5.33490472 0.2909948 0 0 Z " fill="#FDFDFE" transform="translate(24.4375,40.8125)"/>
<path d="M0 0 C0.75732422 0.01168213 1.51464844 0.02336426 2.29492188 0.03540039 C19.12682927 0.37682927 19.12682927 0.37682927 21 2.25 C21.24179209 6.24668101 21.09505155 10.24919381 21 14.25 C20.95746094 16.22613281 20.95746094 16.22613281 20.9140625 18.2421875 C20.86204241 19.57823152 20.80739484 20.91417607 20.75 22.25 C20.68039062 24.10625 20.68039062 24.10625 20.609375 26 C19.90753681 29.74313701 19.06039554 31.0353865 16 33.25 C12.3014996 33.10205998 10.64194427 32.89194427 8 30.25 C7.86474609 28.37060547 7.86474609 28.37060547 8.0234375 26.1171875 C8.075 25.31152344 8.1265625 24.50585938 8.1796875 23.67578125 C8.24414062 22.83402344 8.30859375 21.99226563 8.375 21.125 C8.43171875 20.27550781 8.4884375 19.42601563 8.546875 18.55078125 C8.68850977 16.4498655 8.84304326 14.34982666 9 12.25 C7.89140625 12.28480469 6.7828125 12.31960937 5.640625 12.35546875 C4.17709852 12.38361349 2.71355561 12.41091292 1.25 12.4375 C0.15558594 12.47520508 0.15558594 12.47520508 -0.9609375 12.51367188 C-4.22188355 12.55813932 -6.58123484 12.47285932 -9.48828125 10.92578125 C-11 9.25 -11 9.25 -11.4375 6.25 C-11 3.25 -11 3.25 -9.97265625 1.578125 C-6.86931734 -0.51125169 -3.60560021 -0.10376673 0 0 Z " fill="#1CC797" transform="translate(294,31.75)"/>
<path d="M0 0 C1.3847382 4.9975514 0.95818095 9.88301775 0.6875 15 C0.65205078 15.88945313 0.61660156 16.77890625 0.58007812 17.6953125 C0.06825658 27.93174342 0.06825658 27.93174342 -3 31 C-8.36914025 31.46688176 -8.36914025 31.46688176 -10.69067383 29.7487793 C-12.34625316 27.53753284 -12.28682359 26.4947387 -12.07421875 23.76953125 C-12.01943359 22.96708984 -11.96464844 22.16464844 -11.90820312 21.33789062 C-11.83537109 20.50451172 -11.76253906 19.67113281 -11.6875 18.8125 C-11.5956543 17.5450293 -11.5956543 17.5450293 -11.50195312 16.25195312 C-11.34881209 14.16687905 -11.17625843 12.08324724 -11 10 C-12.78857422 10.05220703 -12.78857422 10.05220703 -14.61328125 10.10546875 C-16.17967342 10.13360753 -17.74608081 10.1609076 -19.3125 10.1875 C-20.09818359 10.21263672 -20.88386719 10.23777344 -21.69335938 10.26367188 C-22.45068359 10.27333984 -23.20800781 10.28300781 -23.98828125 10.29296875 C-24.68477783 10.3086792 -25.38127441 10.32438965 -26.09887695 10.34057617 C-28.6261306 9.887832 -29.4899388 9.05035027 -31 7 C-31.1875 3.3125 -31.1875 3.3125 -31 0 C-20.63497635 -3.60522562 -10.63347988 -1.71606592 0 0 Z " fill="#1EC496" transform="translate(330,19)"/>
<path d="M0 0 C3 1.875 3 1.875 5 4 C5 4.66 5 5.32 5 6 C4.01 6 3.02 6 2 6 C1.34 5.01 0.68 4.02 0 3 C-3.5 2.58333333 -3.5 2.58333333 -7 3 C-9.24324836 4.81193006 -9.24324836 4.81193006 -9.1953125 7.3828125 C-9.17210937 8.28773437 -9.14890625 9.19265625 -9.125 10.125 C-9.10695312 11.03507813 -9.08890625 11.94515625 -9.0703125 12.8828125 C-9.04710937 13.58148438 -9.02390625 14.28015625 -9 15 C-4.1797691 16.14491185 -4.1797691 16.14491185 0.375 14.75 C2.23276416 12.99137911 2.23276416 12.99137911 3 10 C0.36 10 -2.28 10 -5 10 C-4.67 9.34 -4.34 8.68 -4 8 C-1.03 8 1.94 8 5 8 C5 8.66 5 9.32 5 10 C5.66 10 6.32 10 7 10 C7.12375 9.195625 7.2475 8.39125 7.375 7.5625 C7.684375 6.2940625 7.684375 6.2940625 8 5 C11.85145043 3.07427479 16.80043252 3.95116782 21 4 C21 8.62 21 13.24 21 18 C12.82226981 19.34261242 12.82226981 19.34261242 9 17.75 C7 16 7 16 6 13 C5.29875 13.804375 4.5975 14.60875 3.875 15.4375 C0.65412082 18.30828361 -0.72704506 19 -5 19 C-8.5214473 17.78103747 -10.41638872 16.91347852 -12.4375 13.75 C-13.37880143 9.14808192 -12.98973545 5.5439873 -10.4375 1.5625 C-7.01812107 -0.62940957 -3.89089896 -0.78588454 0 0 Z M11 6 C8.6278031 7.94458314 8.6278031 7.94458314 8.6875 11.5 C8.790625 12.655 8.89375 13.81 9 15 C11.75698184 17.28138945 11.75698184 17.28138945 14.5625 16.8125 C17.33255117 16.16627558 17.33255117 16.16627558 19 13 C18.68493373 9.85778033 18.68493373 9.85778033 18 7 C14.59679066 6.32326553 14.59679066 6.32326553 11 6 Z " fill="#F9FAFE" transform="translate(209,117)"/>
<path d="M0 0 C2.5 1.875 2.5 1.875 4 4 C4 4.66 4 5.32 4 6 C0.125 4.125 0.125 4.125 -1 3 C-5.12795128 2.62418498 -5.12795128 2.62418498 -8.875 4.125 C-10.51151479 6.85252465 -10.32502803 8.87973093 -10 12 C-8.33651167 15.1535811 -8.33651167 15.1535811 -5.625 15.8125 C-2.63855075 16.0258178 -1.38779956 15.79084967 1 14 C1.80528889 11.94999129 1.80528889 11.94999129 2 10 C-0.31 10 -2.62 10 -5 10 C-5 9.34 -5 8.68 -5 8 C-1.7 8 1.6 8 5 8 C4.51487414 14.42791762 4.51487414 14.42791762 2.3125 16.875 C-0.58163748 18.28295877 -2.77298936 18.86828528 -6 19 C-9.52906067 17.39588152 -10.82772908 16.25840638 -13 13 C-13.5493667 8.13418066 -13.73490373 6.1023556 -11 2 C-6.84437903 -0.77041398 -4.93332128 -0.70476018 0 0 Z " fill="#F8F9FD" transform="translate(65,117)"/>
<path d="M0 0 C0.99 0.33 1.98 0.66 3 1 C4.1875 4.5625 4.1875 4.5625 5 8 C6.77706209 5.33440687 7.87548273 2.9719385 9 0 C9.99 0.33 10.98 0.66 12 1 C12.73046875 2.84765625 12.73046875 2.84765625 13.1875 5.0625 C13.34605469 5.79597656 13.50460938 6.52945313 13.66796875 7.28515625 C13.77753906 7.85105469 13.88710937 8.41695312 14 9 C14.66 9 15.32 9 16 9 C16.66 6.03 17.32 3.06 18 0 C18.66 0 19.32 0 20 0 C19.46148032 5.27749285 18.22656164 9.25645564 16 14 C15.01 13.67 14.02 13.34 13 13 C12.26953125 11.15234375 12.26953125 11.15234375 11.8125 8.9375 C11.65394531 8.20402344 11.49539062 7.47054687 11.33203125 6.71484375 C11.22246094 6.14894531 11.11289063 5.58304687 11 5 C10.34 5 9.68 5 9 5 C8.34 7.97 7.68 10.94 7 14 C6.01 14 5.02 14 4 14 C3.32739649 12.23141309 2.66211605 10.46003984 2 8.6875 C1.62875 7.70136719 1.2575 6.71523437 0.875 5.69921875 C0 3 0 3 0 0 Z " fill="#F9FBFD" transform="translate(93,121)"/>
<path d="M0 0 C0.495 0.33 0.99 0.66 1.5 1 C0.51 2.485 0.51 2.485 -0.5 4 C-0.5 5.32 -0.5 6.64 -0.5 8 C-4.79 8 -9.08 8 -13.5 8 C-12.84 6.68 -12.18 5.36 -11.5 4 C-13.15 3.67 -14.8 3.34 -16.5 3 C-15.5 1 -15.5 1 -13.4375 -0.125 C-8.88811044 -1.48013731 -4.50434068 -1.80173627 0 0 Z " fill="#16C895" transform="translate(317.5,19)"/>
<path d="M0 0 C3 2 3 2 3.6875 5.125 C3.790625 6.07375 3.89375 7.0225 4 8 C0.04 8 -3.92 8 -8 8 C-7.01 9.32 -6.02 10.64 -5 12 C-2.52733235 11.65555119 -2.52733235 11.65555119 0 11 C0.33 10.34 0.66 9.68 1 9 C1.66 9 2.32 9 3 9 C2.75 10.875 2.75 10.875 2 13 C-0.36184572 14.77138429 -1.61075423 15.0284814 -4.5625 14.8125 C-8.45945946 13.51351351 -8.45945946 13.51351351 -10 11 C-10.54451753 7.42706988 -10.65485818 4.23267422 -8.9375 1 C-5.90246787 -0.56646819 -3.34866332 -0.2989878 0 0 Z M-6 2 C-6.66 3.32 -7.32 4.64 -8 6 C-5.03 6 -2.06 6 1 6 C0.67 4.68 0.34 3.36 0 2 C-1.98 2 -3.96 2 -6 2 Z " fill="#F7F7FC" transform="translate(164,121)"/>
<path d="M0 0 C2.4375 1.625 2.4375 1.625 4 4 C4.48891657 7.35257076 4.35810604 9.26389315 2.875 12.3125 C0.24275308 14.68152223 -1.47602562 15 -5 15 C-7.875 13.5625 -7.875 13.5625 -10 11 C-10.75171717 7.46834763 -10.66705961 4.25564162 -8.9375 1 C-5.82090489 -0.60856522 -3.43737531 -0.42213381 0 0 Z M-8 4 C-8.33661952 7.1642235 -8.49943411 9.18513382 -6.8125 11.9375 C-4.97979862 13.24211502 -4.97979862 13.24211502 -2.4375 12.8125 C0.14441272 12.15372967 0.14441272 12.15372967 2 10 C1.90304884 5.65805064 1.90304884 5.65805064 0 2 C-4.49885769 1.53277305 -4.49885769 1.53277305 -8 4 Z " fill="#F9FAFE" transform="translate(89,121)"/>
<path d="M0 0 C3.5625 0.1875 3.5625 0.1875 5.5625 2.1875 C5.5625 3.1775 5.5625 4.1675 5.5625 5.1875 C4.9025 5.1875 4.2425 5.1875 3.5625 5.1875 C3.2325 4.5275 2.9025 3.8675 2.5625 3.1875 C0.03516765 2.53194881 0.03516765 2.53194881 -2.4375 2.1875 C-2.1075 3.1775 -1.7775 4.1675 -1.4375 5.1875 C2.06544871 6.90317661 2.06544871 6.90317661 5.5625 8.1875 C5.75 10.5625 5.75 10.5625 5.5625 13.1875 C2.5625 15.1875 2.5625 15.1875 -0.5 15.0625 C-3.4375 14.1875 -3.4375 14.1875 -4.8125 12.125 C-5.01875 11.485625 -5.225 10.84625 -5.4375 10.1875 C-4.4475 10.1875 -3.4575 10.1875 -2.4375 10.1875 C-2.4375 10.8475 -2.4375 11.5075 -2.4375 12.1875 C-0.4575 12.1875 1.5225 12.1875 3.5625 12.1875 C1.74570345 10.17946171 0.32138745 9.06414009 -2.125 7.8125 C-2.888125 7.27625 -3.65125 6.74 -4.4375 6.1875 C-4.8125 3.5625 -4.8125 3.5625 -4.4375 1.1875 C-3.4375 0.1875 -3.4375 0.1875 0 0 Z " fill="#FAFAFE" transform="translate(173.4375,120.8125)"/>
<path d="M0 0 C20.66190379 -0.21800367 20.66190379 -0.21800367 28 1 C29 2 29 2 29.1328125 4.1953125 C29.11066146 12.5019537 28.63338931 20.72069693 28 29 C27.67 29 27.34 29 27 29 C27 20.42 27 11.84 27 3 C23.37 3 19.74 3 16 3 C16 2.34 16 1.68 16 1 C10.72 1 5.44 1 0 1 C0 0.67 0 0.34 0 0 Z " fill="#35B291" transform="translate(286,32)"/>
<path d="M0 0 C8.3984375 -0.29296875 8.3984375 -0.29296875 11 0 C13.28062828 3.42094242 13.21925007 4.68187222 13.125 8.6875 C13.10695312 9.68136719 13.08890625 10.67523438 13.0703125 11.69921875 C13.03550781 12.83810547 13.03550781 12.83810547 13 14 C12.34 14 11.68 14 11 14 C10.67 10.04 10.34 6.08 10 2 C7.02934491 2.34227572 7.02934491 2.34227572 4 3 C2.85185003 5.29629994 2.69230191 7.07698086 2.4375 9.625 C2.35371094 10.44226563 2.26992187 11.25953125 2.18359375 12.1015625 C2.12300781 12.72804687 2.06242188 13.35453125 2 14 C1.34 14 0.68 14 0 14 C0 9.38 0 4.76 0 0 Z " fill="#FAFAFE" transform="translate(236,121)"/>
<path d="M0 0 C7.51953125 -0.390625 7.51953125 -0.390625 10 0 C12.30744636 2.14831213 12.9367257 3.44318614 13.29296875 6.578125 C13.25816406 7.45984375 13.22335938 8.3415625 13.1875 9.25 C13.16042969 10.14203125 13.13335937 11.0340625 13.10546875 11.953125 C13.07066406 12.62859375 13.03585938 13.3040625 13 14 C12.34 14 11.68 14 11 14 C10.93941406 13.37351563 10.87882813 12.74703125 10.81640625 12.1015625 C10.69072266 10.87566406 10.69072266 10.87566406 10.5625 9.625 C10.48128906 8.81289062 10.40007812 8.00078125 10.31640625 7.1640625 C10.10909886 4.95727195 10.10909886 4.95727195 9 3 C7.33388095 2.957279 5.66617115 2.95936168 4 3 C2.33657163 4.66342837 2.63951903 6.7825709 2.4375 9.0625 C2.31181641 10.44115234 2.31181641 10.44115234 2.18359375 11.84765625 C2.12300781 12.55792969 2.06242188 13.26820313 2 14 C1.34 14 0.68 14 0 14 C0 9.38 0 4.76 0 0 Z " fill="#F8F9FD" transform="translate(127,121)"/>
<path d="M0 0 C0 0.33 0 0.66 0 1 C-1.16917969 0.97679688 -2.33835937 0.95359375 -3.54296875 0.9296875 C-5.09113942 0.91092179 -6.63931703 0.89272245 -8.1875 0.875 C-8.95642578 0.85824219 -9.72535156 0.84148438 -10.51757812 0.82421875 C-14.8149434 0.78733149 -18.07901831 1.0041496 -22 3 C-21.34 3.33 -20.68 3.66 -20 4 C-20 4.66 -20 5.32 -20 6 C-20.99 6.495 -20.99 6.495 -22 7 C-21.67 7.66 -21.34 8.32 -21 9 C-18.28553021 9.31241455 -15.66090639 9.51336592 -12.9375 9.625 C-11.79958008 9.68300781 -11.79958008 9.68300781 -10.63867188 9.7421875 C-8.75952805 9.83673562 -6.87979664 9.91946756 -5 10 C-5 10.33 -5 10.66 -5 11 C-7.77141717 11.08089542 -10.54047819 11.14044062 -13.3125 11.1875 C-14.09818359 11.21263672 -14.88386719 11.23777344 -15.69335938 11.26367188 C-16.45068359 11.27333984 -17.20800781 11.28300781 -17.98828125 11.29296875 C-18.68477783 11.3086792 -19.38127441 11.32438965 -20.09887695 11.34057617 C-22.6261306 10.887832 -23.4899388 10.05035027 -25 8 C-25.1875 4.3125 -25.1875 4.3125 -25 1 C-16.65052888 -1.90416387 -8.63702368 -1.27955906 0 0 Z " fill="#33B395" transform="translate(324,18)"/>
<path d="M0 0 C0.99 0.33 1.98 0.66 3 1 C3 1.99 3 2.98 3 4 C3.99 4 4.98 4 6 4 C6 4.66 6 5.32 6 6 C4.68 6 3.36 6 2 6 C2.66 9.3 3.32 12.6 4 16 C5.65 16 7.3 16 9 16 C9 16.66 9 17.32 9 18 C2.84765625 18.09765625 2.84765625 18.09765625 1 18 C0 17 0 17 -0.09765625 14.49609375 C-0.08605469 13.48675781 -0.07445312 12.47742188 -0.0625 11.4375 C-0.05347656 10.42558594 -0.04445312 9.41367188 -0.03515625 8.37109375 C-0.02355469 7.58863281 -0.01195312 6.80617188 0 6 C-0.66 6 -1.32 6 -2 6 C-2 5.34 -2 4.68 -2 4 C-1.34 4 -0.68 4 0 4 C0 2.68 0 1.36 0 0 Z " fill="#F9F9FD" transform="translate(181,117)"/>
<path d="M0 0 C0.99 0 1.98 0 3 0 C3.99 3.3 4.98 6.6 6 10 C6.66 10 7.32 10 8 10 C8.12375 9.278125 8.2475 8.55625 8.375 7.8125 C8.9904931 5.04278106 9.88444374 2.6029646 11 0 C11.99 0.33 12.98 0.66 14 1 C12.35 4.96 10.7 8.92 9 13 C7.68 13 6.36 13 5 13 C4.16209211 11.21046815 3.32980604 9.41830305 2.5 7.625 C1.80390625 6.12839844 1.80390625 6.12839844 1.09375 4.6015625 C0 2 0 2 0 0 Z " fill="#FAFBFE" transform="translate(140,121)"/>
<path d="M0 0 C2.31 0 4.62 0 7 0 C7 0.66 7 1.32 7 2 C6.01 2.33 5.02 2.66 4 3 C2.83859208 5.95717749 2.83859208 5.95717749 3 9.0625 C3 12 3 12 2 14 C1.34 14 0.68 14 0 14 C0 9.38 0 4.76 0 0 Z " fill="#F7F8FB" transform="translate(71,121)"/>
<path d="M0 0 C0.66 0 1.32 0 2 0 C2 5.94 2 11.88 2 18 C1.34 18 0.68 18 0 18 C0 12.06 0 6.12 0 0 Z " fill="#F6F6FC" transform="translate(123,117)"/>
<path d="M0 0 C0.66 0 1.32 0 2 0 C2 4.62 2 9.24 2 14 C1.34 14 0.68 14 0 14 C0 9.38 0 4.76 0 0 Z " fill="#F0F3F9" transform="translate(232,121)"/>
<path d="M0 0 C6.36363636 -0.48951049 6.36363636 -0.48951049 9.4375 1.875 C11 4 11 4 11 6 C10.484375 5.731875 9.96875 5.46375 9.4375 5.1875 C6.33598585 3.67650593 3.17737194 2.34427274 0 1 C0 0.67 0 0.34 0 0 Z " fill="#F4F4FB" transform="translate(58,117)"/>
<path d="M0 0 C0.66 0 1.32 0 2 0 C1.75 1.875 1.75 1.875 1 4 C-1.49840595 5.87380446 -2.63319166 6.05001932 -5.75 5.625 C-6.4925 5.41875 -7.235 5.2125 -8 5 C-6 3 -6 3 -3.4375 2.5 C-2.633125 2.335 -1.82875 2.17 -1 2 C-0.67 1.34 -0.34 0.68 0 0 Z " fill="#FCFCFE" transform="translate(165,130)"/>
<path d="M0 0 C0.99 0.33 1.98 0.66 3 1 C3 1.66 3 2.32 3 3 C5.31 3 7.62 3 10 3 C9.34 3.66 8.68 4.32 8 5 C5 4.875 5 4.875 2 4 C0.625 1.9375 0.625 1.9375 0 0 Z " fill="#37B092" transform="translate(302,60)"/>
<path d="M0 0 C0.99 0.33 1.98 0.66 3 1 C2.67 1.66 2.34 2.32 2 3 C1.34 3 0.68 3 0 3 C0 2.01 0 1.02 0 0 Z " fill="#F7FAFF" transform="translate(232,116)"/>
<path d="M0 0 C0.99 0.33 1.98 0.66 3 1 C2.01 1.33 1.02 1.66 0 2 C0 1.34 0 0.68 0 0 Z " fill="#FCFCFF" transform="translate(113,133)"/>
</svg>
